<?xml version="1.0" encoding="utf-8"?>
<!-- Generator: Adobe Illustrator 27.5.0, SVG Export Plug-In . SVG Version: 6.00 Build 0)  -->
<svg version="1.1" xmlns="http://www.w3.org/2000/svg" xmlns:xlink="http://www.w3.org/1999/xlink" x="0px" y="0px"
	 viewBox="0 0 500 500" style="enable-background:new 0 0 500 500;" xml:space="preserve">
<g id="BACKGROUND">
	<rect style="fill:#F8FAFF;" width="500" height="500"/>
</g>
<g id="OBJECTS">
	<g>
		<ellipse style="fill:#CEDAEF;" cx="250" cy="409.713" rx="192.635" ry="8.5"/>
		<g>
			<path style="fill:#0B2656;" d="M362.814,89.416c-7.731-3.814-16.328,5.636-18.386,12.27c-1.347,4.341-0.531,8.641-1.348,12.986
				c-0.54,2.87-1.449,5.26-4.467,5.581c-6.602,0.701-12.247,2.312-15.007,9.263c-4.162,10.48,1.729,24.602,13.121,27.407
				c9.987,2.459,23.381,1.519,30.745-6.365c3.152-3.374,5.531-7.186,6.485-11.74c0.75-3.578-0.069-7.389,1.062-10.892
				c1.161-3.595,2.911-5.207,6.26-6.539c2.971-1.182,6.035-2.971,7.37-6.041c1.29-2.967,0.652-7.192-1.631-9.43
				c-1.841-1.805-4.267-1.929-6.236-3.368c-5.573-4.073-3.082-14.071-11.155-15.02C367.09,87.228,363.702,88.65,362.814,89.416z"/>
			<path style="fill:#E58680;" d="M375.717,113.763h-26.959c-1.027,0-1.861-1.26-1.861-2.815l0,0c0-1.554,0.833-2.814,1.861-2.814
				h26.959c1.028,0,1.861,1.26,1.861,2.814l0,0C377.577,112.503,376.744,113.763,375.717,113.763z"/>
			<g>
				<path style="fill:#F8B89D;" d="M364.526,140.92l-5.993-0.134c-1.744-0.039-3.126-1.485-3.087-3.229l0.3-13.397l12.31,0.276
					l-0.3,13.396C367.716,139.577,366.27,140.959,364.526,140.92z"/>
				<path style="fill:#D05C5D;" d="M355.521,134.165c11.154-1.254,12.534-9.729,12.534-9.729l-12.309-0.276L355.521,134.165z"/>
				<path style="fill:#F8B89D;" d="M374.498,111.017c0.311-13.874-5.109-17.214-11.883-17.366
					c-6.774-0.152-12.338,2.942-12.648,16.816c-0.152,6.774,5.126,16.41,11.9,16.562
					C368.641,127.181,374.346,117.791,374.498,111.017z"/>
			</g>
			<path style="fill:#2B2B2A;" d="M358.94,109.391c0-0.695-0.563-1.258-1.258-1.258c-0.695,0-1.258,0.563-1.258,1.258
				c0,0.695,0.563,1.258,1.258,1.258C358.377,110.649,358.94,110.086,358.94,109.391z"/>
			<path style="fill:#2B2B2A;" d="M368.049,109.391c0-0.695-0.563-1.258-1.258-1.258c-0.695,0-1.258,0.563-1.258,1.258
				c0,0.695,0.563,1.258,1.258,1.258C367.486,110.649,368.049,110.086,368.049,109.391z"/>
			<path style="fill:#D05C5D;" d="M362.279,114.33c-1.089,0-1.883-0.555-2.236-0.992c-0.174-0.214-0.141-0.529,0.074-0.703
				c0.214-0.173,0.527-0.14,0.701,0.071c0.11,0.132,1.113,1.231,2.942,0.177c0.239-0.137,0.546-0.057,0.683,0.183
				c0.139,0.239,0.057,0.545-0.183,0.683C363.53,114.171,362.862,114.33,362.279,114.33z"/>
			<path style="fill:#FFFFFF;" d="M357.667,115.839h9.109C366.775,115.839,361.846,122.456,357.667,115.839z"/>
			<path style="fill:#D05C5D;" d="M368.903,107.465l-3.49-0.477c-0.183-0.025-0.311-0.193-0.286-0.376l0,0
				c0.025-0.183,0.193-0.311,0.376-0.286l3.49,0.477c0.183,0.025,0.311,0.193,0.286,0.376l0,0
				C369.254,107.362,369.086,107.49,368.903,107.465z"/>
			<path style="fill:#D05C5D;" d="M354.826,107.465l3.49-0.477c0.183-0.025,0.311-0.193,0.286-0.376l0,0
				c-0.025-0.183-0.193-0.311-0.376-0.286l-3.49,0.477c-0.183,0.025-0.311,0.193-0.286,0.376l0,0
				C354.475,107.362,354.643,107.49,354.826,107.465z"/>
			<path style="fill:#CE4352;" d="M329.209,140.418c12.024-3.451,41.219-10.047,62.896-0.386c2.517,1.122,3.915,3.853,3.509,6.578
				l-8.303,55.711h-51.2l-11.285-54.629C324.164,144.49,326.066,141.32,329.209,140.418z"/>
			<path style="fill:#6E97FF;" d="M336.111,202.321l-1.574,25.187c-0.678,10.853,0.971,21.726,4.837,31.89l12.068,31.728h40.208
				l5.016-35.885c1.647-11.782,0.516-23.786-3.301-35.053l-6.054-17.866"/>
			<path style="fill:#E58680;" d="M354.045,291.126l11.849,32.687v4.245c0,5.745,1.526,11.386,4.422,16.348l13.813,23.665
				c0,0,3.471,17.645,0,28.927H397.4c0,0-1.717-7.81-1.717-13.017c0,0,0.884-10.992-1.72-13.596l-3.76-8.099l-2.913-25.099
				c-0.558-4.805-2.183-9.424-4.757-13.519l-2.454-3.904l-5.785-28.637H354.045z"/>
			<path style="fill:#F8B89D;" d="M386.24,291.126l-11.394,75.202c-0.579,3.821-1.679,7.526-3.101,11.119
				c-1.171,2.96-2.247,8.21-1.11,16.805l3.166,9.951h-13.611c0,0-2.122-14.854,0.65-22.56c1.509-4.195,2.238-8.628,2.538-13.076
				l5.221-77.442H386.24z"/>
			<path style="fill:#AF3E52;" d="M360.189,404.203c0,0-6.085,4.087,1.556,8.499h11.735c0,0,4.613-4.207,0.32-8.499H360.189z"/>
			<path style="fill:#AF3E52;" d="M370.184,389.526c-0.084,0-0.168-0.021-0.244-0.065c-5.613-3.242-9.942-0.162-10.123-0.03
				c-0.215,0.162-0.522,0.116-0.683-0.105c-0.16-0.216-0.114-0.521,0.103-0.681c0.05-0.036,5.006-3.595,11.191-0.03
				c0.233,0.135,0.313,0.435,0.179,0.667C370.516,389.438,370.352,389.526,370.184,389.526z"/>
			<path style="fill:#AF3E52;" d="M384.129,396.997c0,0-2.191,0.813-2.191,3.319c0,0-2.421,7.367,1.095,9.398h8.383
				c1.656,0,3.24-0.646,4.412-1.815c2.891-2.882,7.318-8.431,1.572-10.902H384.129z"/>
			<path style="fill:#AF3E52;" d="M393.964,370.384c0,0,5.292,3.034,5.292,9.845l-3.466,6.23
				C395.79,386.46,393.964,385.379,393.964,370.384z"/>
			<path style="fill:#AF3E52;" d="M391.615,381.878c-2.973,0-5.899-0.34-6.082-0.362c-0.269-0.031-0.46-0.275-0.427-0.542
				c0.03-0.267,0.279-0.454,0.542-0.427c0.069,0.01,6.736,0.788,10.056,0.01c0.259-0.069,0.526,0.103,0.586,0.364
				c0.061,0.261-0.101,0.525-0.364,0.585C394.732,381.787,393.166,381.878,391.615,381.878z"/>
			<path style="fill:#F8B89D;" d="M395.614,146.61l3.567,53.476l-49.732,3.353c0,0-16.285,1.256-20.396-1.118
				c0,0-1.843-0.571-0.704-2.361c0,0-3.103-0.976-0.372-3.011c0,0-2.815-1.221-0.279-2.685c0,0-2.177,0.326-2.177-1.139
				c0,0-1.123-2.985,7.921-3.72c0,0,10.936,1.604,16.795,2.744c0,0,25.713-2.116,35.477-6.51l-1.302-29.293
				C384.412,156.347,387.775,147.126,395.614,146.61z"/>
			<path style="fill:#E09B89;" d="M324.695,145.617c0,0,12.66,8.545,17.569,17.272l-9.245,24.463
				C333.018,187.352,320.954,157.71,324.695,145.617z"/>
			<path d="M384.826,210.139h-44.994c-0.269,0-0.488-0.219-0.488-0.488s0.219-0.488,0.488-0.488h44.994
				c0.269,0,0.488,0.219,0.488,0.488S385.095,210.139,384.826,210.139z"/>
			<path d="M368.599,291.614c-0.01,0-0.019,0-0.029,0c-0.269-0.017-0.475-0.248-0.46-0.517l1.585-27.584
				c0.015-0.269,0.252-0.46,0.517-0.46c0.269,0.017,0.475,0.248,0.46,0.517l-1.585,27.584
				C369.072,291.414,368.856,291.614,368.599,291.614z"/>
			<path d="M342.264,163.376c-0.254,0-0.467-0.195-0.486-0.452l-1.146-15.441c-0.021-0.269,0.181-0.503,0.45-0.523
				c0.254-0.028,0.502,0.182,0.523,0.451l1.146,15.441c0.021,0.269-0.181,0.503-0.45,0.523
				C342.289,163.376,342.275,163.376,342.264,163.376z"/>
			<path d="M384.412,156.835c-0.238,0-0.446-0.174-0.482-0.417l-1.449-9.738c-0.04-0.266,0.143-0.515,0.41-0.554
				c0.278-0.049,0.515,0.145,0.555,0.411l1.449,9.738c0.04,0.266-0.143,0.515-0.41,0.554
				C384.46,156.833,384.435,156.835,384.412,156.835z"/>
			<path style="fill:#F8B89D;" d="M342.264,162.889l4.909-20.544l-0.909-11.636c0,0-0.182-16.908,0.909-17.999
				c0,0,2.909-3.091,2.909,2.182v11.09l5.091-3.818l5.818,4.727l1.339,4.727c0,0-1.887,2.15-2.704-1.561l0.564,6.106l-2.29,3.454
				c0,0-0.814,6-5.603,6l1.239,40.725c0,0-3.454,13.09-10.181,13.09c0,0-12.491,1.111-10.336-12.08L342.264,162.889z"/>
			<path style="fill:#0B2656;" d="M359.709,91.471c-3.391-1.355-7.948,4.249-9.186,6.786c-1.595,3.268-1.711,7.165-3.601,10.252
				c0.8-1.352,3.946-1.369,5.344-1.636c3.416-0.652,5.863-1.786,8.499-4.055c1.961-1.688,3.217-3.634,4.944-5.47
				c0.664-0.705,1.419-1.374,2.314-1.684c1.254-0.434,2.5-0.083,3.731,0.089c-0.384-1.141-1.88-2.34-2.76-3.1
				c-1.245-1.075-2.988-1.678-4.624-1.875C363.132,90.63,360.206,90.46,359.709,91.471z"/>
			<path style="fill:#0B2656;" d="M368.596,94.552c-1.048,2.383,0.525,5.678,1.55,7.873c0.904,1.936,2.522,5.416,4.627,6.335
				c1.565-3.993,0.276-8.247-1.652-11.883C372.264,95.259,370.229,93.056,368.596,94.552z"/>
		</g>
		<g>
			<path style="fill:#893327;" d="M200.319,118.274c-3.176-1.03-5.456-1.395-7.922-3.963c-3.384-3.523-6.949-6.643-6.412-11.931
				c0.722-7.111,4.115-16.767,12.438-17.969c2.485-0.359,4.83-0.101,7.279,0.009c1.875,0.084,3.68-0.752,5.6-0.44
				c2.308,0.374,5.083,1.918,6.232,3.97c1.044,1.865,0.794,4.291,1.292,6.336c0.796,3.275,2.93,6.593,2.808,10.037
				c-0.112,3.146-2.01,6.382-4.009,8.723c-2.928,3.429-6.688,6.405-11.349,6.361C204.581,119.39,200.886,119.542,200.319,118.274z"
				/>
			<path style="fill:#74CD80;" d="M183.129,129.404c9.889-2.478,26.343-4.848,44.176-0.037c5.296,1.429,8.795,6.477,8.249,11.935
				l-4.93,49.297l7.929,47.573l-69.245-6.872l12.686-39.115l-7.134-50.382C174.062,136.167,177.608,130.787,183.129,129.404z"/>
			<polygon style="fill:#FD81A3;" points="238.553,238.171 220.331,387.204 208.38,387.204 203.93,264.824 193.561,387.204 
				181.132,387.204 169.308,231.3 			"/>
			<path style="fill:#74CD80;" d="M176.529,134.169L176.529,134.169c-7.525,10.757-11.788,23.456-12.275,36.575l-1.178,31.719
				l10.835,14.645l4.961-15.296l-4.432-9.179l4.112-24.765L176.529,134.169z"/>
			<path style="fill:#74CD80;" d="M233.693,133.93l5.705,10.879c4.383,8.358,6.984,17.534,7.639,26.949l1.611,23.154l-13.605,22.196
				l-3.425-20.551l4.012-8.48l-3.126-16.261L233.693,133.93z"/>
			<path d="M178.552,168.357c-0.002,0-0.004,0-0.006,0c-0.271-0.004-0.486-0.225-0.482-0.494l0.32-24.6
				c0.004-0.267,0.221-0.482,0.488-0.482c0.002,0,0.004,0,0.006,0c0.271,0.004,0.486,0.225,0.482,0.495l-0.32,24.598
				C179.036,168.143,178.819,168.357,178.552,168.357z"/>
			<path d="M231.477,170.81c-0.269,0-0.488-0.219-0.488-0.488v-27.284c0-0.27,0.219-0.488,0.488-0.488s0.488,0.218,0.488,0.488
				v27.284C231.966,170.59,231.746,170.81,231.477,170.81z"/>
			<path d="M195.765,174.685c-0.217,0-0.416-0.145-0.473-0.366c-0.067-0.261,0.09-0.526,0.351-0.595l14.128-3.663
				c0.059-0.015,0.118-0.017,0.187-0.011l13.866,1.831c0.267,0.036,0.454,0.28,0.42,0.549c-0.036,0.265-0.263,0.437-0.549,0.419
				l-13.771-1.819l-14.036,3.641C195.847,174.679,195.805,174.685,195.765,174.685z"/>
			<path d="M170.638,249.33c-0.269,0-0.488-0.219-0.488-0.488c0-0.269,0.219-0.488,0.488-0.488c3.025,0,5.401-0.976,7.058-2.902
				c3.896-4.526,2.695-12.848,2.683-12.932c-0.04-0.267,0.143-0.515,0.41-0.555c0.276-0.046,0.515,0.145,0.555,0.41
				c0.053,0.359,1.276,8.853-2.908,13.714C176.584,248.239,173.96,249.33,170.638,249.33z"/>
			<path d="M237.248,249.33c-0.031,0-0.061-0.002-0.091-0.01c-0.107-0.019-10.682-2.165-9.566-12.242
				c0.029-0.269,0.267-0.492,0.538-0.431c0.269,0.029,0.462,0.271,0.431,0.538c-1.013,9.175,8.38,11.099,8.78,11.177
				c0.265,0.05,0.439,0.307,0.387,0.57C237.683,249.168,237.479,249.33,237.248,249.33z"/>
			<path d="M192.214,383.118H181.96c-0.269,0-0.488-0.219-0.488-0.488c0-0.269,0.219-0.488,0.488-0.488h10.254
				c0.269,0,0.488,0.219,0.488,0.488C192.703,382.899,192.483,383.118,192.214,383.118z"/>
			<path d="M219.631,383.118h-10.254c-0.269,0-0.488-0.219-0.488-0.488c0-0.269,0.219-0.488,0.488-0.488h10.254
				c0.269,0,0.488,0.219,0.488,0.488C220.119,382.899,219.9,383.118,219.631,383.118z"/>
			<path d="M211.936,265.643h-13.706c-0.269,0-0.488-0.219-0.488-0.488c0-0.269,0.219-0.488,0.488-0.488h13.706
				c0.269,0,0.488,0.219,0.488,0.488C212.424,265.424,212.204,265.643,211.936,265.643z"/>
			<path d="M232.585,232.935c-0.013,0-0.029,0-0.044-0.002l-57.684-5.16c-0.269-0.025-0.467-0.261-0.443-0.53
				c0.023-0.267,0.233-0.49,0.53-0.442l57.684,5.161c0.269,0.025,0.467,0.261,0.442,0.53
				C233.049,232.744,232.835,232.935,232.585,232.935z"/>
			<path style="fill:#322F2E;" d="M181.132,387.204l-0.063,7.06c-0.009,1.034-0.242,2.055-0.682,2.991l-2.029,4.314
				c-1.122,2.384-1.703,4.986-1.703,7.621v1.612c0,0,2.673,4.277,16.037,0l1.209-6.148c0,0,0.206-6.652-0.968-9.351
				c-0.398-0.915-0.54-1.922-0.568-2.919l-0.146-5.18H181.132z"/>
			<path style="fill:#322F2E;" d="M219.637,387.204l0.063,7.06c0.009,1.034,0.242,2.055,0.682,2.991l2.029,4.314
				c1.122,2.384,1.703,4.986,1.703,7.621v1.612c0,0-2.673,4.277-16.037,0l-1.209-6.148c0,0-0.206-6.652,0.969-9.351
				c0.398-0.915,0.54-1.922,0.568-2.919l0.146-5.18H219.637z"/>
			<path style="fill:#E58680;" d="M218.09,107.929h-26.959c-1.027,0-1.861-1.26-1.861-2.814l0,0c0-1.554,0.833-2.814,1.861-2.814
				h26.959c1.028,0,1.861,1.26,1.861,2.814l0,0C219.951,106.669,219.118,107.929,218.09,107.929z"/>
			<g>
				<path style="fill:#F8B89D;" d="M206.899,135.086l-5.993-0.134c-1.744-0.039-3.126-1.485-3.087-3.229l0.3-13.397l12.309,0.276
					l-0.3,13.397C210.089,133.743,208.643,135.126,206.899,135.086z"/>
				<path style="fill:#D05C5D;" d="M197.895,128.332c11.154-1.254,12.534-9.729,12.534-9.729l-12.309-0.276L197.895,128.332z"/>
				<path style="fill:#F8B89D;" d="M216.871,105.184c0.311-13.874-5.109-17.214-11.883-17.366
					c-6.774-0.152-12.338,2.942-12.648,16.816c-0.152,6.774,5.127,16.41,11.901,16.562
					C211.015,121.348,216.719,111.958,216.871,105.184z"/>
			</g>
			<path style="fill:#2B2B2A;" d="M201.314,103.558c0-0.695-0.563-1.258-1.258-1.258c-0.695,0-1.258,0.563-1.258,1.258
				c0,0.695,0.563,1.258,1.258,1.258C200.751,104.816,201.314,104.253,201.314,103.558z"/>
			<path style="fill:#2B2B2A;" d="M210.422,103.558c0-0.695-0.563-1.258-1.258-1.258c-0.695,0-1.258,0.563-1.258,1.258
				c0,0.695,0.563,1.258,1.258,1.258C209.859,104.816,210.422,104.253,210.422,103.558z"/>
			<path style="fill:#D05C5D;" d="M204.652,108.497c-1.089,0-1.883-0.555-2.236-0.992c-0.174-0.214-0.141-0.529,0.074-0.703
				c0.214-0.173,0.527-0.14,0.701,0.071c0.11,0.132,1.113,1.231,2.942,0.177c0.239-0.137,0.546-0.057,0.683,0.183
				c0.139,0.239,0.057,0.545-0.183,0.683C205.903,108.338,205.235,108.497,204.652,108.497z"/>
			<path style="fill:#FFFFFF;" d="M200.04,110.006h9.109C209.149,110.006,204.219,116.622,200.04,110.006z"/>
			<path style="fill:#D05C5D;" d="M211.276,101.632l-3.49-0.477c-0.183-0.025-0.311-0.193-0.286-0.376l0,0
				c0.025-0.183,0.193-0.311,0.376-0.286l3.49,0.477c0.183,0.025,0.311,0.193,0.286,0.376l0,0
				C211.627,101.529,211.459,101.657,211.276,101.632z"/>
			<path style="fill:#D05C5D;" d="M197.199,101.632l3.49-0.477c0.183-0.025,0.311-0.193,0.286-0.376l0,0
				c-0.025-0.183-0.193-0.311-0.376-0.286l-3.49,0.477c-0.183,0.025-0.311,0.193-0.286,0.376l0,0
				C196.848,101.529,197.017,101.657,197.199,101.632z"/>
			<path style="fill:#893327;" d="M192.456,99.136c0.145-0.011,0.616-0.305,0.861-0.424c0.731-0.354,1.539-0.586,2.329-0.778
				c1.21-0.294,2.485-0.376,3.721-0.447c0.877-0.05,1.33,0.104,1.514-0.832c0.162-0.825,0.174-1.743,0.211-2.581
				c0.756,0.619,0.113,2.551,0.79,3.074c0.289,0.223,1.889,0.05,2.231,0.064c0.813,0.033,1.617-0.076,2.417-0.061
				c0.312-0.996-0.321-2.245-0.055-3.128c0.625,0.652,0.473,1.902,0.667,2.73c0.194,0.829,0.549,0.825,1.376,0.903
				c0.414,0.039,2.275,0.362,2.586,0.037c0.435-0.455-0.052-2.55-0.006-3.226c0.736,1.111,0.383,3.382,2.087,3.419
				c0.984,0.021,2.437-0.402,3.283,0.124c0.27-0.655,0.094-1.759,0.003-2.445c-0.219-1.651-1.107-2.813-2.128-4.064
				c-1.049-1.285-2.229-2.336-3.678-3.156c-1.742-0.986-3.521-2.029-5.567-2.114c-4.238-0.177-8.051,2.442-10.405,5.793
				c-1.102,1.569-1.544,3.404-1.916,5.247C192.693,97.685,192.424,99.138,192.456,99.136z"/>
			<circle style="fill:#893327;" cx="194.92" cy="81.714" r="10.964"/>
		</g>
		<g>
			<path style="fill:#FBCA64;" d="M110.108,132.885l49.465,3.658c6.442,0.476,11.019,6.477,9.775,12.816l-14.857,75.734h-53.034
				l-2.909-81.079C98.319,137.602,103.71,132.412,110.108,132.885z"/>
			<polygon style="fill:#068A85;" points="154.492,225.093 132.455,380.727 115.544,380.727 124.767,265.165 116.055,314.138 
				143.727,360.479 127.819,369.664 93.508,314.138 101.458,225.093 			"/>
			<polygon style="fill:#FBCA64;" points="169.522,146.65 183.956,203.029 147.469,230.251 139.807,220.634 167.537,200.331 
				164.095,176.141 			"/>
			<polygon style="fill:#FBCA64;" points="99.835,138.505 79.603,185.443 96.752,225.093 105.874,218.353 93.508,185.443 
				99.625,173.992 			"/>
			<polygon style="fill:#F8B89D;" points="116.889,380.727 114.311,393.554 126.508,394.395 129.452,380.727 			"/>
			<polygon style="fill:#F8B89D;" points="130.19,368.295 140.807,384.173 145.902,369.792 140.443,362.375 			"/>
			<path style="fill:#33312E;" d="M114.311,393.554c0,0-8.832,10.304-7.781,16.613c0,0-1.065,4.44,15.081,1.569
				c3.238-0.576,5.292-3.807,4.463-6.99c-0.153-0.587-0.354-1.182-0.618-1.77l1.052-8.581L114.311,393.554z"/>
			<path style="fill:#33312E;" d="M140.807,384.173c0,0,10.304,11.484,12.197,18.003c0,0,3.877,8.201,8.878,9.042
				c0,0,9.929-8.832,0-24.393c0,0-7.39-6.94-7.39-16.192c0,0-0.016-5.467-4.222-5.467c0,0-5.606-0.18-6.931,1.145l2.563,3.482
				L140.807,384.173z"/>
			<path d="M127.911,260.212c-0.023,0-0.048-0.002-0.073-0.006l-6.03-0.913c-0.257-0.038-0.439-0.273-0.414-0.532l2.119-20.841
				c0.029-0.267,0.246-0.463,0.536-0.437c0.269,0.029,0.464,0.267,0.437,0.536l-2.073,20.377l5.571,0.845
				c0.267,0.04,0.45,0.29,0.41,0.555C128.357,260.039,128.149,260.212,127.911,260.212z"/>
			<path d="M151.822,244.441c-4.276,0-7.476-1.344-9.509-3.999c-4.32-5.635-1.848-15.076-1.739-15.476
				c0.071-0.259,0.341-0.41,0.597-0.343c0.261,0.071,0.416,0.338,0.345,0.597c-0.025,0.094-2.454,9.381,1.573,14.631
				c1.838,2.397,4.777,3.614,8.733,3.614c0.269,0,0.488,0.219,0.488,0.488C152.31,244.221,152.091,244.441,151.822,244.441z"/>
			<path d="M163.101,171.304c-0.012,0-0.023,0-0.034-0.002c-0.269-0.019-0.471-0.252-0.452-0.521l1.344-19.097
				c0.017-0.27,0.252-0.474,0.521-0.453c0.269,0.019,0.471,0.253,0.452,0.522l-1.344,19.097
				C163.57,171.108,163.354,171.304,163.101,171.304z"/>
			<path d="M102.854,171.304c-0.012,0-0.025,0-0.037-0.002c-0.269-0.019-0.47-0.254-0.451-0.523l1.614-21.787
				c0.02-0.269,0.258-0.47,0.523-0.451c0.269,0.02,0.471,0.255,0.451,0.523l-1.614,21.787
				C103.321,171.108,103.107,171.304,102.854,171.304z"/>
			<path d="M124.896,221.106c-0.019,0-0.036-0.002-0.057-0.004c-0.267-0.031-0.46-0.273-0.427-0.542l8.305-71.587
				c0.031-0.268,0.269-0.45,0.54-0.429c0.269,0.031,0.462,0.274,0.429,0.542l-8.305,71.587
				C125.352,220.923,125.142,221.106,124.896,221.106z"/>
			<path style="fill:#E09B89;" d="M139.807,220.634l-3.812,2.558c0,0-11.667-1.896-16.202,0.722l-2.904,4.37
				c0,0,3.485,11.395,16.313,10.747l5.388-5.608l7.312-5.139L139.807,220.634z"/>
			<path style="fill:#F8B89D;" d="M105.874,218.353c0,0,3.303,3.832,6.672,3.832c0,0,11.679,2.021,12.577,4.717l-7.187,1.382
				c0,0,5.826,9.174,15.266,10.747c0,0-0.052,3.608-6.648,2.141c0,0,2.043,3.685-4.186,3.685c0,0-2.144,2.099-5.779,0l-6.963-4.478
				l-11.084-16.607L105.874,218.353z"/>
			<path d="M134.048,345.621c-0.17,0-0.334-0.09-0.425-0.248l-10.048-17.69c-0.132-0.234-0.05-0.532,0.185-0.666
				c0.227-0.13,0.528-0.049,0.665,0.185l10.048,17.69c0.132,0.235,0.05,0.532-0.185,0.666
				C134.214,345.6,134.13,345.621,134.048,345.621z"/>
			<path d="M124.896,142.283c-0.126,0-0.252-0.05-0.343-0.142c-0.137-0.135-0.181-0.339-0.113-0.519
				c1.36-3.599,4.888-7.446,5.039-7.608c0.181-0.198,0.49-0.21,0.69-0.028c0.196,0.182,0.21,0.491,0.027,0.689
				c-0.032,0.034-2.874,3.135-4.388,6.245l8.12-3.13c0.244-0.096,0.534,0.029,0.631,0.28c0.097,0.252-0.029,0.534-0.28,0.631
				l-9.208,3.549C125.014,142.273,124.955,142.283,124.896,142.283z"/>
			<path d="M145.309,142.283c-0.061,0-0.124-0.012-0.183-0.035c-0.072-0.03-7.247-2.929-9.103-3.267
				c-0.265-0.049-0.44-0.303-0.393-0.568c0.05-0.265,0.286-0.438,0.568-0.393c1.598,0.292,6.604,2.249,8.534,3.018
				c-0.568-2.56-3.69-5.45-3.724-5.483c-0.198-0.182-0.212-0.491-0.031-0.689c0.187-0.199,0.494-0.213,0.69-0.029
				c0.168,0.154,4.129,3.821,4.129,6.959c0,0.162-0.08,0.314-0.215,0.405C145.5,142.254,145.405,142.283,145.309,142.283z"/>
			<g>
				<path style="fill:#E58680;" d="M150.751,111.942l-26.946-0.838c-1.027-0.032-1.82-1.317-1.772-2.871l0,0
					c0.048-1.554,0.92-2.787,1.947-2.755l26.946,0.838c1.027,0.032,1.821,1.317,1.772,2.871l0,0
					C152.649,110.74,151.778,111.974,150.751,111.942z"/>
				<g>
					<path style="fill:#F8B89D;" d="M138.721,138.738l-5.986-0.32c-1.742-0.093-3.079-1.581-2.985-3.323l0.717-13.381l12.295,0.658
						l-0.717,13.381C141.951,137.495,140.463,138.831,138.721,138.738z"/>
					<path style="fill:#D05C5D;" d="M129.923,131.848c9.641-0.209,12.838-9.476,12.838-9.476l-12.295-0.658L129.923,131.848z"/>
					<path style="fill:#F8B89D;" d="M149.618,109.16c0.742-13.858-4.571-17.365-11.337-17.727
						c-6.766-0.362-12.423,2.557-13.165,16.415c-0.362,6.766,4.614,16.562,11.38,16.924
						C143.262,125.134,149.255,115.926,149.618,109.16z"/>
				</g>
				<path style="fill:#2B2B2A;" d="M134.118,107.051c0.022-0.694-0.524-1.275-1.218-1.296c-0.694-0.022-1.275,0.524-1.296,1.218
					c-0.021,0.694,0.524,1.274,1.218,1.296C133.517,108.291,134.097,107.745,134.118,107.051z"/>
				<path style="fill:#2B2B2A;" d="M143.223,107.334c0.022-0.694-0.524-1.275-1.218-1.296c-0.694-0.022-1.275,0.524-1.296,1.218
					c-0.022,0.694,0.524,1.275,1.218,1.296C142.621,108.574,143.201,108.029,143.223,107.334z"/>
				<path style="fill:#D05C5D;" d="M137.302,112.092c-1.088-0.034-1.865-0.613-2.204-1.061c-0.167-0.22-0.124-0.533,0.096-0.7
					c0.219-0.166,0.531-0.124,0.699,0.093c0.106,0.136,1.074,1.266,2.936,0.268c0.243-0.13,0.547-0.04,0.677,0.204
					c0.131,0.243,0.04,0.546-0.204,0.677C138.557,111.971,137.885,112.11,137.302,112.092z"/>
				<path style="fill:#FFFFFF;" d="M132.645,113.445l9.104,0.283C141.749,113.728,136.617,120.188,132.645,113.445z"/>
				<path style="fill:#D05C5D;" d="M133.504,119.576c-0.066-0.024-0.121-0.075-0.149-0.146c-0.049-0.129,0.016-0.274,0.144-0.323
					c0.153-0.058,3.775-1.412,7.039-0.235c0.13,0.047,0.197,0.19,0.15,0.32s-0.19,0.197-0.32,0.15
					c-3.087-1.113-6.655,0.218-6.691,0.231C133.62,119.597,133.559,119.596,133.504,119.576z"/>
				<path style="fill:#D05C5D;" d="M144.136,105.435l-3.474-0.585c-0.182-0.031-0.305-0.203-0.274-0.385l0,0
					c0.031-0.182,0.203-0.304,0.385-0.274l3.474,0.585c0.182,0.031,0.305,0.203,0.274,0.385l0,0
					C144.49,105.343,144.318,105.466,144.136,105.435z"/>
				<path style="fill:#D05C5D;" d="M130.066,104.998l3.503-0.368c0.183-0.019,0.317-0.184,0.297-0.367l0,0
					c-0.019-0.184-0.184-0.317-0.367-0.297l-3.503,0.368c-0.184,0.019-0.317,0.184-0.297,0.367l0,0
					C129.718,104.884,129.883,105.017,130.066,104.998z"/>
			</g>
			<path style="fill:#33332A;" d="M150.862,101.6c-0.097-1.483-0.46-4.098-1.57-5.449c0.393-0.715,0.68-1.452,0.794-2.102
				c1.308-7.434-6.734-12.896-13.418-11.135c-2.623,0.691-4.809,2.266-6.384,4.44c-1.499,2.07-1.98,4.479-3.142,6.706
				c-0.824,1.58-2.769,2.312-3.213,3.91c-1.09,0.981-1.374,2.456-0.587,5.248c0.628,2.23,1.105,7.193,2.76,8.657
				c1.16-2.813,1.04-6.725,1.722-9.816c0.234-1.059,0.687-2.531,0.889-3.921c0.652-0.373,1.377-0.666,2.176-0.891
				c0.295-0.028,0.604,0.021,1.016,0.217c1.198,0.568,2.26,1.6,3.243,2.487c1.703,1.537,4.613,3.679,6.97,2.035
				c-2.812,1.207-7.25-2.303-7.804-5.482c0.246-0.044,0.491-0.081,0.737-0.112c0.652,0.928,1.617,1.848,2.239,2.358
				c1.378,1.13,4.444,1.881,6.129,1.145c-1.63,0.323-3.439-1.189-4.409-2.303c-0.231-0.266-0.463-0.574-0.699-0.901
				c1.153,0.4,2.184,1.026,3.305,1.523c1.066,0.472,2.856,1.228,4.086,1.091c0.358,0.89,0.842,1.747,1.227,2.592
				c0.589,1.292,1.202,2.674,1.424,4.087c0.22,1.404,0.488,3.188,1.13,4.479c1.177-0.269,0.85-3.275,1.04-4.216
				C150.831,104.72,150.96,103.154,150.862,101.6z"/>
		</g>
		<g>
			<path style="fill:#6DB1F6;" d="M264.017,136.853c11.179-1.426,26.248-2.132,43.397,0.251
				c10.936,1.52,18.909,11.127,18.232,22.147l-4.933,80.307h-66.177l-8.792-79.522C244.481,148.61,252.614,138.307,264.017,136.853z
				"/>
			<polygon style="fill:#A93D52;" points="320.714,239.558 317.651,387.664 304.037,387.664 288.558,275.862 277.426,387.664 
				265.011,387.664 254.537,239.558 			"/>
			<path d="M320.373,256.57c-0.021,0-0.042-0.002-0.063-0.004c-5.174-0.662-8.833-2.622-10.876-5.826
				c-3.171-4.976-1.282-11.074-1.2-11.332c0.082-0.258,0.352-0.395,0.613-0.317c0.257,0.082,0.399,0.357,0.318,0.614
				c-0.019,0.057-1.831,5.931,1.096,10.516c1.88,2.945,5.304,4.754,10.172,5.376c0.267,0.034,0.457,0.279,0.422,0.545
				C320.825,256.391,320.614,256.57,320.373,256.57z"/>
			<path d="M255.995,256.57c-0.242,0-0.452-0.179-0.484-0.427c-0.034-0.267,0.155-0.511,0.422-0.545
				c4.873-0.624,8.296-2.433,10.176-5.382c2.927-4.594,1.112-10.453,1.093-10.51c-0.082-0.258,0.06-0.532,0.318-0.614
				c0.258-0.078,0.53,0.059,0.613,0.317c0.082,0.257,1.971,6.356-1.201,11.332c-2.043,3.204-5.702,5.164-10.875,5.826
				C256.037,256.568,256.016,256.57,255.995,256.57z"/>
			<path d="M321.158,232.81h-67.421c-0.27,0-0.488-0.219-0.488-0.488c0-0.269,0.218-0.488,0.488-0.488h67.421
				c0.27,0,0.488,0.219,0.488,0.488C321.646,232.59,321.427,232.81,321.158,232.81z"/>
			<path style="fill:#39536F;" d="M304.037,387.664l-1.442,19.381c0,0,4.09,1.939,7.539,3.672c2.587,1.3,5.438,1.985,8.333,1.985
				h12.65c0,0,0.168-8.76-8.599-14.159c-2.58-1.589-4.57-4.103-5.052-7.095c-0.187-1.163-0.177-2.441,0.184-3.784H304.037z"/>
			<path style="fill:#39536F;" d="M277.523,387.664l1.442,19.381c0,0-4.09,1.939-7.539,3.672c-2.587,1.3-5.438,1.985-8.333,1.985
				h-12.65c0,0-0.169-8.76,8.599-14.159c2.58-1.589,4.57-4.103,5.052-7.095c0.187-1.163,0.177-2.441-0.184-3.784H277.523z"/>
			<path style="fill:#6DB1F6;" d="M251.992,142.66c0,0-11.498,8.451-11.498,26.957c0,0,13.69-6.338,20.281,3.042
				C260.775,172.659,265.522,142.66,251.992,142.66z"/>
			<path style="fill:#6DB1F6;" d="M310.753,137.846c0,0,15.428,2.695,23.54,20.782c0,0-12.23-3.889-23.07,2.369
				C311.224,160.998,300.328,141.21,310.753,137.846z"/>
			<path style="fill:#F8B89D;" d="M260.775,172.659l-2.789,11.35l17.239,1.579h10.17l13.914,5.831l-53.694,12.676
				c0,0-6.17-21.889-3.021-35.274C242.594,168.82,255.793,163.125,260.775,172.659z"/>
			<path style="fill:#EDAC96;" d="M285.395,185.588c0,0,9.858,10.823,44.335,4.271c0,0,2.806-21.116,1.276-31.96
				c0,0-11.487-3.658-16.771,1.626l-0.983,13.134l-52.884,1.657l-2.382,9.694C257.986,184.01,273.509,186.349,285.395,185.588z"/>
			<path style="fill:#F8B89D;" d="M304.912,173.012c0,0,0.579-11.016,7.986-16.561c0,0,5.456-4.269,11.268-2.758
				c0,0,2.028,1.882-0.783,2.444c0,0-5.187-0.05-7.161,1.684c0,0,9.006-0.232,11.291,0.541c0,0,1.214,1.624-1.353,2.136
				c0,0-6.093,0.033-9.41,1.879c0,0,9.564-0.471,10.785,1.191c0,0,0.977,1.711-2.591,1.661c0,0-5.572,0.096-7.796,1.048
				c0,0,7.591-0.17,7.884,1.3c0,0,0.644,1.954-7.348,2.024c0,0-4.384,1.524-3.934,3.779L304.912,173.012z"/>
			<path d="M291.587,270.507h-7.429c-0.27,0-0.488-0.219-0.488-0.488V247.82c0-0.269,0.218-0.488,0.488-0.488
				c0.27,0,0.488,0.219,0.488,0.488v21.71h6.941c0.27,0,0.488,0.219,0.488,0.488C292.076,270.288,291.857,270.507,291.587,270.507z"
				/>
			<path d="M262.133,166.958c-0.031,0-0.063-0.004-0.095-0.01c-0.264-0.051-0.437-0.309-0.384-0.572l2.571-13.102
				c0.051-0.265,0.303-0.441,0.573-0.384c0.264,0.051,0.437,0.308,0.384,0.573l-2.571,13.1
				C262.565,166.796,262.361,166.958,262.133,166.958z"/>
			<path d="M309.831,157.154c-0.229,0-0.433-0.162-0.479-0.395l-1.732-8.896c-0.052-0.265,0.122-0.521,0.386-0.573
				c0.262-0.048,0.522,0.121,0.573,0.386l1.733,8.896c0.051,0.265-0.122,0.522-0.386,0.573
				C309.893,157.151,309.862,157.154,309.831,157.154z"/>
			<path style="fill:#E58680;" d="M296.441,116.371h-26.959c-1.027,0-1.861-1.26-1.861-2.814l0,0c0-1.554,0.833-2.815,1.861-2.815
				h26.959c1.028,0,1.861,1.26,1.861,2.815l0,0C298.301,115.111,297.468,116.371,296.441,116.371z"/>
			<g>
				<path style="fill:#F8B89D;" d="M285.25,143.528l-5.993-0.134c-1.744-0.039-3.126-1.485-3.087-3.229l0.3-13.397l12.309,0.276
					l-0.3,13.397C288.439,142.185,286.994,143.567,285.25,143.528z"/>
				<path style="fill:#D05C5D;" d="M276.221,137.846c11.154-1.254,12.558-10.802,12.558-10.802l-12.309-0.276L276.221,137.846z"/>
				<path style="fill:#F8B89D;" d="M295.222,113.626c0.311-13.874-5.108-17.214-11.882-17.366
					c-6.774-0.152-12.338,2.942-12.648,16.816c-0.152,6.774,5.126,16.41,11.9,16.562
					C289.365,129.789,295.07,120.399,295.222,113.626z"/>
			</g>
			<path style="fill:#2B2B2A;" d="M279.664,112c0-0.695-0.563-1.258-1.258-1.258c-0.695,0-1.258,0.563-1.258,1.258
				c0,0.695,0.563,1.258,1.258,1.258C279.101,113.257,279.664,112.694,279.664,112z"/>
			<path style="fill:#2B2B2A;" d="M288.773,112c0-0.695-0.563-1.258-1.258-1.258s-1.258,0.563-1.258,1.258
				c0,0.695,0.563,1.258,1.258,1.258S288.773,112.694,288.773,112z"/>
			<path style="fill:#D05C5D;" d="M283.003,116.938c-1.089,0-1.883-0.555-2.236-0.992c-0.174-0.214-0.141-0.529,0.074-0.703
				c0.214-0.173,0.527-0.14,0.701,0.071c0.11,0.132,1.113,1.231,2.942,0.177c0.239-0.137,0.546-0.057,0.683,0.183
				c0.139,0.239,0.057,0.545-0.183,0.683C284.254,116.779,283.586,116.938,283.003,116.938z"/>
			<path style="fill:#FFFFFF;" d="M278.391,119.257h9.109C287.499,119.257,282.57,125.873,278.391,119.257z"/>
			<path style="fill:#D05C5D;" d="M289.627,110.073l-3.49-0.477c-0.183-0.025-0.311-0.193-0.286-0.376l0,0
				c0.025-0.183,0.193-0.311,0.376-0.286l3.49,0.477c0.183,0.025,0.311,0.193,0.286,0.376l0,0
				C289.978,109.97,289.81,110.098,289.627,110.073z"/>
			<path style="fill:#D05C5D;" d="M275.55,110.073l3.49-0.477c0.183-0.025,0.311-0.193,0.286-0.376l0,0
				c-0.025-0.183-0.193-0.311-0.376-0.286l-3.49,0.477c-0.183,0.025-0.311,0.193-0.286,0.376l0,0
				C275.199,109.97,275.367,110.098,275.55,110.073z"/>
			<path style="fill:#33332A;" d="M268.336,103.239c-1.223,2.375-0.488,5.565-0.093,8.084c0.189-0.498,0.225-1.418,0.542-1.885
				c0.165,2.714,1.158,6.425,3.309,8.31c-0.36-1.09-0.691-2.548-0.309-3.633c0.503,0.577,0.845,1.391,1.416,1.853
				c-1.379-3.24-0.743-7.405,0.854-10.431c0.036,0.544,0.118,1.219,0.355,1.707c0.409-1.846,1.267-3.434,2.168-5.073
				c2.582,2.473,6.568,3.74,10.078,3.184c-1.326-0.86-2.84-2.474-3.424-4.002c2.72,1.317,5.704,3.594,8.867,3.796
				c-1.285-0.978-2.289-1.971-3.041-3.418c1.429,0.965,3.174,1.864,4.082,3.354c0.475,0.78,0.836,1.802,1.056,2.687
				c0.137,0.549,0.112,1.366,0.414,1.767c0.115-0.405,0.284-0.795,0.512-1.139c-0.027,2.38,0.01,4.678-0.009,7.063
				c0.347-0.951,0.884-1.902,0.982-2.93c0.326,0.589,0.849,1.498,0.951,2.243c0.394-1.191,0.313-3.243,0.348-4.614
				c0.734,0.062,1.35,1.501,1.622,2.114c0.34-1.322-0.284-3.778-0.914-4.965c0.422-0.053,0.832,0.09,1.155,0.321
				c0.428-3.161-1.952-6.84-3.864-9.187c0.654-0.247,1.519,0.105,2.099,0.469c-1.132-1.244-2.371-2.414-3.708-3.046
				c0.904-0.266,1.885-0.177,2.725,0.248c-1.952-1.623-3.868-4.22-6.841-3.471c1.06,0.532,1.928,0.843,2.669,1.799
				c-0.848-0.096-1.6-0.096-2.451,0.013c0.412,0.292,1.012,0.5,1.371,0.945c-1.638-1.787-4.508-3.144-6.824-3.709
				c-2.151-0.524-3.851-0.784-5.993-0.144c-1.042,0.312-2.921,0.822-3.36,1.832c1.809-0.399,3.397-0.581,5.115,0.105
				c-3.64-0.156-5.937,1.041-8.881,2.964c-2.471,1.614-5.527,3.902-6.062,7.028c1.093-0.804,2.048-2.24,3.431-2.608
				C268.733,101.707,268.524,102.607,268.336,103.239z"/>
			<path style="fill:#33332A;" d="M290.128,119.327c-0.516-1.985-2.628-2.013-4.304-2.121c-1.403-0.091-2.811-0.111-4.216-0.058
				c-0.72,0.027-1.436,0.102-2.154,0.137c-0.578,0.028-1.193-0.031-1.741,0.2c-0.689,0.292-1.329,0.789-1.763,1.401
				c-0.67,0.945-0.678,2.01-0.843,3.121c-0.374,2.521,0.482,4.897,1.205,7.4c0.453,1.566,0.841,2.978,2.465,3.62
				c2.019,0.798,4.245,1.458,6.443,0.95c3.162-0.73,4.078-4.287,4.643-7.03C290.377,124.455,290.775,121.817,290.128,119.327z
				 M287.724,121.581c-0.934,1.58-2.599,2.52-4.378,2.66c-1.771,0.139-3.805-0.826-4.96-2.144c-0.522-0.596-1.376-2.139-0.769-2.881
				c0.636-0.778,1.758-0.832,2.684-0.838c1.299-0.008,2.596-0.012,3.895-0.052c1.138-0.035,3.916-0.559,4.171,1.138
				C288.473,120.178,288.076,120.985,287.724,121.581z"/>
		</g>
	</g>
</g>
</svg>
