<?xml version="1.0" encoding="utf-8"?>
<!-- Generator: Adobe Illustrator 25.0.0, SVG Export Plug-In . SVG Version: 6.00 Build 0)  -->
<svg version="1.1" xmlns="http://www.w3.org/2000/svg" xmlns:xlink="http://www.w3.org/1999/xlink" x="0px" y="0px"
	 viewBox="0 0 500 500" style="enable-background:new 0 0 500 500;" xml:space="preserve">
<style type="text/css">
	.st0{fill:#A1559C;}
	.st1{fill:#816EAD;}
	.st2{fill:#000060;}
	.st3{fill:#EDAEA9;}
	.st4{fill:#6FCBBB;}
	.st5{fill:#E15672;}
	.st6{fill:#FFFFF8;}
	.st7{opacity:0.5;fill:#EDAEA9;}
	.st8{fill:#A1C762;}
	.st9{fill:#E79554;}
	.st10{opacity:0.5;}
	.st11{fill:#56B9DF;}
	.st12{fill:#BD85AD;}
	.st13{fill:#FFF9B2;}
	.st14{fill:#DF9CC1;}
</style>
<g id="BACKGROUND">
	<rect x="-140.39" y="-19.99" class="st0" width="750" height="538.2"/>
</g>
<g id="OBJECTS">
	<g>
		
			<ellipse transform="matrix(0.7071 -0.7071 0.7071 0.7071 -303.9645 -556.801)" class="st1" cx="-824.1" cy="88.52" rx="106.12" ry="106.12"/>
		<g>
			<g>
				<path class="st2" d="M-805.74,128.36l-30.86,7.88c0,0,1.12,8.32-0.67,15.53c11.64-2.16,22.88-6.48,32.97-12.67
					C-805.38,133.74-805.74,128.36-805.74,128.36z"/>
				<path class="st3" d="M-819.7,178.82c16.69-1.23,25.16-16.84,28.08-23.66c-4.21-3-7.37-5.25-8.48-6.08
					c-1.99-1.5-3.33-5.73-4.19-9.99c-10.09,6.2-21.33,10.51-32.97,12.67c0,0,0,0.01,0,0.01c-0.59,2.37-4.16,5.66-8.91,9.29
					C-843.73,166.94-836.36,180.04-819.7,178.82z"/>
				<path class="st4" d="M-752.57,184.45c-3.23-3.74-26.1-20.06-39.05-29.29c-2.92,6.82-11.39,22.43-28.08,23.66
					c-16.66,1.23-24.03-11.87-26.48-17.74c-9.73,7.43-24.47,16.27-29.16,21.57c-6.98,7.88-9.69,20.95-9.69,20.95h70.51h68.93
					C-745.59,203.59-748.29,189.4-752.57,184.45z"/>
			</g>
			<path class="st5" d="M-881.39,64.05c0.78,4.34,2.14,8.91,5.56,11.7c0.71,0.58,1.59,1.09,2.49,0.91c0.75-0.15,1.32-0.75,1.77-1.36
				c1.86-2.5,2.68-5.63,3.06-8.73c0.65-5.38,0.07-10.9-1.68-16.02c-0.52-1.51-1.16-3.03-2.24-4.21c-2.95-3.23-8.08-1.25-9.68,2.42
				C-883.89,52.84-882.14,59.87-881.39,64.05z"/>
			<g>
				<path class="st3" d="M-896.2,81.27c-0.32,4.84,1.3,9.68,3.98,13.58c1.82,2.65,4.17,4.95,6.99,6.26
					c2.82,1.32,6.14,1.59,9.01,0.35c2.62-1.14,4.7-3.44,6.12-6.06c3.28-6.04,3.2-13.78,0.47-20.08c-1.9-4.38-5.21-8.28-9.54-9.64
					C-887.92,62.93-895.64,72.71-896.2,81.27z"/>
				<path class="st3" d="M-873.43,95.77c-2.13-0.52-4.09-1.63-5.59-3.18c-0.45-0.47-0.89-1.09-0.69-1.73
					c0.11-0.36,0.41-0.63,0.69-0.88c1.7-1.48,3.65-2.69,5.73-3.56c-0.56-2.89-1.12-5.81-2.41-8.43c-1.29-2.62-3.41-4.95-6.24-5.88
					c-2.83-0.93-6.4-0.15-8.24,2.28c0,0-6.02,6.89,0.98,16.89C-881.81,101.82-873.43,95.77-873.43,95.77z"/>
				<g>
					<path class="st2" d="M-890.18,74.39c1.12-1.99,3.5-3.18,5.87-3.3c2.43-0.18,4.88,0.89,6.66,2.51c0.9,0.81,1.67,1.75,2.31,2.76
						c0.63,1.02,1.12,2.11,1.53,3.2c0.82,2.2,1.19,4.46,1.6,6.64l0.17,0.9l-0.82,0.31c-1.21,0.46-2.38,1.04-3.48,1.73
						c-0.56,0.33-1.11,0.7-1.63,1.09c-0.25,0.19-0.55,0.41-0.74,0.57c-0.2,0.18-0.25,0.27-0.28,0.36c-0.09,0.22,0.22,0.78,0.67,1.24
						c0.44,0.48,0.9,0.94,1.41,1.35c1.03,0.82,2.2,1.51,3.48,2.01c-1.37-0.15-2.74-0.57-3.98-1.26c-0.62-0.35-1.22-0.74-1.77-1.21
						c-0.27-0.23-0.56-0.48-0.82-0.82c-0.25-0.33-0.51-0.78-0.51-1.37c-0.01-0.6,0.35-1.13,0.63-1.42c0.3-0.32,0.53-0.52,0.8-0.77
						c0.53-0.48,1.08-0.93,1.66-1.35c1.16-0.83,2.41-1.54,3.72-2.14l-0.65,1.21c-0.43-2.18-0.91-4.3-1.58-6.3
						c-0.69-1.99-1.68-3.82-3.09-5.29c-1.41-1.46-3.23-2.49-5.29-2.65C-886.35,72.22-888.58,72.79-890.18,74.39z"/>
				</g>
			</g>
			<path class="st3" d="M-873.48,72.68c0,0-20.7-56.65,50.11-61.28c70.81-4.63,65.65,73.38,43.3,104.58
				c-14.43,20.15-53.65,33.23-78.98,19.61c-25.33-13.62-23.69-29.14-23.15-40.58S-873.48,72.68-873.48,72.68z"/>
			<g>
				<path class="st2" d="M-875.92,60.97c0.9,3.78,1.96,7.48,3.31,11.07l0.12,0.33l-0.23,0.33c-1.94,2.8-3.59,5.79-4.93,8.9
					c-1.34,3.12-2.39,6.36-3.08,9.67c-0.71,3.31-1.09,6.7-1.08,10.11c-0.01,3.41,0.4,6.83,1.2,10.21
					c-1.43-3.17-2.24-6.64-2.55-10.15c-0.3-3.51-0.09-7.07,0.55-10.55c0.66-3.47,1.72-6.87,3.2-10.08c1.47-3.21,3.33-6.25,5.55-8.98
					l-0.11,0.66C-875.05,68.72-875.75,64.85-875.92,60.97z"/>
			</g>
			<path class="st5" d="M-772.16,85.6c-6.86-2.62-11.59-9.26-13.55-16.34c-1.96-7.07-1.52-14.58-0.61-21.87
				c-3.26-4.58-6.49-8.55-10.95-11.98c-4.46-3.42-10.29-5.5-15.76-4.19c-9.47,2.27-14.55,13.45-23.87,16.29
				c-6.63,2.02-14.46-1.23-17.71-7.35c0.16,1.88-1.05,5.01-2.22,6.49c-1.07,1.34-2.32,2.68-3.99,3.08c-1.47,0.34-3.03-0.12-4.3-0.93
				c-1.27-0.81-2.3-1.94-3.31-3.05c-1.94,3.72-5.61,8.45-9.79,8.87c-3.99,0.4-7.47-2.89-9.29-6.46c-3.48-6.83-2.95-15.28,0.4-22.18
				c3.35-6.89,9.25-12.32,15.89-16.14c10.96-6.3,23.86-8.49,36.49-8.66c12.64-0.17,25.21,1.57,37.81,2.6
				c3.31,0.27,6.65,0.5,9.83,1.45c3.18,0.95,6.23,2.71,8.09,5.46c2.14,3.17,2.43,7.19,2.66,11.01c5.29-0.25,11.3,1.08,15.12,4.74
				c2.88,2.76,4.26,6.75,4.99,10.67c2.98,16.07-3.41,32.45-11.8,46.47"/>
			<g>
				<path class="st3" d="M-755.25,82.68c0.32,4.84-1.3,9.68-3.98,13.58c-1.82,2.65-4.17,4.95-6.99,6.26
					c-2.82,1.32-6.14,1.59-9.01,0.35c-2.62-1.14-4.7-3.44-6.12-6.05c-3.28-6.04-3.2-13.78-0.47-20.08c1.9-4.38,5.21-8.28,9.54-9.64
					C-763.53,64.34-755.82,74.12-755.25,82.68z"/>
				<path class="st3" d="M-778.02,97.17c2.13-0.52,4.09-1.63,5.59-3.18c0.45-0.47,0.89-1.09,0.69-1.73
					c-0.11-0.36-0.41-0.63-0.69-0.88c-1.7-1.48-3.65-2.69-5.73-3.56c0.56-2.89,1.12-5.81,2.41-8.43c1.29-2.62,3.41-4.95,6.24-5.88
					c2.83-0.93,6.4-0.15,8.24,2.28c0,0,6.02,6.89-0.98,16.89C-769.65,103.23-778.02,97.17-778.02,97.17z"/>
				<g>
					<path class="st2" d="M-761.27,75.79c-1.6-1.59-3.82-2.17-5.86-2c-2.06,0.16-3.88,1.19-5.29,2.65c-1.41,1.47-2.4,3.3-3.09,5.29
						c-0.67,2-1.15,4.12-1.58,6.3l-0.65-1.21c1.31,0.59,2.56,1.31,3.72,2.14c0.58,0.42,1.13,0.88,1.66,1.35
						c0.27,0.25,0.5,0.45,0.8,0.77c0.28,0.29,0.64,0.82,0.63,1.42c0,0.59-0.26,1.04-0.51,1.37c-0.26,0.34-0.55,0.59-0.82,0.82
						c-0.55,0.47-1.15,0.86-1.77,1.21c-1.24,0.69-2.61,1.11-3.98,1.26c1.28-0.5,2.45-1.19,3.48-2.01c0.51-0.41,0.98-0.88,1.41-1.35
						c0.45-0.46,0.76-1.02,0.67-1.24c-0.03-0.09-0.08-0.18-0.28-0.36c-0.19-0.16-0.48-0.39-0.74-0.57
						c-0.53-0.39-1.07-0.75-1.63-1.09c-1.1-0.69-2.27-1.27-3.48-1.73l-0.82-0.31l0.17-0.9c0.41-2.18,0.77-4.45,1.6-6.64
						c0.41-1.1,0.9-2.18,1.53-3.2c0.65-1.01,1.41-1.95,2.31-2.76c1.77-1.62,4.23-2.69,6.66-2.51
						C-764.77,72.61-762.39,73.8-761.27,75.79z"/>
				</g>
			</g>
			<g>
				<path class="st2" d="M-768.59,32.44c-3.47,1.98-7.63,2.53-11.57,2.02c-3.97-0.51-7.75-2.13-11.1-4.29
					c-1.68-1.08-3.28-2.29-4.8-3.58c-1.53-1.29-2.96-2.68-4.42-4c-1.47-1.32-2.98-2.59-4.64-3.6c-1.66-1.01-3.49-1.75-5.38-2.03
					c-1.89-0.3-3.84-0.03-5.55,0.82c-1.71,0.84-3.19,2.15-4.5,3.59c-1.33,1.44-2.52,3.02-3.81,4.56c-1.31,1.52-2.74,2.98-4.45,4.12
					c-1.69,1.14-3.73,1.96-5.86,1.86c-2.14-0.07-4.13-1.1-5.64-2.5c-1.53-1.42-2.61-3.23-3.37-5.11c-0.77-1.88-1.27-3.84-1.75-5.76
					l0.9,0.07c-1.12,2.5-2.51,4.89-4.2,7.06c-1.71,2.14-3.76,4.12-6.33,5.31c-1.29,0.56-2.67,0.95-4.14,0.9
					c-0.73-0.03-1.49-0.23-2.13-0.66c-0.64-0.43-1.11-1.04-1.45-1.66c-1.36-2.55-1.42-5.41-1.5-8.1l0.68,0.17
					c-1.65,2.8-3.44,5.54-5.56,8.02c-1.06,1.24-2.23,2.41-3.55,3.39c-1.32,0.98-2.84,1.76-4.51,2c-1.67,0.24-3.39-0.24-4.75-1.17
					c-1.37-0.92-2.45-2.26-3.06-3.79c-1.2-3.1-0.54-6.62,1.09-9.39c-1.57,2.8-2.13,6.32-0.88,9.3c0.62,1.47,1.7,2.74,3.03,3.59
					c1.33,0.86,2.95,1.27,4.49,1c1.55-0.26,2.99-1.02,4.25-1.98c1.26-0.97,2.39-2.12,3.41-3.35c2.06-2.47,3.79-5.2,5.39-8l0.63-1.11
					l0.05,1.28c0.11,2.68,0.25,5.44,1.5,7.71c0.31,0.55,0.7,1.04,1.19,1.37c0.49,0.32,1.08,0.48,1.7,0.51
					c1.25,0.04,2.55-0.31,3.73-0.84c2.37-1.11,4.33-3,5.97-5.08c1.63-2.11,2.97-4.44,4.05-6.88l0.55-1.25l0.34,1.33
					c0.49,1.92,0.99,3.83,1.73,5.62c0.74,1.79,1.75,3.46,3.15,4.75c1.38,1.29,3.14,2.2,5,2.26c1.86,0.09,3.7-0.62,5.3-1.68
					c1.6-1.07,3-2.46,4.27-3.93c1.27-1.5,2.48-3.09,3.85-4.57c1.36-1.47,2.91-2.86,4.78-3.76c1.86-0.92,4.03-1.2,6.05-0.87
					c2.03,0.33,3.95,1.14,5.66,2.22c1.72,1.08,3.24,2.4,4.71,3.75c1.46,1.36,2.86,2.76,4.36,4.05c1.49,1.3,3.05,2.52,4.69,3.6
					c3.28,2.17,6.94,3.87,10.85,4.46C-776.24,34.78-772.1,34.34-768.59,32.44z"/>
			</g>
			<g>
				<path class="st2" d="M-759.09,33.71c-1.79,0.8-3.51,1.71-5.12,2.8c-1.63,1.06-3.16,2.25-4.57,3.58
					c-2.82,2.64-5.24,5.71-6.96,9.16c-1.8,3.41-2.9,7.16-3.41,10.99c-0.26,1.92-0.34,3.86-0.26,5.8c0.05,1.94,0.31,3.88,0.7,5.8
					c-0.6-1.86-0.97-3.81-1.19-5.76c-0.19-1.96-0.19-3.94-0.02-5.92c0.36-3.94,1.5-7.81,3.28-11.36c1.85-3.51,4.34-6.69,7.34-9.27
					c1.5-1.28,3.12-2.44,4.82-3.42C-762.75,35.14-760.96,34.31-759.09,33.71z"/>
			</g>
			<g>
				<path class="st2" d="M-756.81,41.56c-1.81,1.67-3.43,3.51-4.8,5.52c-1.36,2.01-2.51,4.15-3.38,6.4c-0.89,2.25-1.5,4.6-1.87,6.99
					l-0.22,1.81l-0.1,1.82l-0.01,1.83c0.04,0.61,0.07,1.22,0.1,1.84c-0.13-0.6-0.25-1.21-0.36-1.82l-0.21-1.85l-0.04-1.86l0.09-1.87
					c0.2-2.49,0.8-4.94,1.71-7.27c0.92-2.32,2.15-4.53,3.7-6.49l1.21-1.43l1.3-1.34l1.41-1.21
					C-757.82,42.27-757.32,41.91-756.81,41.56z"/>
			</g>
			<g>
				<g>
					<path class="st2" d="M-853.42,53.56c-0.33-0.03-0.66-0.05-1-0.05c-6.68,0-12.1,5.81-12.1,12.98c0,7.17,5.42,12.98,12.1,12.98
						c0.29,0,0.58-0.03,0.86-0.05C-850.85,71.09-850.8,61.91-853.42,53.56z"/>
					<path class="st6" d="M-842.32,66.48c0-6.81-4.88-12.38-11.1-12.93c2.62,8.36,2.57,17.53-0.14,25.86
						C-847.28,78.94-842.32,73.34-842.32,66.48z"/>
				</g>
				<path class="st6" d="M-848.44,66.7c0,1.64-1.33,2.97-2.97,2.97c-1.64,0-2.97-1.33-2.97-2.97c0-1.64,1.33-2.97,2.97-2.97
					C-849.77,63.73-848.44,65.06-848.44,66.7z"/>
				<g>
					<path class="st2" d="M-842.32,66.48c-0.2-3.28-1.48-6.44-3.69-8.75c-2.19-2.31-5.26-3.72-8.41-3.73
						c-3.16-0.03-6.23,1.41-8.41,3.73c-2.2,2.31-3.48,5.47-3.69,8.75c-0.11-1.64,0.13-3.31,0.64-4.91c0.54-1.58,1.38-3.07,2.47-4.36
						c2.17-2.59,5.54-4.23,8.98-4.21c1.71,0.04,3.42,0.4,4.97,1.14c1.54,0.74,2.93,1.78,4.02,3.08c1.1,1.28,1.94,2.77,2.48,4.36
						C-842.45,63.17-842.21,64.84-842.32,66.48z"/>
				</g>
			</g>
			<g>
				<g>
					<path class="st2" d="M-809.14,53.94c-0.33-0.03-0.66-0.05-1-0.05c-6.68,0-12.1,5.81-12.1,12.98c0,7.17,5.42,12.98,12.1,12.98
						c0.29,0,0.58-0.03,0.86-0.05C-806.58,71.47-806.52,62.3-809.14,53.94z"/>
					<path class="st6" d="M-798.05,66.87c0-6.81-4.88-12.38-11.1-12.93c2.62,8.36,2.57,17.53-0.14,25.86
						C-803.01,79.32-798.05,73.72-798.05,66.87z"/>
				</g>
				<path class="st6" d="M-804.17,67.08c0,1.64-1.33,2.97-2.97,2.97c-1.64,0-2.97-1.33-2.97-2.97c0-1.64,1.33-2.97,2.97-2.97
					C-805.5,64.11-804.17,65.44-804.17,67.08z"/>
				<g>
					<path class="st2" d="M-798.05,66.87c-0.2-3.28-1.48-6.44-3.69-8.75c-2.19-2.31-5.26-3.72-8.41-3.73
						c-3.16-0.03-6.23,1.41-8.41,3.73c-2.2,2.31-3.48,5.47-3.69,8.75c-0.11-1.64,0.13-3.31,0.64-4.91c0.54-1.58,1.38-3.07,2.47-4.36
						c2.17-2.59,5.54-4.23,8.98-4.21c1.71,0.04,3.42,0.4,4.97,1.14c1.54,0.74,2.93,1.78,4.02,3.08c1.1,1.28,1.94,2.77,2.48,4.36
						C-798.18,63.55-797.94,65.22-798.05,66.87z"/>
				</g>
			</g>
			<g>
				<path class="st2" d="M-833.2,56.22c0.12,3.13-0.13,6.28-0.68,9.39c-0.55,3.11-1.39,6.17-2.5,9.13
					c-1.13,2.96-2.48,5.84-4.12,8.55c-1.62,2.72-3.5,5.29-5.59,7.66l-0.27-1.25c2.01,1.08,3.96,2.23,5.94,3.32
					c1.97,1.1,3.98,2.1,6.09,2.98c-2.24-0.42-4.42-1.18-6.53-2.04c-2.11-0.87-4.16-1.86-6.21-2.79l-0.92-0.42l0.65-0.83
					c1.89-2.42,3.6-4.98,5.14-7.62c1.52-2.66,2.91-5.4,4.07-8.24c1.18-2.83,2.17-5.75,2.99-8.72
					C-834.32,62.35-833.69,59.31-833.2,56.22z"/>
			</g>
			<g>
				<path class="st2" d="M-871.68,56.99c1.23-2.62,2.97-5.01,4.99-7.17c2.05-2.13,4.43-3.97,7.05-5.43c0.66-0.35,1.33-0.7,1.99-1.08
					l2.05-0.98c0.71-0.27,1.43-0.52,2.16-0.74c0.74-0.17,1.49-0.29,2.25-0.41c0.76-0.05,1.52-0.09,2.28-0.1
					c0.76,0.04,1.52,0.09,2.27,0.19c0.75,0.13,1.5,0.31,2.23,0.49c0.73,0.26,1.44,0.52,2.12,0.88l-0.05,0.4
					c-0.74,0.25-1.45,0.4-2.14,0.56c-0.7,0.19-1.38,0.36-2.05,0.49c-0.67,0.21-1.33,0.36-1.99,0.51c-0.65,0.2-1.3,0.36-1.95,0.52
					c-0.64,0.19-1.28,0.37-1.93,0.51c-0.64,0.18-1.29,0.33-1.95,0.46l-1.96,0.5c-0.64,0.21-1.28,0.44-1.92,0.67
					c-2.51,1.04-4.91,2.39-7.13,4.05c-2.24,1.63-4.23,3.63-5.98,5.88L-871.68,56.99z"/>
			</g>
			<g>
				<path class="st2" d="M-792.75,55.3c-1.75-2.25-3.74-4.25-5.98-5.88c-2.22-1.66-4.62-3.01-7.13-4.05
					c-0.64-0.23-1.28-0.46-1.92-0.67l-1.96-0.5c-0.66-0.13-1.31-0.28-1.95-0.46c-0.65-0.14-1.29-0.32-1.93-0.51
					c-0.65-0.16-1.3-0.33-1.95-0.52c-0.66-0.15-1.32-0.3-1.99-0.51c-0.67-0.13-1.35-0.31-2.05-0.49c-0.7-0.16-1.4-0.31-2.14-0.56
					l-0.05-0.4c0.68-0.35,1.4-0.61,2.12-0.88c0.73-0.19,1.47-0.36,2.23-0.49c0.75-0.1,1.51-0.15,2.27-0.19
					c0.76,0.01,1.52,0.05,2.28,0.1c0.75,0.11,1.5,0.24,2.25,0.41c0.73,0.22,1.45,0.47,2.16,0.74l2.05,0.98
					c0.66,0.37,1.32,0.73,1.99,1.08c2.62,1.46,5.01,3.3,7.05,5.43c2.02,2.15,3.76,4.55,4.99,7.17L-792.75,55.3z"/>
			</g>
			<g>
				<path class="st5" d="M-844.88,111.89c1.91,1.7,4.11,2.85,6.49,2.65c3.92-0.33,7.78-3.64,10.67-6.88
					c-3.12,0.16-6.24,0.44-9.28,1.13C-839.76,109.42-842.47,110.42-844.88,111.89z"/>
				<path class="st2" d="M-838.82,104.96c-7.84-0.44-13.28-3.7-13.28-3.7s2.85,6.75,7.22,10.63c2.41-1.47,5.12-2.47,7.87-3.1
					c3.05-0.69,6.16-0.97,9.28-1.13c2.89-3.24,4.79-6.4,4.79-6.4S-830.98,105.4-838.82,104.96z"/>
			</g>
			<ellipse class="st7" cx="-810.12" cy="92.4" rx="11.89" ry="7.55"/>
			<ellipse class="st7" cx="-863.82" cy="89.89" rx="11.89" ry="7.55"/>
		</g>
	</g>
	<g>
		
			<ellipse transform="matrix(0.7071 -0.7071 0.7071 0.7071 -237.2949 -395.8462)" class="st8" cx="-596.48" cy="88.52" rx="106.12" ry="106.12"/>
		<g>
			<g>
				<path class="st2" d="M-579.96,128.36l-30.86,7.88c0,0,1.12,8.32-0.67,15.53c11.64-2.16,22.88-6.48,32.97-12.67
					C-579.61,133.74-579.96,128.36-579.96,128.36z"/>
				<path class="st5" d="M-593.93,178.82c16.69-1.23,25.16-16.84,28.08-23.66c-4.21-3-7.37-5.25-8.48-6.08
					c-1.99-1.5-3.33-5.73-4.19-9.99c-10.09,6.2-21.33,10.51-32.97,12.67c0,0,0,0.01,0,0.01c-0.59,2.37-4.16,5.66-8.91,9.29
					C-617.96,166.94-610.59,180.04-593.93,178.82z"/>
				<path class="st9" d="M-526.8,184.45c-3.23-3.74-26.1-20.06-39.05-29.29c-2.92,6.82-11.39,22.43-28.08,23.66
					c-16.66,1.23-24.03-11.87-26.48-17.74c-9.73,7.43-24.47,16.27-29.16,21.57c-6.98,7.88-9.69,20.95-9.69,20.95h70.51h68.93
					C-519.82,203.59-522.52,189.4-526.8,184.45z"/>
			</g>
			<g>
				<path class="st5" d="M-670.43,81.27c-0.32,4.84,1.3,9.68,3.98,13.58c1.82,2.65,4.17,4.95,6.99,6.26
					c2.82,1.32,6.14,1.59,9.01,0.35c2.62-1.14,4.7-3.44,6.12-6.06c3.28-6.04,3.2-13.78,0.47-20.08c-1.9-4.38-5.21-8.28-9.54-9.64
					C-662.15,62.93-669.86,72.71-670.43,81.27z"/>
				<path class="st5" d="M-647.66,95.77c-2.13-0.52-4.09-1.63-5.59-3.18c-0.45-0.47-0.89-1.09-0.69-1.73
					c0.11-0.36,0.41-0.63,0.69-0.88c1.7-1.48,3.65-2.69,5.73-3.56c-0.56-2.89-1.12-5.81-2.41-8.43c-1.29-2.62-3.41-4.95-6.24-5.88
					c-2.83-0.93-6.4-0.15-8.24,2.28c0,0-6.02,6.89,0.98,16.89C-656.03,101.82-647.66,95.77-647.66,95.77z"/>
				<g>
					<path class="st2" d="M-664.41,74.39c1.12-1.99,3.5-3.18,5.87-3.3c2.43-0.18,4.88,0.89,6.66,2.51c0.9,0.81,1.67,1.75,2.31,2.76
						c0.63,1.02,1.12,2.11,1.53,3.2c0.82,2.2,1.19,4.46,1.6,6.64l0.17,0.9l-0.82,0.31c-1.21,0.46-2.38,1.04-3.48,1.73
						c-0.56,0.33-1.1,0.7-1.63,1.09c-0.25,0.19-0.55,0.41-0.74,0.57c-0.2,0.18-0.25,0.27-0.28,0.36c-0.09,0.22,0.22,0.78,0.67,1.24
						c0.44,0.48,0.9,0.94,1.41,1.35c1.03,0.82,2.2,1.51,3.48,2.01c-1.37-0.15-2.74-0.57-3.98-1.26c-0.62-0.35-1.22-0.74-1.77-1.21
						c-0.27-0.23-0.56-0.48-0.82-0.82c-0.25-0.33-0.51-0.78-0.51-1.37c-0.01-0.6,0.35-1.13,0.63-1.42c0.3-0.32,0.53-0.52,0.8-0.77
						c0.53-0.48,1.08-0.93,1.66-1.35c1.16-0.83,2.41-1.54,3.72-2.14l-0.65,1.21c-0.43-2.18-0.91-4.3-1.58-6.3
						c-0.69-1.99-1.68-3.82-3.09-5.29c-1.41-1.46-3.23-2.49-5.29-2.65C-660.58,72.22-662.8,72.79-664.41,74.39z"/>
				</g>
			</g>
			<path class="st5" d="M-647.71,72.68c0,0-20.7-56.65,50.11-61.28c70.81-4.63,65.65,73.38,43.3,104.58
				c-14.43,20.15-53.65,33.23-78.98,19.61c-25.33-13.62-23.69-29.14-23.15-40.58S-647.71,72.68-647.71,72.68z"/>
			<g>
				<path class="st2" d="M-650.15,60.97c0.9,3.78,1.96,7.48,3.31,11.07l0.12,0.33l-0.23,0.33c-1.94,2.8-3.59,5.79-4.93,8.9
					c-1.34,3.12-2.39,6.36-3.08,9.67c-0.71,3.31-1.09,6.7-1.08,10.11c-0.01,3.41,0.4,6.83,1.2,10.21
					c-1.43-3.17-2.24-6.64-2.55-10.15c-0.3-3.51-0.09-7.07,0.55-10.55c0.66-3.47,1.72-6.87,3.2-10.08c1.47-3.21,3.33-6.25,5.55-8.98
					l-0.11,0.66C-649.28,68.72-649.97,64.85-650.15,60.97z"/>
			</g>
			<g>
				<g>
					<path class="st4" d="M-627.65,53.56c-0.33-0.03-0.66-0.05-1-0.05c-6.68,0-12.1,5.81-12.1,12.98c0,7.17,5.42,12.98,12.1,12.98
						c0.29,0,0.58-0.03,0.86-0.05C-625.08,71.09-625.02,61.91-627.65,53.56z"/>
					<path class="st6" d="M-616.55,66.48c0-6.81-4.88-12.38-11.1-12.93c2.62,8.36,2.57,17.53-0.14,25.86
						C-621.51,78.94-616.55,73.34-616.55,66.48z"/>
				</g>
				<path class="st6" d="M-622.67,66.7c0,1.64-1.33,2.97-2.97,2.97c-1.64,0-2.97-1.33-2.97-2.97c0-1.64,1.33-2.97,2.97-2.97
					C-624,63.73-622.67,65.06-622.67,66.7z"/>
				<g>
					<path class="st2" d="M-616.55,66.48c-0.2-3.28-1.48-6.44-3.69-8.75c-2.19-2.31-5.26-3.72-8.41-3.73
						c-3.16-0.03-6.23,1.41-8.41,3.73c-2.2,2.31-3.48,5.47-3.69,8.75c-0.11-1.64,0.13-3.31,0.64-4.91c0.54-1.58,1.38-3.07,2.47-4.36
						c2.17-2.59,5.54-4.23,8.98-4.21c1.71,0.04,3.42,0.4,4.97,1.14c1.54,0.74,2.93,1.78,4.02,3.08c1.1,1.28,1.94,2.77,2.48,4.36
						C-616.68,63.17-616.44,64.84-616.55,66.48z"/>
				</g>
			</g>
			<g>
				<g>
					<path class="st4" d="M-583.37,53.94c-0.33-0.03-0.66-0.05-1-0.05c-6.68,0-12.1,5.81-12.1,12.98c0,7.17,5.42,12.98,12.1,12.98
						c0.29,0,0.58-0.03,0.86-0.05C-580.81,71.47-580.75,62.3-583.37,53.94z"/>
					<path class="st6" d="M-572.28,66.87c0-6.81-4.88-12.38-11.1-12.93c2.62,8.36,2.57,17.53-0.14,25.86
						C-577.23,79.32-572.28,73.72-572.28,66.87z"/>
				</g>
				<path class="st6" d="M-578.39,67.08c0,1.64-1.33,2.97-2.97,2.97c-1.64,0-2.97-1.33-2.97-2.97c0-1.64,1.33-2.97,2.97-2.97
					C-579.73,64.11-578.39,65.44-578.39,67.08z"/>
				<g>
					<path class="st2" d="M-572.28,66.87c-0.2-3.28-1.48-6.44-3.69-8.75c-2.19-2.31-5.26-3.72-8.41-3.73
						c-3.16-0.03-6.23,1.41-8.41,3.73c-2.2,2.31-3.48,5.47-3.69,8.75c-0.11-1.64,0.13-3.31,0.64-4.91c0.54-1.58,1.38-3.07,2.47-4.36
						c2.17-2.59,5.54-4.23,8.98-4.21c1.71,0.04,3.42,0.4,4.97,1.14c1.54,0.74,2.93,1.78,4.02,3.08c1.1,1.28,1.94,2.77,2.48,4.36
						C-572.4,63.55-572.16,65.22-572.28,66.87z"/>
				</g>
			</g>
			<g>
				<path class="st2" d="M-645.91,56.99c1.23-2.62,2.97-5.01,4.99-7.17c2.05-2.13,4.43-3.97,7.05-5.43c0.66-0.35,1.33-0.7,1.99-1.08
					l2.05-0.98c0.71-0.27,1.43-0.52,2.16-0.74c0.74-0.17,1.49-0.29,2.25-0.41c0.76-0.05,1.52-0.09,2.28-0.1
					c0.76,0.04,1.52,0.09,2.27,0.19c0.75,0.13,1.5,0.31,2.23,0.49c0.73,0.26,1.44,0.52,2.12,0.88l-0.05,0.4
					c-0.74,0.25-1.45,0.4-2.14,0.56c-0.7,0.19-1.38,0.36-2.05,0.49c-0.67,0.21-1.33,0.36-1.99,0.51c-0.65,0.2-1.3,0.36-1.95,0.52
					c-0.64,0.19-1.28,0.37-1.93,0.51c-0.64,0.18-1.29,0.33-1.95,0.46l-1.96,0.5c-0.64,0.21-1.28,0.44-1.92,0.67
					c-2.51,1.04-4.91,2.39-7.13,4.05c-2.24,1.63-4.23,3.63-5.98,5.88L-645.91,56.99z"/>
			</g>
			<g>
				<path class="st2" d="M-566.97,55.3c-1.75-2.25-3.74-4.25-5.98-5.88c-2.22-1.66-4.62-3.01-7.13-4.05
					c-0.64-0.23-1.28-0.46-1.92-0.67l-1.96-0.5c-0.66-0.13-1.31-0.28-1.95-0.46c-0.65-0.14-1.29-0.32-1.93-0.51
					c-0.65-0.16-1.3-0.33-1.95-0.52c-0.66-0.15-1.32-0.3-1.99-0.51c-0.67-0.13-1.35-0.31-2.05-0.49c-0.7-0.16-1.4-0.31-2.14-0.56
					l-0.05-0.4c0.68-0.35,1.4-0.61,2.12-0.88c0.73-0.19,1.47-0.36,2.23-0.49c0.75-0.1,1.51-0.15,2.27-0.19
					c0.76,0.01,1.52,0.05,2.28,0.1c0.75,0.11,1.5,0.24,2.25,0.41c0.73,0.22,1.45,0.47,2.16,0.74l2.05,0.98
					c0.66,0.37,1.32,0.73,1.99,1.08c2.62,1.46,5.01,3.3,7.05,5.43c2.02,2.15,3.76,4.55,4.99,7.17L-566.97,55.3z"/>
			</g>
			<ellipse class="st7" cx="-584.35" cy="92.4" rx="11.89" ry="7.55"/>
			<ellipse class="st7" cx="-638.04" cy="89.89" rx="11.89" ry="7.55"/>
			<g>
				<path class="st2" d="M-624.48,98.58c1.76,2.29,3.65,4.43,5.92,5.92c2.26,1.46,4.91,2.32,7.47,1.97c2.58-0.31,5.02-1.66,7.13-3.4
					c2.12-1.77,3.96-3.97,5.95-6.07c-1.31,2.57-2.8,5.08-4.89,7.22c-2.07,2.13-4.8,3.82-7.95,4.24c-1.57,0.18-3.18,0-4.64-0.49
					c-1.46-0.51-2.83-1.25-3.99-2.22C-621.83,103.83-623.44,101.27-624.48,98.58z"/>
			</g>
			<g>
				<path class="st2" d="M-608.05,56.74c0.05,4.01-0.12,8.13-1.58,12.08c-0.71,1.97-1.87,3.82-3.32,5.37
					c-1.45,1.52-3.04,2.74-4.19,4.19c-2.36,2.73-2.62,7.04-0.72,10.18c1.9,3.13,6.02,4.94,9.98,4.14
					c-3.73,1.64-8.72,0.34-11.29-3.27c-1.3-1.78-1.87-4.01-1.82-6.2c0.06-2.19,0.9-4.42,2.29-6.11c1.39-1.67,3.03-2.9,4.39-4.25
					c1.37-1.32,2.41-2.9,3.24-4.65C-609.45,64.7-608.81,60.69-608.05,56.74z"/>
			</g>
			<path class="st2" d="M-654.88,65.45c-2.7-26.5-3.37-51.64,5.63-76.71c39.16-4.66,79.7-3.03,118.33,4.93
				c0.71,23.34-3.17,46.56-7.05,69.59c-1.44,8.59-3.79,17.11-7.12,25.17c-6.37-1.5-11.31-6.9-13.72-12.99
				c-2.4-6.09-2.61-12.82-2.23-19.36c0.38-6.54,1.51-13.37,1.27-19.92c-27.86-6.22-55.84-7.53-84.16-3.93
				c-2.24,5.85-4.81,12.36-5.7,18.57c-0.89,6.2,1.55,18.54,1.55,18.54S-653.01,65.95-654.88,65.45z"/>
			<g>
				<path class="st5" d="M-529.48,82.68c0.32,4.84-1.3,9.68-3.98,13.58c-1.82,2.65-4.17,4.95-6.99,6.26
					c-2.82,1.32-6.14,1.59-9.01,0.35c-2.62-1.14-4.7-3.44-6.12-6.05c-3.28-6.04-3.2-13.78-0.47-20.08c1.9-4.38,5.21-8.28,9.54-9.64
					C-537.76,64.34-530.05,74.12-529.48,82.68z"/>
				<path class="st5" d="M-552.25,97.17c2.13-0.52,4.09-1.63,5.59-3.18c0.45-0.47,0.89-1.09,0.69-1.73
					c-0.11-0.36-0.41-0.63-0.69-0.88c-1.7-1.48-3.65-2.69-5.73-3.56c0.56-2.89,1.12-5.81,2.41-8.43c1.29-2.62,3.41-4.95,6.24-5.88
					c2.83-0.93,6.4-0.15,8.24,2.28c0,0,6.02,6.89-0.98,16.89C-543.88,103.23-552.25,97.17-552.25,97.17z"/>
				<g>
					<path class="st2" d="M-535.5,75.79c-1.6-1.59-3.82-2.17-5.86-2c-2.06,0.16-3.88,1.19-5.29,2.65c-1.41,1.47-2.4,3.3-3.09,5.29
						c-0.67,2-1.15,4.12-1.58,6.3l-0.65-1.21c1.31,0.59,2.56,1.31,3.72,2.14c0.58,0.42,1.13,0.88,1.66,1.35
						c0.27,0.25,0.5,0.45,0.8,0.77c0.28,0.29,0.64,0.82,0.63,1.42c0,0.59-0.26,1.04-0.51,1.37c-0.26,0.34-0.55,0.59-0.82,0.82
						c-0.55,0.47-1.15,0.86-1.77,1.21c-1.24,0.69-2.61,1.11-3.98,1.26c1.28-0.5,2.45-1.19,3.48-2.01c0.51-0.41,0.98-0.88,1.41-1.35
						c0.45-0.46,0.76-1.02,0.67-1.24c-0.03-0.09-0.08-0.18-0.28-0.36c-0.19-0.16-0.48-0.39-0.74-0.57
						c-0.53-0.39-1.07-0.75-1.63-1.09c-1.1-0.69-2.27-1.27-3.48-1.73l-0.82-0.31l0.17-0.9c0.41-2.18,0.77-4.45,1.6-6.64
						c0.41-1.1,0.9-2.18,1.53-3.2c0.65-1.01,1.41-1.95,2.31-2.76c1.77-1.62,4.23-2.69,6.66-2.51C-539,72.61-536.62,73.8-535.5,75.79
						z"/>
				</g>
			</g>
			<g class="st10">
				<g>
					<path class="st6" d="M-644.13,7.17c-0.77-0.87-1.35-1.93-1.73-3.05c-0.18-0.57-0.32-1.15-0.39-1.75
						c-0.04-0.3-0.06-0.6-0.07-0.9c0-0.3-0.03-0.6,0.06-0.98c0.06-0.37,0.46-0.85,0.95-0.88c0.47-0.04,0.8,0.12,1.1,0.27
						c0.56,0.32,1.01,0.66,1.49,1.04c0.94,0.75,1.77,1.62,2.48,2.58l-0.87,0.37c-0.14-0.91-0.05-1.85,0.23-2.71
						c0.14-0.43,0.32-0.85,0.56-1.24c0.11-0.19,0.26-0.4,0.46-0.59c0.19-0.19,0.52-0.35,0.86-0.32c0.33,0.04,0.56,0.2,0.74,0.34
						c0.18,0.14,0.34,0.29,0.5,0.45c0.31,0.31,0.6,0.65,0.84,1.01c0.48,0.73,0.84,1.53,0.99,2.37c-0.34-0.78-0.77-1.51-1.33-2.11
						c-0.28-0.3-0.58-0.58-0.89-0.84c-0.31-0.24-0.7-0.53-0.9-0.51c-0.17-0.01-0.39,0.23-0.56,0.59c-0.18,0.35-0.32,0.72-0.42,1.09
						c-0.2,0.76-0.23,1.55-0.12,2.31l0.29,1.87l-1.16-1.5c-0.68-0.88-1.46-1.69-2.32-2.41c-0.42-0.35-0.9-0.7-1.33-0.98
						c-0.2-0.13-0.43-0.21-0.54-0.2c-0.1,0.01-0.17,0.04-0.23,0.23c-0.07,0.18-0.08,0.47-0.1,0.75c-0.01,0.28-0.01,0.56,0,0.83
						c0.03,0.56,0.09,1.12,0.2,1.67C-645.12,5.09-644.7,6.16-644.13,7.17z"/>
				</g>
				<g>
					<path class="st6" d="M-615.92,17.29c0.21-0.68,0.54-1.32,0.93-1.92c0.19-0.31,0.42-0.59,0.65-0.87
						c0.23-0.27,0.49-0.57,0.9-0.77c0.2-0.09,0.47-0.16,0.76-0.1c0.28,0.06,0.53,0.27,0.66,0.48c0.26,0.43,0.29,0.76,0.42,1.09
						c0.21,0.67,0.41,1.34,0.61,2.02l-0.93-0.05c0.67-1.73,2.12-3.11,3.85-3.72c0.43-0.14,0.87-0.27,1.39-0.27
						c0.52,0,1.06,0.3,1.32,0.73c0.27,0.43,0.33,0.9,0.34,1.34c0.01,0.44-0.05,0.88-0.15,1.3c-0.04-0.84-0.13-1.76-0.62-2.32
						c-0.47-0.57-1.24-0.34-1.98-0.01c-1.46,0.64-2.64,1.86-3.24,3.31l-0.56,1.33l-0.38-1.38c-0.18-0.68-0.37-1.35-0.53-2.04
						c-0.09-0.34-0.16-0.72-0.26-0.9c-0.09-0.17-0.16-0.21-0.42-0.14c-0.48,0.19-1.02,0.76-1.49,1.23
						C-615.13,16.14-615.53,16.7-615.92,17.29z"/>
				</g>
				<g>
					<path class="st6" d="M-642.55,23.2c-0.56-0.56-0.92-1.31-1.1-2.11c-0.17-0.8-0.13-1.66,0.15-2.47l0.08-0.24l0.29-0.02
						c1.81-0.12,3.67,0.6,4.92,1.95l-0.8,0.13c0.17-0.33,0.01-0.96,0.04-1.71c0-0.36,0.22-0.95,0.68-1.15
						c0.46-0.21,0.84-0.13,1.18-0.09c1.4,0.26,2.54,1.36,2.82,2.62c-0.61-1.14-1.77-1.83-2.91-1.9c-0.29-0.02-0.58,0-0.7,0.1
						c-0.13,0.1-0.17,0.19-0.18,0.46c-0.02,0.51,0.29,1.2-0.05,2.08l-0.26,0.68l-0.54-0.54c-1.09-1.1-2.62-1.77-4.19-1.81l0.37-0.26
						c-0.29,0.64-0.43,1.37-0.39,2.11C-643.12,21.77-642.91,22.51-642.55,23.2z"/>
				</g>
				<g>
					<path class="st6" d="M-601.84-3.16c0.29-0.71,0.72-1.37,1.28-1.95c0.57-0.56,1.36-0.98,2.22-1.05
						c0.84-0.09,1.83,0.19,2.43,0.94c0.56,0.7,0.83,1.78,0.29,2.69l-0.78-0.6c0.51-0.49,1.05-0.94,1.65-1.31
						c0.61-0.37,1.2-0.68,1.93-0.89c0.36-0.11,0.86-0.11,1.23,0.12c0.37,0.21,0.62,0.54,0.75,0.89c0.27,0.73,0.14,1.43-0.02,2.08
						c-0.04-0.67-0.05-1.37-0.39-1.87c-0.16-0.24-0.38-0.45-0.62-0.54c-0.24-0.09-0.46-0.06-0.73,0.04
						c-0.54,0.24-1.13,0.58-1.65,0.94c-0.52,0.38-1.02,0.78-1.46,1.23l-2.85,2.96l2.08-3.56c0.26-0.44,0.17-1.11-0.2-1.59
						c-0.34-0.48-0.96-0.73-1.63-0.73c-0.67,0-1.34,0.23-1.93,0.64C-600.84-4.32-601.35-3.75-601.84-3.16z"/>
				</g>
				<g>
					<path class="st6" d="M-581.93,21.65c-0.5-0.55-0.65-1.39-0.5-2.16c0.16-0.77,0.64-1.52,1.42-1.92
						c0.78-0.39,1.71-0.36,2.47-0.02c0.76,0.34,1.45,0.99,1.69,1.86l-0.95,0.27c-0.38-1.46,0.6-2.98,2.01-3.26
						c1.42-0.26,2.74,0.84,2.81,2.06c-0.43-1.12-1.72-1.65-2.63-1.35c-0.92,0.3-1.49,1.43-1.23,2.28l-0.95,0.27
						c-0.32-1.07-1.77-1.8-2.87-1.36C-581.76,18.74-582.52,20.3-581.93,21.65z"/>
				</g>
				<g>
					<path class="st6" d="M-561.39,2.74c0.68-0.65,1.39-1.27,2.17-1.81c0.4-0.27,0.81-0.52,1.25-0.72c0.43-0.2,0.91-0.42,1.5-0.42
						c0.59-0.01,1.17,0.28,1.56,0.68c0.4,0.4,0.65,0.9,0.79,1.44c0.25,1.07-0.01,2.08-0.21,2.98l-0.91-0.3
						c0.32-0.7,0.95-1.19,1.62-1.43c0.68-0.24,1.45-0.23,2.11,0.09c1.31,0.67,1.76,2.36,1.12,3.46c0.33-1.22-0.41-2.49-1.4-2.83
						c-0.98-0.36-2.22,0.21-2.58,1.1l-0.91-0.3c0.2-0.9,0.35-1.78,0.19-2.55c-0.16-0.74-0.72-1.44-1.41-1.48
						c-0.35-0.02-0.77,0.08-1.2,0.24c-0.42,0.15-0.84,0.33-1.25,0.53C-559.77,1.8-560.56,2.29-561.39,2.74z"/>
				</g>
				<g>
					<path class="st6" d="M-550.12,24.6c0.67-0.23,1.4-0.33,2.13-0.32c0.36,0.01,0.73,0.04,1.09,0.11c0.36,0.07,0.78,0.16,1.15,0.49
						c0.37,0.33,0.53,0.87,0.48,1.32c-0.03,0.46-0.22,0.88-0.52,1.22c-0.59,0.67-1.37,0.92-2.03,1.14l-0.16-0.95
						c0.62,0,1.2,0.22,1.69,0.56c0.49,0.34,0.87,0.89,0.98,1.49c0.11,0.64-0.13,1.25-0.53,1.66c-0.38,0.42-1,0.65-1.5,0.47
						c0.53-0.01,0.93-0.34,1.17-0.73c0.23-0.39,0.31-0.86,0.17-1.23c-0.26-0.79-1.17-1.26-1.99-1.25l-2.9,0.05l2.74-0.99
						c0.65-0.24,1.25-0.47,1.61-0.86c0.33-0.36,0.46-0.99,0.17-1.28c-0.29-0.34-1.08-0.51-1.71-0.67
						C-548.72,24.68-549.41,24.62-550.12,24.6z"/>
				</g>
				<g>
					<path class="st6" d="M-552.65,55.12c0.06-0.64,0.17-1.29,0.49-1.91c0.32-0.62,0.99-1.14,1.79-1.18c0.4-0.03,0.86,0.1,1.18,0.4
						c0.33,0.29,0.52,0.68,0.61,1.03c0.18,0.7,0.23,1.31,0.45,1.72l-0.85-0.01c0.3-0.46,0.62-1,1.15-1.4
						c0.53-0.41,1.25-0.64,1.95-0.39c0.35,0.12,0.63,0.38,0.8,0.67c0.16,0.29,0.24,0.59,0.29,0.88c0.09,0.57,0.09,1.11,0.3,1.63
						c-0.38-0.43-0.54-1.02-0.74-1.51c-0.18-0.51-0.48-0.89-0.86-0.96c-0.38-0.07-0.83,0.09-1.15,0.38
						c-0.33,0.31-0.61,0.73-0.89,1.21l-0.43,0.74l-0.42-0.75c-0.4-0.72-0.37-1.43-0.52-1.96c-0.12-0.53-0.38-0.83-0.86-0.87
						c-0.48-0.02-1.01,0.21-1.38,0.66C-552.12,53.94-552.37,54.54-552.65,55.12z"/>
				</g>
			</g>
		</g>
	</g>
	<g>
		
			<ellipse transform="matrix(0.7071 -0.7071 0.7071 0.7071 -470.3185 -487.8949)" class="st11" cx="-824.1" cy="323.78" rx="106.12" ry="106.12"/>
		<g>
			<g>
				<path class="st2" d="M-805.91,368.82l-30.86,7.88c0,0,1.12,8.32-0.67,15.53c11.64-2.16,22.88-6.48,32.97-12.67
					C-805.56,374.2-805.91,368.82-805.91,368.82z"/>
				<path class="st5" d="M-819.87,419.27c16.69-1.23,25.16-16.84,28.08-23.66c-4.21-3-7.37-5.25-8.48-6.08
					c-1.99-1.5-3.33-5.73-4.19-9.99c-10.09,6.2-21.33,10.51-32.97,12.67c0,0,0,0.01,0,0.01c-0.59,2.37-4.16,5.66-8.91,9.29
					C-843.91,407.4-836.53,420.5-819.87,419.27z"/>
				<path class="st2" d="M-752.75,424.91c-3.23-3.74-26.1-20.06-39.05-29.29c-2.92,6.82-11.39,22.43-28.08,23.66
					c-16.66,1.23-24.03-11.87-26.48-17.74c-9.73,7.43-24.47,16.27-29.16,21.57c-6.98,7.88-9.69,20.95-9.69,20.95h70.51h68.93
					C-745.76,444.05-748.47,429.86-752.75,424.91z"/>
			</g>
			<path class="st2" d="M-884.44,301.22c0.97,5.44,2.66,11.15,6.9,14.65c0.88,0.72,1.98,1.36,3.09,1.13
				c0.93-0.19,1.64-0.94,2.2-1.71c2.32-3.13,3.34-7.05,3.81-10.93c0.81-6.73,0.1-13.65-2.07-20.06c-0.64-1.9-1.44-3.79-2.78-5.27
				c-3.66-4.04-10.05-1.55-12.04,3.04C-887.55,287.19-885.37,295.99-884.44,301.22z"/>
			<g>
				<path class="st5" d="M-896.37,321.73c-0.32,4.84,1.3,9.68,3.98,13.58c1.82,2.65,4.17,4.95,6.99,6.26
					c2.82,1.32,6.14,1.59,9.01,0.35c2.62-1.14,4.7-3.44,6.12-6.05c3.28-6.04,3.2-13.78,0.47-20.08c-1.9-4.38-5.21-8.28-9.54-9.64
					C-888.1,303.39-895.81,313.17-896.37,321.73z"/>
				<path class="st5" d="M-873.6,336.23c-2.13-0.52-4.09-1.64-5.59-3.18c-0.45-0.47-0.89-1.09-0.69-1.73
					c0.11-0.36,0.41-0.63,0.69-0.88c1.7-1.48,3.65-2.69,5.73-3.56c-0.56-2.89-1.12-5.81-2.41-8.43c-1.29-2.62-3.41-4.95-6.24-5.88
					c-2.83-0.93-6.4-0.15-8.24,2.28c0,0-6.02,6.89,0.98,16.89C-881.98,342.28-873.6,336.23-873.6,336.23z"/>
				<g>
					<path class="st2" d="M-890.35,314.85c1.12-1.99,3.5-3.18,5.87-3.3c2.43-0.18,4.88,0.89,6.66,2.51c0.9,0.81,1.67,1.75,2.31,2.76
						c0.63,1.02,1.12,2.11,1.53,3.2c0.82,2.2,1.19,4.46,1.6,6.64l0.17,0.9l-0.82,0.31c-1.21,0.46-2.38,1.04-3.48,1.73
						c-0.56,0.33-1.11,0.7-1.63,1.09c-0.25,0.19-0.55,0.41-0.74,0.57c-0.2,0.18-0.25,0.27-0.28,0.36c-0.09,0.22,0.22,0.78,0.67,1.24
						c0.44,0.48,0.9,0.94,1.41,1.35c1.03,0.82,2.2,1.51,3.48,2.01c-1.37-0.15-2.74-0.57-3.98-1.26c-0.62-0.35-1.22-0.74-1.77-1.21
						c-0.27-0.23-0.56-0.48-0.82-0.82c-0.25-0.33-0.51-0.78-0.51-1.37c-0.01-0.6,0.35-1.13,0.63-1.42c0.3-0.32,0.53-0.52,0.8-0.77
						c0.53-0.48,1.08-0.93,1.66-1.35c1.16-0.83,2.41-1.54,3.72-2.14l-0.65,1.21c-0.43-2.18-0.91-4.3-1.58-6.3
						c-0.69-1.99-1.68-3.82-3.09-5.29c-1.41-1.46-3.23-2.49-5.29-2.65C-886.53,312.68-888.75,313.25-890.35,314.85z"/>
				</g>
			</g>
			<path class="st5" d="M-873.65,313.14c0,0-20.7-56.65,50.11-61.28c70.81-4.63,65.65,73.38,43.3,104.58
				c-14.43,20.15-53.65,33.23-78.98,19.61c-25.33-13.62-23.69-29.14-23.15-40.58C-881.82,324.03-873.65,313.14-873.65,313.14z"/>
			<g>
				<path class="st2" d="M-876.09,301.42c0.9,3.78,1.96,7.48,3.31,11.07l0.12,0.33l-0.23,0.33c-1.94,2.8-3.59,5.79-4.93,8.9
					c-1.34,3.12-2.39,6.36-3.08,9.67c-0.71,3.31-1.09,6.7-1.08,10.11c-0.01,3.41,0.4,6.83,1.2,10.21
					c-1.43-3.17-2.24-6.64-2.55-10.15c-0.3-3.51-0.09-7.07,0.55-10.55c0.66-3.47,1.72-6.87,3.2-10.08c1.47-3.21,3.33-6.25,5.55-8.98
					l-0.11,0.66C-875.23,309.18-875.92,305.31-876.09,301.42z"/>
			</g>
			<g>
				<g>
					<path class="st2" d="M-809.32,294.4c-0.33-0.03-0.66-0.05-1-0.05c-6.68,0-12.1,5.81-12.1,12.98c0,7.17,5.42,12.98,12.1,12.98
						c0.29,0,0.58-0.03,0.86-0.05C-806.75,311.93-806.7,302.75-809.32,294.4z"/>
					<path class="st6" d="M-798.22,307.32c0-6.81-4.88-12.38-11.1-12.93c2.62,8.36,2.57,17.53-0.14,25.86
						C-803.18,319.78-798.22,314.18-798.22,307.32z"/>
				</g>
				<path class="st6" d="M-804.34,307.54c0,1.64-1.33,2.97-2.97,2.97c-1.64,0-2.97-1.33-2.97-2.97c0-1.64,1.33-2.97,2.97-2.97
					C-805.67,304.57-804.34,305.9-804.34,307.54z"/>
				<g>
					<path class="st2" d="M-798.22,307.32c-0.2-3.28-1.48-6.44-3.69-8.75c-2.19-2.31-5.26-3.72-8.41-3.73
						c-3.16-0.03-6.23,1.41-8.41,3.73c-2.2,2.31-3.48,5.47-3.69,8.75c-0.11-1.64,0.13-3.31,0.64-4.91c0.54-1.58,1.38-3.07,2.47-4.36
						c2.17-2.59,5.54-4.23,8.98-4.21c1.71,0.04,3.42,0.4,4.97,1.14c1.54,0.74,2.93,1.78,4.02,3.08c1.1,1.28,1.94,2.77,2.48,4.36
						C-798.35,304.01-798.11,305.68-798.22,307.32z"/>
				</g>
			</g>
			<g>
				<path class="st2" d="M-871.86,297.44c1.23-2.62,2.97-5.01,4.99-7.17c2.05-2.13,4.43-3.97,7.05-5.43
					c0.66-0.35,1.33-0.7,1.99-1.08l2.05-0.98c0.71-0.27,1.43-0.52,2.16-0.74c0.74-0.17,1.49-0.29,2.25-0.41
					c0.76-0.05,1.52-0.09,2.28-0.1c0.76,0.04,1.52,0.09,2.27,0.19c0.75,0.13,1.5,0.31,2.23,0.49c0.73,0.26,1.44,0.52,2.12,0.88
					l-0.05,0.4c-0.74,0.25-1.45,0.4-2.14,0.56c-0.7,0.19-1.38,0.36-2.05,0.49c-0.67,0.21-1.33,0.36-1.99,0.51
					c-0.65,0.2-1.3,0.36-1.95,0.52c-0.64,0.19-1.28,0.37-1.93,0.51c-0.64,0.18-1.29,0.33-1.95,0.46l-1.96,0.5
					c-0.64,0.21-1.28,0.44-1.92,0.67c-2.51,1.04-4.91,2.39-7.13,4.05c-2.24,1.63-4.23,3.63-5.98,5.88L-871.86,297.44z"/>
			</g>
			<g>
				<path class="st2" d="M-792.92,295.76c-1.75-2.25-3.74-4.25-5.98-5.88c-2.22-1.66-4.62-3.01-7.13-4.05
					c-0.64-0.23-1.28-0.46-1.92-0.67l-1.96-0.5c-0.66-0.13-1.31-0.28-1.95-0.46c-0.65-0.14-1.29-0.32-1.93-0.51
					c-0.65-0.16-1.3-0.33-1.95-0.52c-0.66-0.15-1.32-0.3-1.99-0.51c-0.67-0.13-1.35-0.31-2.05-0.49c-0.7-0.16-1.4-0.31-2.14-0.56
					l-0.05-0.4c0.68-0.35,1.4-0.61,2.12-0.88c0.73-0.19,1.47-0.36,2.23-0.49c0.75-0.1,1.51-0.15,2.27-0.19
					c0.76,0.01,1.52,0.05,2.28,0.1c0.75,0.11,1.5,0.24,2.25,0.41c0.73,0.22,1.45,0.47,2.16,0.74l2.05,0.98
					c0.66,0.37,1.32,0.73,1.99,1.08c2.62,1.46,5.01,3.3,7.05,5.43c2.02,2.15,3.76,4.55,4.99,7.17L-792.92,295.76z"/>
			</g>
			<ellipse class="st7" cx="-810.3" cy="332.86" rx="11.89" ry="7.55"/>
			<ellipse class="st7" cx="-863.99" cy="330.35" rx="11.89" ry="7.55"/>
			<path class="st2" d="M-789.91,326.35c5.92,0.72,11.97,0.41,17.78-0.89c1.58-0.36,3.17-0.79,4.57-1.61
				c1.83-1.07,3.24-2.75,4.42-4.51c5.29-7.96,6.32-18.01,6.01-27.57c-0.19-5.79-1.36-12.46-6.41-15.31
				c-3.25-1.83-7.27-1.52-10.93-0.81c-4,0.77-8.2,2.13-11.29,4.89c-3.94,3.52-3.4,6.42-3.29,11.43
				C-788.78,303.43-789.07,314.91-789.91,326.35z"/>
			<path class="st2" d="M-738.08,268.21c-3.23,2.33-8.38,3.58-12.33,3.05c3.98-2.28,8.23-6.73,11.74-9.7
				c-8.62,4.31-19.21,0.18-26.68-5.92c-7.47-6.1-13.34-14.11-21.46-19.31c-14.46-9.25-34.04-8.62-46.45,3.24
				c-5.59-5.19-14.21-6.05-21.52-3.84c-7.3,2.21-13.51,7.02-19.17,12.14c-5.66,5.12-10.99,10.67-17.38,14.84
				c-3.14,2.05-6.66,5.09-10.18,3.81c2.31,2.46,6.14,3.1,9.26,4.38c-3.95,2.66-6.95,5.05-11.51,3.69
				c7.18,7.98,18.85,10.87,29.48,9.35c10.63-1.52,20.34-6.91,28.96-13.31c6.39-4.75,12.51-10.36,15.56-17.71
				c10.32,15.37,25.05,28.13,43.24,31.58C-768.33,287.95-749.39,282.86-738.08,268.21z"/>
			<g>
				<path class="st2" d="M-833.03,298.21c-1.12,2.84-2.22,5.66-3.22,8.51c-1.01,2.84-1.95,5.71-2.77,8.6
					c-0.86,2.88-1.58,5.8-2.24,8.73c-0.65,2.94-1.21,5.89-1.68,8.87l-0.58-0.8c1.71,0.43,3.36,0.98,5.03,1.43
					c1.66,0.47,3.34,0.85,5.08,1.04c-1.74,0.2-3.52,0.08-5.27-0.16c-1.74-0.25-3.46-0.59-5.15-0.88l-0.62-0.11l0.05-0.69
					c0.22-3.05,0.63-6.1,1.23-9.1c0.59-3.01,1.38-5.98,2.31-8.9c0.96-2.91,2.07-5.77,3.37-8.54
					C-836.19,303.44-834.73,300.74-833.03,298.21z"/>
			</g>
			<g>
				<path class="st2" d="M-863.08,312.76c2.73-1.37,5.62-2.38,8.58-3.13c1.48-0.39,2.98-0.68,4.49-0.93
					c1.51-0.26,3.04-0.4,4.56-0.53l-0.72,1.6c-0.91-1.18-1.99-2.25-3.22-3.16c-1.2-0.95-2.53-1.75-3.9-2.5
					c-1.38-0.73-2.81-1.4-4.28-2.01c-1.46-0.63-2.97-1.17-4.48-1.74c1.61,0.13,3.21,0.42,4.79,0.79c1.58,0.39,3.14,0.88,4.65,1.53
					c3.02,1.27,5.93,3.14,8.02,5.89l1.14,1.49l-1.86,0.1c-1.49,0.08-2.97,0.24-4.45,0.4c-1.48,0.15-2.96,0.37-4.44,0.58
					C-857.14,311.58-860.09,312.16-863.08,312.76z"/>
			</g>
			<g>
				<path class="st2" d="M-849.89,341.07c1.76,2.29,3.65,4.43,5.92,5.92c2.26,1.46,4.91,2.32,7.47,1.97
					c2.58-0.31,5.02-1.66,7.13-3.4c2.12-1.77,3.96-3.97,5.95-6.07c-1.31,2.57-2.8,5.08-4.89,7.22c-2.07,2.13-4.8,3.82-7.95,4.24
					c-1.57,0.18-3.18,0-4.64-0.49c-1.46-0.51-2.83-1.25-3.99-2.22C-847.25,346.33-848.85,343.76-849.89,341.07z"/>
			</g>
			<g>
				<path class="st5" d="M-755.42,323.14c0.32,4.84-1.3,9.68-3.98,13.58c-1.82,2.65-4.17,4.95-6.99,6.26
					c-2.82,1.32-6.14,1.59-9.01,0.34c-2.62-1.14-4.7-3.44-6.12-6.05c-3.28-6.04-3.2-13.78-0.47-20.08c1.9-4.38,5.21-8.28,9.54-9.64
					C-763.7,304.8-755.99,314.57-755.42,323.14z"/>
				<path class="st5" d="M-778.19,337.63c2.13-0.52,4.09-1.64,5.59-3.18c0.45-0.47,0.89-1.09,0.69-1.73
					c-0.11-0.36-0.41-0.63-0.69-0.88c-1.7-1.48-3.65-2.69-5.73-3.56c0.56-2.89,1.12-5.81,2.41-8.43c1.29-2.62,3.41-4.95,6.24-5.88
					c2.83-0.93,6.4-0.15,8.24,2.28c0,0,6.02,6.89-0.98,16.89C-769.82,343.68-778.19,337.63-778.19,337.63z"/>
				<g>
					<path class="st2" d="M-761.45,316.25c-1.6-1.59-3.82-2.17-5.86-2c-2.06,0.16-3.88,1.19-5.29,2.65c-1.41,1.47-2.4,3.3-3.09,5.29
						c-0.67,2-1.15,4.12-1.58,6.3l-0.65-1.21c1.31,0.59,2.56,1.31,3.72,2.14c0.58,0.42,1.13,0.88,1.66,1.35
						c0.27,0.25,0.5,0.45,0.8,0.77c0.28,0.29,0.64,0.82,0.63,1.42c0,0.59-0.26,1.04-0.51,1.37c-0.26,0.34-0.55,0.59-0.82,0.82
						c-0.55,0.47-1.15,0.86-1.77,1.21c-1.24,0.69-2.61,1.11-3.98,1.26c1.28-0.5,2.45-1.19,3.48-2.01c0.51-0.41,0.98-0.88,1.41-1.35
						c0.45-0.46,0.76-1.02,0.67-1.24c-0.03-0.09-0.08-0.18-0.28-0.36c-0.19-0.16-0.48-0.39-0.74-0.57
						c-0.53-0.39-1.07-0.75-1.63-1.09c-1.1-0.69-2.27-1.27-3.48-1.73l-0.82-0.31l0.17-0.9c0.41-2.18,0.77-4.45,1.6-6.64
						c0.41-1.1,0.9-2.18,1.53-3.2c0.65-1.01,1.41-1.95,2.31-2.76c1.77-1.62,4.23-2.69,6.66-2.51
						C-764.94,313.07-762.57,314.26-761.45,316.25z"/>
				</g>
			</g>
			<g class="st10">
				<g>
					<path class="st6" d="M-823.5,241.43c2.2,2.53,4.38,5.08,6.66,7.53c2.25,2.48,4.56,4.9,6.98,7.21c4.82,4.62,10,8.89,15.76,12.24
						c5.71,3.4,12.03,5.81,18.58,6.94c6.54,1.13,13.39,0.87,19.77-1.26c-3.11,1.26-6.43,2-9.79,2.34c-3.36,0.3-6.76,0.17-10.1-0.32
						c-6.69-0.99-13.13-3.45-18.97-6.84c-5.8-3.47-11.05-7.78-15.79-12.56C-815.15,251.94-819.44,246.76-823.5,241.43z"/>
				</g>
				<g>
					<path class="st6" d="M-813.33,235.93c3.69,4.73,7.88,9.04,12.49,12.82c4.61,3.78,9.61,7.1,14.93,9.77
						c5.29,2.75,10.9,4.85,16.67,6.37l4.36,1.02l4.41,0.76l4.45,0.54l4.48,0.28l-4.5-0.02l-4.5-0.32l-4.47-0.63l-4.43-0.89
						c-5.87-1.38-11.55-3.52-16.94-6.23c-5.35-2.78-10.42-6.13-14.97-10.08l-3.32-3.06l-3.13-3.25l-2.89-3.46L-813.33,235.93z"/>
				</g>
				<g>
					<path class="st6" d="M-836.72,246.67l-2.33,3.35l-2.55,3.19l-2.78,3.01l-2.96,2.83c-4.06,3.66-8.62,6.76-13.44,9.35
						c-4.86,2.52-9.99,4.51-15.31,5.8l-4.01,0.84l-4.05,0.59l-4.08,0.3l-4.08,0.02l4.06-0.29l4.03-0.52l3.99-0.73l3.94-0.96
						c5.21-1.43,10.27-3.39,15.03-5.94c4.8-2.48,9.28-5.55,13.4-9.04C-843.72,254.98-839.99,251.01-836.72,246.67z"/>
				</g>
				<g>
					<path class="st6" d="M-887.38,267.34c3.26-1.67,6.47-3.42,9.58-5.34c3.1-1.92,6.13-3.95,9.03-6.15
						c2.92-2.18,5.72-4.51,8.44-6.95l2.01-1.86l1.96-1.91l1.94-1.94c0.62-0.67,1.26-1.33,1.9-1.98c-0.56,0.73-1.12,1.45-1.7,2.16
						l-1.78,2.1l-1.87,2.02l-1.93,1.97c-2.61,2.59-5.43,4.97-8.36,7.19c-2.95,2.2-6.03,4.23-9.25,6.01
						C-880.63,264.45-883.95,266.05-887.38,267.34z"/>
				</g>
			</g>
		</g>
	</g>
	<g>
		
			<ellipse transform="matrix(0.7071 -0.7071 0.7071 0.7071 -403.6488 -326.9401)" class="st12" cx="-596.48" cy="323.78" rx="106.12" ry="106.12"/>
		<g>
			<path class="st9" d="M-662.85,308.35c-3.72-13.33-2.5-28.01,3.5-40.49c6-12.48,16.74-22.62,29.6-27.77
				c14.29-5.72,30.44-5.2,45.43-1.7c4.1,0.96,8.16,2.13,11.95,3.96c12.34,5.95,20.37,17.97,30.1,27.62
				c4.21,4.17,8.97,8.04,14.65,9.71c5.68,1.68,12.44,0.74,16.47-3.6c-0.63,6.52-3.61,13.84-8.13,18.57
				c4.11-1.69,8.26-4.86,10.6-8.64c-2.36,9.46-3.54,20.13-6.64,29.37c-4.4,13.14-13.79,24.39-25.46,31.86
				c-11.67,7.47-25.53,11.24-39.38,11.66"/>
			<g>
				<path class="st2" d="M-586.94,368.82l-30.86,7.88c0,0,1.12,8.32-0.67,15.53c11.64-2.16,22.88-6.48,32.97-12.67
					C-586.59,374.2-586.94,368.82-586.94,368.82z"/>
				<path class="st3" d="M-600.9,419.27c16.69-1.23,25.16-16.84,28.08-23.66c-4.21-3-7.37-5.25-8.48-6.08
					c-1.99-1.5-3.33-5.73-4.19-9.99c-10.09,6.2-21.33,10.51-32.97,12.67c0,0,0,0.01,0,0.01c-0.59,2.37-4.16,5.66-8.91,9.29
					C-624.93,407.4-617.56,420.5-600.9,419.27z"/>
				<path class="st5" d="M-533.77,424.91c-3.23-3.74-26.1-20.06-39.05-29.29c-2.92,6.82-11.39,22.43-28.08,23.66
					c-16.66,1.23-24.03-11.87-26.48-17.74c-9.73,7.43-24.47,16.27-29.16,21.57c-6.98,7.88-9.69,20.95-9.69,20.95h70.51h68.93
					C-526.79,444.05-529.49,429.86-533.77,424.91z"/>
			</g>
			<g>
				<path class="st3" d="M-677.4,321.73c-0.32,4.84,1.3,9.68,3.98,13.58c1.82,2.65,4.17,4.95,6.99,6.26
					c2.82,1.32,6.14,1.59,9.01,0.35c2.62-1.14,4.7-3.44,6.12-6.05c3.28-6.04,3.2-13.78,0.47-20.08c-1.9-4.38-5.21-8.28-9.54-9.64
					C-669.12,303.39-676.84,313.17-677.4,321.73z"/>
				<path class="st3" d="M-654.63,336.23c-2.13-0.52-4.09-1.64-5.59-3.18c-0.45-0.47-0.89-1.09-0.69-1.73
					c0.11-0.36,0.41-0.63,0.69-0.88c1.7-1.48,3.65-2.69,5.73-3.56c-0.56-2.89-1.12-5.81-2.41-8.43c-1.29-2.62-3.41-4.95-6.24-5.88
					c-2.83-0.93-6.4-0.15-8.24,2.28c0,0-6.02,6.89,0.98,16.89C-663.01,342.28-654.63,336.23-654.63,336.23z"/>
				<g>
					<path class="st2" d="M-671.38,314.85c1.12-1.99,3.5-3.18,5.87-3.3c2.43-0.18,4.88,0.89,6.66,2.51c0.9,0.81,1.67,1.75,2.31,2.76
						c0.63,1.02,1.12,2.11,1.53,3.2c0.82,2.2,1.19,4.46,1.6,6.64l0.17,0.9l-0.82,0.31c-1.21,0.46-2.38,1.04-3.48,1.73
						c-0.56,0.33-1.1,0.7-1.63,1.09c-0.25,0.19-0.55,0.41-0.74,0.57c-0.2,0.18-0.25,0.26-0.28,0.36c-0.09,0.22,0.22,0.78,0.67,1.24
						c0.44,0.48,0.9,0.94,1.41,1.35c1.03,0.82,2.2,1.51,3.48,2.01c-1.37-0.15-2.74-0.57-3.98-1.26c-0.62-0.35-1.22-0.74-1.77-1.21
						c-0.27-0.23-0.56-0.48-0.82-0.82c-0.25-0.33-0.51-0.78-0.51-1.37c-0.01-0.6,0.35-1.13,0.63-1.42c0.3-0.32,0.53-0.52,0.8-0.77
						c0.53-0.48,1.08-0.93,1.66-1.35c1.16-0.83,2.41-1.54,3.72-2.14l-0.65,1.21c-0.43-2.18-0.91-4.3-1.58-6.3
						c-0.69-1.99-1.68-3.82-3.09-5.29c-1.41-1.46-3.23-2.49-5.29-2.65C-667.56,312.68-669.78,313.25-671.38,314.85z"/>
				</g>
			</g>
			<path class="st3" d="M-654.68,313.14c0,0-20.7-56.65,50.11-61.28c70.81-4.63,65.65,73.38,43.3,104.58
				c-14.43,20.15-53.65,33.23-78.98,19.61s-23.69-29.14-23.15-40.58C-662.85,324.03-654.68,313.14-654.68,313.14z"/>
			<g>
				<path class="st2" d="M-657.12,301.42c0.9,3.78,1.96,7.48,3.31,11.07l0.12,0.33l-0.23,0.33c-1.94,2.8-3.59,5.79-4.93,8.9
					c-1.34,3.12-2.39,6.36-3.08,9.67c-0.71,3.31-1.09,6.7-1.08,10.11c-0.01,3.41,0.4,6.83,1.2,10.21
					c-1.43-3.17-2.24-6.64-2.55-10.15c-0.3-3.51-0.09-7.07,0.55-10.55c0.66-3.47,1.72-6.87,3.2-10.08c1.47-3.21,3.33-6.25,5.55-8.98
					l-0.11,0.66C-656.25,309.18-656.95,305.31-657.12,301.42z"/>
			</g>
			<g>
				<g>
					<path class="st4" d="M-634.62,294.02c-0.33-0.03-0.66-0.05-1-0.05c-6.68,0-12.1,5.81-12.1,12.98c0,7.17,5.42,12.98,12.1,12.98
						c0.29,0,0.58-0.02,0.86-0.05C-632.05,311.55-632,302.37-634.62,294.02z"/>
					<path class="st6" d="M-623.52,306.94c0-6.81-4.88-12.38-11.1-12.93c2.62,8.36,2.57,17.53-0.14,25.86
						C-628.48,319.4-623.52,313.8-623.52,306.94z"/>
				</g>
				<path class="st6" d="M-629.64,307.16c0,1.64-1.33,2.97-2.97,2.97c-1.64,0-2.97-1.33-2.97-2.97c0-1.64,1.33-2.97,2.97-2.97
					C-630.97,304.19-629.64,305.52-629.64,307.16z"/>
				<g>
					<path class="st2" d="M-623.52,306.94c-0.2-3.28-1.48-6.44-3.69-8.75c-2.19-2.31-5.26-3.72-8.41-3.73
						c-3.16-0.03-6.23,1.41-8.41,3.73c-2.2,2.31-3.48,5.47-3.69,8.75c-0.11-1.64,0.13-3.31,0.64-4.91c0.54-1.58,1.38-3.07,2.47-4.36
						c2.17-2.59,5.54-4.23,8.98-4.21c1.71,0.04,3.42,0.4,4.97,1.14c1.54,0.74,2.93,1.78,4.02,3.08c1.1,1.28,1.94,2.77,2.48,4.36
						C-623.65,303.63-623.41,305.3-623.52,306.94z"/>
				</g>
			</g>
			<g>
				<g>
					<path class="st4" d="M-590.35,294.4c-0.33-0.03-0.66-0.05-1-0.05c-6.68,0-12.1,5.81-12.1,12.98c0,7.17,5.42,12.98,12.1,12.98
						c0.29,0,0.58-0.03,0.86-0.05C-587.78,311.93-587.72,302.75-590.35,294.4z"/>
					<path class="st6" d="M-579.25,307.32c0-6.81-4.88-12.38-11.1-12.93c2.62,8.36,2.57,17.53-0.14,25.86
						C-584.21,319.78-579.25,314.18-579.25,307.32z"/>
				</g>
				<path class="st6" d="M-585.37,307.54c0,1.64-1.33,2.97-2.97,2.97c-1.64,0-2.97-1.33-2.97-2.97c0-1.64,1.33-2.97,2.97-2.97
					C-586.7,304.57-585.37,305.9-585.37,307.54z"/>
				<g>
					<path class="st2" d="M-579.25,307.32c-0.2-3.28-1.48-6.44-3.69-8.75c-2.19-2.31-5.26-3.72-8.41-3.73
						c-3.16-0.03-6.23,1.41-8.41,3.73c-2.2,2.31-3.48,5.47-3.69,8.75c-0.11-1.64,0.13-3.31,0.64-4.91c0.54-1.58,1.38-3.07,2.47-4.36
						c2.17-2.59,5.54-4.23,8.98-4.21c1.71,0.04,3.42,0.4,4.97,1.14c1.54,0.74,2.93,1.78,4.02,3.08c1.1,1.28,1.95,2.77,2.48,4.36
						C-579.38,304.01-579.14,305.68-579.25,307.32z"/>
				</g>
			</g>
			<g>
				<path class="st2" d="M-652.88,297.44c1.23-2.62,2.97-5.01,4.99-7.17c2.05-2.13,4.43-3.97,7.05-5.43
					c0.66-0.35,1.33-0.7,1.99-1.08l2.05-0.98c0.71-0.27,1.43-0.52,2.16-0.74c0.74-0.17,1.49-0.29,2.25-0.41
					c0.76-0.05,1.52-0.09,2.28-0.1c0.76,0.04,1.52,0.09,2.27,0.19c0.75,0.13,1.5,0.31,2.23,0.49c0.73,0.26,1.44,0.52,2.12,0.88
					l-0.05,0.4c-0.74,0.25-1.45,0.4-2.14,0.56c-0.7,0.19-1.38,0.36-2.05,0.49c-0.67,0.21-1.33,0.36-1.99,0.51
					c-0.65,0.2-1.3,0.36-1.95,0.52c-0.64,0.19-1.28,0.37-1.93,0.51c-0.64,0.18-1.29,0.33-1.95,0.46l-1.96,0.5
					c-0.64,0.21-1.28,0.44-1.92,0.67c-2.51,1.04-4.91,2.39-7.13,4.05c-2.24,1.63-4.23,3.63-5.98,5.88L-652.88,297.44z"/>
			</g>
			<g>
				<path class="st2" d="M-573.95,295.76c-1.75-2.25-3.74-4.25-5.98-5.88c-2.22-1.66-4.62-3.01-7.13-4.05
					c-0.64-0.23-1.28-0.46-1.92-0.67l-1.96-0.5c-0.66-0.13-1.31-0.28-1.95-0.46c-0.65-0.14-1.29-0.32-1.93-0.51
					c-0.65-0.16-1.3-0.33-1.95-0.52c-0.66-0.15-1.32-0.3-1.99-0.51c-0.67-0.13-1.35-0.31-2.05-0.49c-0.7-0.16-1.4-0.31-2.14-0.56
					l-0.05-0.4c0.68-0.35,1.4-0.61,2.12-0.88c0.73-0.19,1.47-0.36,2.23-0.49c0.75-0.1,1.51-0.15,2.27-0.19
					c0.76,0.01,1.52,0.05,2.28,0.1c0.75,0.11,1.5,0.24,2.25,0.41c0.73,0.22,1.45,0.47,2.16,0.74l2.05,0.98
					c0.66,0.37,1.32,0.73,1.99,1.08c2.62,1.46,5.01,3.3,7.05,5.43c2.02,2.15,3.76,4.55,4.99,7.17L-573.95,295.76z"/>
			</g>
			<g>
				<path class="st5" d="M-621.35,350.74c1.91,1.7,4.11,2.85,6.49,2.65c3.92-0.33,7.78-3.64,10.67-6.88
					c-3.12,0.16-6.24,0.44-9.28,1.13C-616.23,348.27-618.94,349.27-621.35,350.74z"/>
				<path class="st2" d="M-615.29,343.81c-7.84-0.44-13.28-3.7-13.28-3.7s2.85,6.75,7.22,10.63c2.41-1.47,5.12-2.47,7.87-3.1
					c3.05-0.7,6.16-0.97,9.28-1.13c2.89-3.24,4.79-6.4,4.79-6.4S-607.45,344.24-615.29,343.81z"/>
			</g>
			<ellipse class="st7" cx="-588.41" cy="331.6" rx="11.89" ry="7.55"/>
			<ellipse class="st7" cx="-642.1" cy="331.6" rx="11.89" ry="7.55"/>
			<path class="st9" d="M-657.77,273.3c7.71-4.77,15.83-8.87,24.23-12.26c-2.31,4.35-4.62,8.69-6.94,13.04
				c8-5.31,16-10.63,24.01-15.94c0.19,4.14,0.34,9.01,0.73,13.13c3.53-4.83,7.06-9.66,10.6-14.48c3.24,4.15,5.51,9.21,7.61,14.03
				c1.24-4.04,1.69-8.33,1.32-12.54c6,5.05,12.54,10.58,17.54,16.62c5,6.05,8.95,13.17,10.11,20.93c0.81,5.35,0.28,10.9,1.76,16.11
				c1.82,6.4,6.85,11.88,13.18,13.91s13.79,0.38,18.45-4.37c0,0,4.95-42.5-23.95-62.92c-28.9-20.42-72.56-12.25-72.56-12.25
				L-657.77,273.3z"/>
			<g>
				<path class="st3" d="M-536.45,323.14c0.32,4.84-1.3,9.68-3.98,13.58c-1.82,2.65-4.17,4.95-6.99,6.26
					c-2.82,1.32-6.14,1.59-9.01,0.34c-2.62-1.14-4.7-3.44-6.12-6.05c-3.28-6.04-3.2-13.78-0.47-20.08c1.9-4.38,5.21-8.28,9.54-9.64
					C-544.73,304.8-537.02,314.57-536.45,323.14z"/>
				<path class="st3" d="M-559.22,337.63c2.13-0.52,4.09-1.64,5.59-3.18c0.45-0.47,0.89-1.09,0.69-1.73
					c-0.11-0.36-0.41-0.63-0.69-0.88c-1.7-1.48-3.65-2.69-5.73-3.56c0.56-2.89,1.12-5.81,2.41-8.43c1.29-2.62,3.41-4.95,6.24-5.88
					c2.83-0.93,6.4-0.15,8.24,2.28c0,0,6.02,6.89-0.98,16.89C-550.85,343.68-559.22,337.63-559.22,337.63z"/>
				<g>
					<path class="st2" d="M-542.48,316.25c-1.6-1.59-3.82-2.17-5.86-2c-2.06,0.16-3.88,1.19-5.29,2.65c-1.41,1.47-2.4,3.3-3.09,5.29
						c-0.67,2-1.15,4.12-1.58,6.3l-0.65-1.21c1.31,0.59,2.56,1.31,3.72,2.14c0.58,0.42,1.13,0.88,1.66,1.35
						c0.27,0.25,0.5,0.45,0.8,0.77c0.28,0.29,0.64,0.82,0.63,1.42c0,0.59-0.26,1.04-0.51,1.37c-0.26,0.34-0.55,0.59-0.82,0.82
						c-0.55,0.47-1.15,0.86-1.77,1.21c-1.24,0.69-2.61,1.11-3.98,1.26c1.28-0.5,2.45-1.19,3.48-2.01c0.51-0.41,0.98-0.88,1.41-1.35
						c0.45-0.46,0.76-1.02,0.67-1.24c-0.03-0.09-0.08-0.18-0.28-0.36c-0.19-0.16-0.48-0.39-0.74-0.57
						c-0.53-0.39-1.07-0.75-1.63-1.09c-1.1-0.69-2.27-1.27-3.48-1.73l-0.82-0.31l0.17-0.9c0.41-2.18,0.77-4.45,1.6-6.64
						c0.41-1.1,0.9-2.18,1.53-3.2c0.65-1.01,1.41-1.95,2.31-2.76c1.77-1.62,4.23-2.69,6.66-2.51
						C-545.97,313.07-543.6,314.26-542.48,316.25z"/>
				</g>
			</g>
			<g>
				<path class="st2" d="M-616.18,298.94c-0.4,3.99-0.8,7.94-1.07,11.9c-0.25,3.96-0.43,7.91-0.44,11.87
					c-0.03,1.98,0.01,3.96,0.06,5.94c0.05,1.99,0.01,3.97,0.77,5.49c0.45,0.81,0.64,0.94,1.5,0.6c0.8-0.37,1.53-0.97,2.13-1.68
					c1.25-1.44,2.03-3.31,2.85-5.13c-0.4,1.96-0.91,3.94-2.06,5.72c-0.58,0.88-1.35,1.67-2.31,2.26c-0.48,0.28-1.17,0.57-1.97,0.34
					c-0.79-0.27-1.19-0.86-1.49-1.32c-0.62-0.98-0.89-2.09-1.04-3.13c-0.15-1.05-0.19-2.04-0.27-3.05
					c-0.11-2.01-0.17-4.02-0.17-6.03c0.04-4.02,0.31-8.04,0.89-12.02C-618.24,306.7-617.4,302.77-616.18,298.94z"/>
			</g>
			<g>
				<g>
					<path class="st9" d="M-626.82,253.56c0.47-1.27,1.2-2.45,2.09-3.49c0.91-1.03,1.97-1.92,3.09-2.7
						c1.13-0.77,2.34-1.43,3.58-2.02c0.62-0.3,1.25-0.56,1.89-0.8c0.64-0.25,1.27-0.52,1.91-0.74c2.59-0.89,5.27-1.51,7.98-1.94
						c2.72-0.36,5.48-0.54,8.23-0.42c2.75,0.13,5.5,0.41,8.19,1.04l1.01,0.21l1,0.27c0.66,0.19,1.33,0.36,1.99,0.56
						c1.3,0.46,2.62,0.87,3.89,1.43c5.12,2.09,9.77,5.31,13.77,9.08c8.01,7.6,13.75,16.95,21.3,24.55
						c3.79,3.74,7.97,7.25,12.97,9.12c2.47,0.94,5.13,1.45,7.8,1.29c2.66-0.14,5.32-0.91,7.58-2.41c-2.14,1.68-4.81,2.66-7.54,2.93
						c-2.73,0.31-5.54-0.06-8.17-0.89c-2.63-0.86-5.09-2.17-7.37-3.71c-1.14-0.77-2.24-1.6-3.28-2.49
						c-1.07-0.86-2.07-1.79-3.08-2.72c-7.95-7.58-13.79-16.9-21.57-24.21c-7.61-7.45-17.91-11.83-28.55-12.51
						c-2.66-0.2-5.33-0.07-7.98,0.16c-2.65,0.31-5.28,0.82-7.85,1.58c-0.65,0.18-1.27,0.42-1.91,0.62
						c-0.64,0.21-1.27,0.43-1.89,0.68c-1.24,0.51-2.45,1.09-3.59,1.78C-623.63,249.2-625.69,251.07-626.82,253.56z"/>
				</g>
				<g>
					<path class="st9" d="M-572.66,269.64c2.94,3.87,5.75,7.82,8.82,11.51c3.07,3.68,6.39,7.14,10.2,9.95
						c3.77,2.81,8.1,4.9,12.68,6.01c4.58,1.1,9.48,1.13,14.1-0.43c-4.3,2.34-9.54,2.83-14.41,1.96c-4.91-0.86-9.55-2.99-13.56-5.94
						c-3.98-2.98-7.36-6.65-10.23-10.6C-567.96,278.16-570.41,273.95-572.66,269.64z"/>
				</g>
				<g>
					<path class="st9" d="M-533.77,315.31c2.99-1.88,5.2-4.27,7.07-7.01c0.94-1.37,1.8-2.8,2.66-4.27c0.86-1.47,1.72-2.98,2.76-4.42
						c-0.27,1.75-0.73,3.44-1.35,5.09c-0.62,1.65-1.4,3.26-2.43,4.74c-1.02,1.48-2.29,2.82-3.76,3.88
						C-530.28,314.38-532,315.15-533.77,315.31z"/>
				</g>
				<g>
					<path class="st9" d="M-530.4,327.99c0.44-1.24,0.99-2.37,1.55-3.48c0.57-1.11,1.15-2.2,1.76-3.26
						c0.61-1.07,1.25-2.12,1.91-3.17c0.67-1.05,1.36-2.1,2.21-3.11c-0.08,1.32-0.39,2.57-0.81,3.78c-0.42,1.21-0.95,2.38-1.58,3.49
						c-0.63,1.11-1.37,2.16-2.2,3.14C-528.38,326.35-529.3,327.25-530.4,327.99z"/>
				</g>
			</g>
		</g>
	</g>
	<g>
		
			<ellipse transform="matrix(0.7071 -0.7071 0.7071 0.7071 -337.6356 -167.57)" class="st13" cx="-371.09" cy="323.78" rx="106.12" ry="106.12"/>
		<g>
			<path class="st2" d="M-426.36,288.79c-3.9,0.87-7.65-1.97-10.22-5.03c-2.61-3.11-4.74-6.78-5.22-10.81
				c-0.48-4.03,0.96-8.45,4.29-10.77c-1.98-4.6-1.67-10.12,0.83-14.46c2.5-4.34,7.12-7.38,12.09-7.97c3.3-4.63,6.48-9.27,11.7-11.54
				c5.22-2.27,11.67-2.25,16.27,1.09c-0.4-0.78,1.47-2.56,2.06-3.19c3.41-3.64,7.46-6.78,12.12-8.55c4.66-1.77,9.98-2.09,14.62-0.26
				c4.64,1.83,8.44,5.98,9.27,10.9c4.48-3.21,9.46-6.01,14.96-6.36c5.5-0.34,11.31,1.66,14.71,6c2.31,2.95,3.34,6.68,4.31,10.3
				c7.05-1.53,13.26,0.97,17.69,6.67c4.43,5.7,5.25,13.97,2.02,20.42c2.95-0.34,5.16,2.71,7.31,4.75
				c4.62,4.39,5.85,11.73,3.58,17.68c-2.27,5.96-7.66,10.44-13.74,12.37"/>
			<g>
				<path class="st2" d="M-352.9,368.82l-30.86,7.88c0,0,1.12,8.32-0.67,15.53c11.64-2.16,22.88-6.48,32.97-12.67
					C-352.55,374.2-352.9,368.82-352.9,368.82z"/>
				<path class="st5" d="M-366.87,419.27c16.69-1.23,25.16-16.84,28.08-23.66c-4.21-3-7.37-5.25-8.48-6.08
					c-1.99-1.5-3.33-5.73-4.19-9.99c-10.09,6.2-21.33,10.51-32.97,12.67c0,0,0,0.01,0,0.01c-0.59,2.37-4.16,5.66-8.91,9.29
					C-390.9,407.4-383.52,420.5-366.87,419.27z"/>
				<path class="st4" d="M-299.74,424.91c-3.23-3.74-26.1-20.06-39.05-29.29c-2.92,6.82-11.39,22.43-28.08,23.66
					c-16.66,1.23-24.03-11.87-26.48-17.74c-9.73,7.43-24.47,16.27-29.16,21.57c-6.98,7.88-9.69,20.95-9.69,20.95h70.51h68.93
					C-292.76,444.05-295.46,429.86-299.74,424.91z"/>
			</g>
			<path class="st2" d="M-431.43,301.22c0.97,5.44,2.66,11.15,6.9,14.65c0.88,0.72,1.98,1.36,3.09,1.13
				c0.93-0.19,1.64-0.94,2.2-1.71c2.32-3.13,3.34-7.05,3.81-10.93c0.81-6.73,0.1-13.65-2.07-20.06c-0.64-1.9-1.44-3.79-2.78-5.27
				c-3.66-4.04-10.05-1.55-12.04,3.04C-434.54,287.19-432.37,295.99-431.43,301.22z"/>
			<g>
				<path class="st5" d="M-443.37,321.73c-0.32,4.84,1.3,9.68,3.98,13.58c1.82,2.65,4.17,4.95,6.99,6.26
					c2.82,1.32,6.14,1.59,9.01,0.35c2.62-1.14,4.7-3.44,6.12-6.05c3.28-6.04,3.2-13.78,0.47-20.08c-1.9-4.38-5.21-8.28-9.54-9.64
					C-435.09,303.39-442.8,313.17-443.37,321.73z"/>
				<path class="st5" d="M-420.6,336.23c-2.13-0.52-4.09-1.64-5.58-3.18c-0.45-0.47-0.89-1.09-0.69-1.73
					c0.11-0.36,0.41-0.63,0.69-0.88c1.7-1.48,3.65-2.69,5.73-3.56c-0.56-2.89-1.12-5.81-2.41-8.43c-1.29-2.62-3.41-4.95-6.24-5.88
					c-2.83-0.93-6.4-0.15-8.24,2.28c0,0-6.02,6.89,0.98,16.89C-428.97,342.28-420.6,336.23-420.6,336.23z"/>
				<g>
					<path class="st2" d="M-437.34,314.85c1.12-1.99,3.5-3.18,5.87-3.3c2.43-0.18,4.88,0.89,6.66,2.51c0.9,0.81,1.67,1.75,2.31,2.76
						c0.63,1.02,1.12,2.11,1.53,3.2c0.82,2.2,1.19,4.46,1.6,6.64l0.17,0.9l-0.82,0.31c-1.21,0.46-2.38,1.04-3.48,1.73
						c-0.56,0.33-1.1,0.7-1.63,1.09c-0.25,0.19-0.55,0.41-0.74,0.57c-0.2,0.18-0.25,0.27-0.28,0.36c-0.09,0.22,0.22,0.78,0.67,1.24
						c0.44,0.48,0.9,0.94,1.41,1.35c1.03,0.82,2.2,1.51,3.48,2.01c-1.37-0.15-2.74-0.57-3.98-1.26c-0.62-0.35-1.22-0.74-1.77-1.21
						c-0.27-0.23-0.56-0.48-0.82-0.82c-0.25-0.33-0.51-0.78-0.51-1.37c-0.01-0.6,0.35-1.13,0.63-1.42c0.3-0.32,0.53-0.52,0.8-0.77
						c0.53-0.48,1.08-0.93,1.66-1.35c1.16-0.83,2.41-1.54,3.72-2.14l-0.65,1.21c-0.43-2.18-0.91-4.3-1.58-6.3
						c-0.69-1.99-1.68-3.82-3.09-5.29c-1.41-1.46-3.23-2.49-5.29-2.65C-433.52,312.68-435.74,313.25-437.34,314.85z"/>
				</g>
			</g>
			<path class="st5" d="M-420.64,313.14c0,0-20.7-56.65,50.11-61.28c70.81-4.63,65.65,73.38,43.3,104.58
				c-14.43,20.15-53.65,33.23-78.98,19.61c-25.33-13.62-23.69-29.14-23.15-40.58C-428.81,324.03-420.64,313.14-420.64,313.14z"/>
			<g>
				<path class="st2" d="M-423.08,301.42c0.9,3.78,1.96,7.48,3.31,11.07l0.12,0.33l-0.23,0.33c-1.94,2.8-3.59,5.79-4.93,8.9
					c-1.34,3.12-2.39,6.36-3.08,9.67c-0.71,3.31-1.09,6.7-1.08,10.11c-0.01,3.41,0.4,6.83,1.2,10.21
					c-1.43-3.17-2.24-6.64-2.55-10.15c-0.3-3.51-0.09-7.07,0.55-10.55c0.66-3.47,1.72-6.87,3.2-10.08c1.47-3.21,3.33-6.25,5.55-8.98
					l-0.11,0.66C-422.22,309.18-422.91,305.31-423.08,301.42z"/>
			</g>
			<g>
				<g>
					<path class="st2" d="M-356.31,294.4c-0.33-0.03-0.66-0.05-1-0.05c-6.68,0-12.1,5.81-12.1,12.98c0,7.17,5.42,12.98,12.1,12.98
						c0.29,0,0.58-0.03,0.86-0.05C-353.74,311.93-353.69,302.75-356.31,294.4z"/>
					<path class="st6" d="M-345.21,307.32c0-6.81-4.88-12.38-11.1-12.93c2.62,8.36,2.57,17.53-0.14,25.86
						C-350.17,319.78-345.21,314.18-345.21,307.32z"/>
				</g>
				<path class="st6" d="M-351.33,307.54c0,1.64-1.33,2.97-2.97,2.97c-1.64,0-2.97-1.33-2.97-2.97c0-1.64,1.33-2.97,2.97-2.97
					C-352.66,304.57-351.33,305.9-351.33,307.54z"/>
				<g>
					<path class="st2" d="M-345.21,307.32c-0.2-3.28-1.48-6.44-3.69-8.75c-2.19-2.31-5.26-3.72-8.41-3.73
						c-3.16-0.03-6.23,1.41-8.41,3.73c-2.2,2.31-3.48,5.47-3.69,8.75c-0.11-1.64,0.13-3.31,0.64-4.91c0.54-1.58,1.38-3.07,2.47-4.36
						c2.17-2.59,5.54-4.23,8.98-4.21c1.71,0.04,3.42,0.4,4.97,1.14c1.54,0.74,2.93,1.78,4.02,3.08c1.1,1.28,1.95,2.77,2.48,4.36
						C-345.34,304.01-345.1,305.68-345.21,307.32z"/>
				</g>
			</g>
			<g>
				<g>
					<path class="st2" d="M-401.47,294.4c-0.33-0.03-0.66-0.05-1-0.05c-6.68,0-12.1,5.81-12.1,12.98c0,7.17,5.42,12.98,12.1,12.98
						c0.29,0,0.58-0.03,0.86-0.05C-398.91,311.93-398.85,302.75-401.47,294.4z"/>
					<path class="st6" d="M-390.37,307.32c0-6.81-4.88-12.38-11.1-12.93c2.62,8.36,2.57,17.53-0.14,25.86
						C-395.33,319.78-390.37,314.18-390.37,307.32z"/>
				</g>
				<path class="st6" d="M-396.49,307.54c0,1.64-1.33,2.97-2.97,2.97c-1.64,0-2.97-1.33-2.97-2.97c0-1.64,1.33-2.97,2.97-2.97
					C-397.82,304.57-396.49,305.9-396.49,307.54z"/>
				<g>
					<path class="st2" d="M-390.37,307.32c-0.2-3.28-1.48-6.44-3.69-8.75c-2.19-2.31-5.26-3.72-8.41-3.73
						c-3.16-0.03-6.23,1.41-8.41,3.73c-2.2,2.31-3.48,5.47-3.69,8.75c-0.11-1.64,0.13-3.31,0.64-4.91c0.54-1.58,1.38-3.07,2.47-4.36
						c2.17-2.59,5.54-4.23,8.98-4.21c1.71,0.04,3.42,0.4,4.97,1.14c1.54,0.74,2.93,1.78,4.02,3.08c1.1,1.28,1.94,2.77,2.48,4.36
						C-390.5,304.01-390.26,305.68-390.37,307.32z"/>
				</g>
			</g>
			<g>
				<path class="st2" d="M-418.85,297.44c1.23-2.62,2.97-5.01,4.99-7.17c2.05-2.13,4.43-3.97,7.05-5.43
					c0.66-0.35,1.33-0.7,1.99-1.08l2.05-0.98c0.71-0.27,1.43-0.52,2.16-0.74c0.74-0.17,1.49-0.29,2.25-0.41
					c0.76-0.05,1.52-0.09,2.28-0.1c0.76,0.04,1.52,0.09,2.27,0.19c0.75,0.13,1.5,0.31,2.23,0.49c0.73,0.26,1.44,0.52,2.12,0.88
					l-0.05,0.4c-0.74,0.25-1.45,0.4-2.14,0.56c-0.7,0.19-1.38,0.36-2.05,0.49c-0.67,0.21-1.33,0.36-1.99,0.51
					c-0.65,0.2-1.3,0.36-1.95,0.52c-0.64,0.19-1.28,0.37-1.93,0.51c-0.64,0.18-1.29,0.33-1.95,0.46l-1.96,0.5
					c-0.64,0.21-1.28,0.44-1.92,0.67c-2.51,1.04-4.91,2.39-7.13,4.05c-2.24,1.63-4.23,3.63-5.98,5.88L-418.85,297.44z"/>
			</g>
			<g>
				<path class="st2" d="M-339.91,295.76c-1.75-2.25-3.74-4.25-5.98-5.88c-2.22-1.66-4.62-3.01-7.13-4.05
					c-0.64-0.23-1.28-0.46-1.92-0.67l-1.96-0.5c-0.66-0.13-1.31-0.28-1.95-0.46c-0.65-0.14-1.29-0.32-1.93-0.51
					c-0.65-0.16-1.3-0.33-1.95-0.52c-0.66-0.15-1.32-0.3-1.99-0.51c-0.67-0.13-1.35-0.31-2.05-0.49c-0.7-0.16-1.4-0.31-2.14-0.56
					l-0.05-0.4c0.68-0.35,1.4-0.61,2.12-0.88c0.73-0.19,1.47-0.36,2.23-0.49c0.75-0.1,1.51-0.15,2.27-0.19
					c0.76,0.01,1.52,0.05,2.28,0.1c0.75,0.11,1.5,0.24,2.25,0.41c0.73,0.22,1.45,0.47,2.16,0.74l2.05,0.98
					c0.66,0.37,1.32,0.73,1.99,1.08c2.62,1.46,5.01,3.3,7.05,5.43c2.02,2.15,3.76,4.55,4.99,7.17L-339.91,295.76z"/>
			</g>
			<ellipse class="st7" cx="-357.29" cy="332.86" rx="11.89" ry="7.55"/>
			<ellipse class="st7" cx="-410.98" cy="330.35" rx="11.89" ry="7.55"/>
			<path class="st2" d="M-336.91,326.35c5.92,0.72,11.97,0.41,17.78-0.89c1.58-0.36,3.17-0.79,4.57-1.61
				c1.83-1.07,3.24-2.75,4.42-4.51c5.29-7.96,6.32-18.01,6.01-27.57c-0.19-5.79-1.36-12.46-6.41-15.31
				c-3.25-1.83-7.27-1.52-10.93-0.81c-4,0.77-8.2,2.13-11.29,4.89c-3.94,3.52-3.4,6.42-3.29,11.43
				C-335.77,303.43-336.06,314.91-336.91,326.35z"/>
			<g>
				<path class="st2" d="M-396.88,341.07c1.76,2.29,3.65,4.43,5.92,5.92c2.26,1.46,4.91,2.32,7.47,1.97
					c2.58-0.31,5.02-1.66,7.13-3.4c2.12-1.77,3.96-3.97,5.95-6.07c-1.31,2.57-2.8,5.08-4.89,7.22c-2.07,2.13-4.8,3.82-7.95,4.24
					c-1.57,0.18-3.18,0-4.64-0.49c-1.46-0.51-2.83-1.25-3.99-2.22C-394.24,346.33-395.85,343.76-396.88,341.07z"/>
			</g>
			<g>
				<path class="st5" d="M-302.42,323.14c0.32,4.84-1.3,9.68-3.98,13.58c-1.82,2.65-4.17,4.95-6.99,6.26
					c-2.82,1.32-6.14,1.59-9.01,0.34c-2.62-1.14-4.7-3.44-6.12-6.05c-3.28-6.04-3.2-13.78-0.47-20.08c1.9-4.38,5.21-8.28,9.54-9.64
					C-310.7,304.8-302.98,314.57-302.42,323.14z"/>
				<path class="st5" d="M-325.19,337.63c2.13-0.52,4.09-1.64,5.58-3.18c0.45-0.47,0.89-1.09,0.69-1.73
					c-0.11-0.36-0.41-0.63-0.69-0.88c-1.7-1.48-3.65-2.69-5.73-3.56c0.56-2.89,1.12-5.81,2.41-8.43c1.29-2.62,3.41-4.95,6.24-5.88
					c2.83-0.93,6.4-0.15,8.24,2.28c0,0,6.02,6.89-0.98,16.89C-316.81,343.68-325.19,337.63-325.19,337.63z"/>
				<g>
					<path class="st2" d="M-308.44,316.25c-1.6-1.59-3.82-2.17-5.86-2c-2.06,0.16-3.88,1.19-5.29,2.65c-1.41,1.47-2.4,3.3-3.09,5.29
						c-0.67,2-1.15,4.12-1.58,6.3l-0.65-1.21c1.31,0.59,2.56,1.31,3.72,2.14c0.58,0.42,1.13,0.88,1.66,1.35
						c0.27,0.25,0.51,0.45,0.8,0.77c0.28,0.29,0.64,0.82,0.63,1.42c0,0.59-0.26,1.04-0.51,1.37c-0.26,0.34-0.55,0.59-0.82,0.82
						c-0.55,0.47-1.15,0.86-1.77,1.21c-1.24,0.69-2.61,1.11-3.98,1.26c1.28-0.5,2.45-1.19,3.48-2.01c0.51-0.41,0.98-0.88,1.41-1.35
						c0.45-0.46,0.76-1.02,0.67-1.24c-0.03-0.09-0.08-0.18-0.28-0.36c-0.19-0.16-0.48-0.39-0.74-0.57
						c-0.53-0.39-1.07-0.75-1.63-1.09c-1.1-0.69-2.27-1.27-3.48-1.73l-0.82-0.31l0.17-0.9c0.41-2.18,0.77-4.45,1.6-6.64
						c0.41-1.1,0.9-2.18,1.53-3.2c0.65-1.01,1.41-1.95,2.31-2.76c1.77-1.62,4.23-2.69,6.66-2.51
						C-311.93,313.07-309.56,314.26-308.44,316.25z"/>
				</g>
			</g>
			<path class="st2" d="M-429.07,284.72c5.09,0.57,10.39-0.87,14.48-3.95s6.96-7.76,7.82-12.81c3.52,4.28,10.03,7.41,14.94,4.83
				c4.9-2.58,8.13-7.56,10.07-12.75c2.41,3.84,5.51,7.9,9.86,9.17c4.35,1.27,9.55,0.13,12.34-3.44c0.57,4.33,3.21,8.78,7,10.96
				c3.79,2.18,8.61,2.47,12.63,0.77c2.78,7.55,10.64,13.22,18.55,11.72c6.54-11.2,4.14-24.88-5.07-34.01
				c-9.22-9.13-22.6-12.93-35.56-13.44c-17.43-0.69-35.04,4.07-49.75,13.46c-4.83,3.08-9.42,6.73-12.65,11.46
				C-427.63,271.43-430.31,279.12-429.07,284.72z"/>
			<g>
				<path class="st2" d="M-381.45,295.03c0.26,2.94,0.14,5.92-0.26,8.86c-0.41,2.94-1.11,5.85-2.09,8.67
					c-0.99,2.81-2.21,5.55-3.72,8.13c-1.48,2.59-3.23,5.03-5.2,7.27l-0.13-1.13c1.55,1.29,3.16,2.53,4.82,3.69
					c1.66,1.18,3.39,2.26,5.14,3.34c-1.95-0.66-3.84-1.52-5.67-2.48c-1.83-0.98-3.59-2.07-5.28-3.29l-0.64-0.46l0.51-0.67
					c1.75-2.3,3.31-4.72,4.73-7.23c1.38-2.52,2.63-5.12,3.66-7.81c1.04-2.68,1.9-5.45,2.58-8.27
					C-382.3,300.83-381.81,297.95-381.45,295.03z"/>
			</g>
			<g class="st10">
				<g>
					<path class="st6" d="M-348.42,237.94c1.73-0.98,3.85-1.18,5.82-0.82c1.98,0.39,3.85,1.32,5.39,2.66
						c1.54,1.34,2.69,3.06,3.57,4.87c0.87,1.82,1.49,3.75,1.87,5.71l-0.56-0.39c1.88-0.29,3.82,0,5.54,0.71
						c1.73,0.71,3.28,1.79,4.58,3.09c2.64,2.62,3.96,6.46,3.46,10.05c0.1-3.6-1.4-7.15-3.97-9.51c-1.31-1.17-2.78-2.17-4.4-2.8
						c-1.61-0.63-3.37-0.86-5.06-0.57l-0.46,0.08l-0.1-0.47c-0.4-1.89-0.92-3.77-1.73-5.51c-0.8-1.75-1.9-3.35-3.27-4.68
						c-1.37-1.32-3.1-2.28-4.97-2.75C-344.56,237.12-346.6,237.17-348.42,237.94z"/>
				</g>
				<g>
					<path class="st6" d="M-339.55,266.63c2.1-0.75,4.47-0.73,6.65-0.1c2.18,0.64,4.2,1.84,5.79,3.51c1.56,1.68,2.68,3.75,3.33,5.94
						c0.67,2.19,0.85,4.51,0.59,6.78l-0.4-0.51c1.69,0.27,3.2,1.13,4.44,2.2c1.26,1.07,2.25,2.38,3.12,3.73
						c0.88,1.38,1.47,2.94,1.69,4.55c0.22,1.6,0.13,3.25-0.33,4.77c0.28-1.57,0.27-3.17-0.07-4.7c-0.34-1.52-0.94-2.99-1.84-4.25
						c-0.9-1.28-1.94-2.46-3.12-3.45c-1.18-0.98-2.55-1.72-4.03-1.93l-0.44-0.06l0.04-0.45c0.2-2.15,0-4.34-0.57-6.42
						c-0.59-2.07-1.6-4.03-3.04-5.63c-1.41-1.61-3.27-2.86-5.33-3.57C-335.12,266.31-337.38,266.12-339.55,266.63z"/>
				</g>
				<g>
					<path class="st6" d="M-384.15,249.79c0.72-1.87,2.26-3.38,4.07-4.3c1.82-0.9,3.94-1.26,5.99-0.92
						c2.04,0.36,3.95,1.35,5.47,2.74c1.53,1.38,2.72,3.13,3.44,5.07l-0.78-0.19c1.24-1.09,2.74-1.89,4.35-2.26
						c1.6-0.39,3.32-0.34,4.88,0.19c3.12,1.03,5.55,3.76,6.2,6.86c-0.99-3-3.49-5.36-6.4-6.19c-2.93-0.81-6.15,0.14-8.38,2.13
						l-0.53,0.47l-0.26-0.67c-0.69-1.78-1.77-3.4-3.17-4.7c-1.4-1.29-3.11-2.26-4.97-2.64c-1.85-0.41-3.85-0.18-5.62,0.58
						C-381.63,246.71-383.21,248.03-384.15,249.79z"/>
				</g>
				<g>
					<path class="st6" d="M-404.08,236.32c1.19-0.82,2.55-1.39,3.95-1.79c1.41-0.37,2.89-0.54,4.36-0.51
						c2.95,0.06,5.9,1.01,8.32,2.76l-0.7,0.11c0.83-1.13,1.56-2.38,2.52-3.53c0.95-1.14,2.25-2.11,3.7-2.52
						c1.43-0.44,2.94-0.56,4.4-0.32c1.44,0.27,2.85,0.92,3.83,1.99c-1.13-0.89-2.5-1.4-3.9-1.5c-1.39-0.14-2.8,0.06-4.08,0.56
						c-1.29,0.48-2.37,1.31-3.22,2.4c-0.87,1.07-1.58,2.32-2.43,3.51l-0.29,0.41l-0.41-0.3c-2.24-1.64-4.98-2.56-7.77-2.8
						c-1.4-0.12-2.82-0.05-4.21,0.22C-401.42,235.23-402.78,235.7-404.08,236.32z"/>
				</g>
				<g>
					<path class="st6" d="M-423.95,250.44c1.41-0.54,2.91-0.89,4.43-1.05c1.53-0.12,3.1-0.02,4.6,0.4c1.51,0.44,2.92,1.23,4.07,2.32
						c1.14,1.09,2.05,2.5,2.4,4.09l-0.59-0.37c1.32-0.3,2.72-0.29,4.02,0.06c1.31,0.33,2.52,0.94,3.58,1.74
						c2.12,1.58,3.68,3.8,4.52,6.23c-1.19-2.27-2.86-4.26-4.94-5.64c-1.04-0.67-2.18-1.18-3.37-1.44c-1.19-0.26-2.42-0.26-3.6,0.02
						l-0.47,0.11l-0.12-0.48c-0.33-1.36-1.08-2.62-2.11-3.62c-1.02-1-2.28-1.77-3.65-2.24c-1.37-0.49-2.85-0.68-4.34-0.66
						C-420.98,249.9-422.47,250.13-423.95,250.44z"/>
				</g>
				<g>
					<path class="st6" d="M-433.95,269.51c1.66-0.98,3.79-1.15,5.7-0.58c1.91,0.56,3.66,1.84,4.64,3.63l-0.55-0.23
						c1.3-0.36,2.73-0.36,4.01,0.09c1.28,0.45,2.35,1.31,3.12,2.34c-1-0.81-2.12-1.42-3.31-1.67c-1.18-0.27-2.41-0.18-3.56,0.18
						l-0.36,0.11l-0.2-0.33c-0.9-1.52-2.39-2.66-4.07-3.3C-430.2,269.12-432.11,268.97-433.95,269.51z"/>
				</g>
			</g>
		</g>
	</g>
	<g>
		
			<ellipse transform="matrix(0.7071 -0.7071 0.7071 0.7071 -97.6551 247.5568)" class="st14" cx="250" cy="241.66" rx="238.22" ry="238.22"/>
		<g>
			<g>
				<path class="st2" d="M291.23,331.1l-69.28,17.7c0,0,2.52,18.69-1.51,34.86c26.14-4.85,51.37-14.54,74.02-28.45
					C292.02,343.18,291.23,331.1,291.23,331.1z"/>
				<path class="st3" d="M259.87,444.37c37.46-2.76,56.47-37.81,63.03-53.11c-9.44-6.73-16.55-11.79-19.03-13.65
					c-4.48-3.36-7.47-12.87-9.41-22.42c-22.65,13.91-47.89,23.6-74.02,28.45c0,0.01,0,0.02-0.01,0.03
					c-1.33,5.31-9.33,12.71-20.01,20.86C205.93,417.72,222.48,447.13,259.87,444.37z"/>
				<path class="st2" d="M410.57,457.02c-7.25-8.4-58.59-45.03-87.67-65.75c-6.56,15.3-25.57,50.35-63.03,53.11
					c-37.39,2.76-53.95-26.65-59.45-39.83c-21.84,16.67-54.93,36.54-65.46,48.42c-15.68,17.7-21.75,47.03-21.75,47.03h158.29h154.75
					C426.25,500,420.18,468.14,410.57,457.02z"/>
			</g>
			<path class="st2" d="M122.45,175.73c1.38,13.69,4.04,28.02,11.49,36.57c1.54,1.77,3.49,3.3,5.52,2.65
				c1.7-0.55,3.03-2.5,4.11-4.47c4.42-8.08,6.55-18.08,7.67-27.92c1.95-17.09,1.13-34.52-2.36-50.6c-1.03-4.75-2.34-9.49-4.66-13.13
				c-6.36-9.96-18.09-3.23-22.03,8.54C117.81,140.46,121.13,162.56,122.45,175.73z"/>
			<g>
				<path class="st3" d="M88.14,225.4c-0.72,10.87,2.92,21.73,8.94,30.49c4.09,5.95,9.36,11.1,15.69,14.06
					c6.33,2.96,13.79,3.56,20.22,0.77c5.89-2.55,10.55-7.72,13.73-13.59c7.36-13.55,7.19-30.94,1.06-45.09
					c-4.26-9.83-11.69-18.6-21.43-21.65C106.72,184.23,89.41,206.17,88.14,225.4z"/>
				<path class="st3" d="M139.25,257.94c-4.79-1.17-9.18-3.67-12.54-7.14c-1.02-1.05-2-2.45-1.54-3.89c0.25-0.8,0.91-1.42,1.56-1.98
					c3.82-3.33,8.18-6.04,12.86-7.99c-1.25-6.48-2.52-13.04-5.42-18.92c-2.9-5.88-7.65-11.12-14-13.19
					c-6.35-2.08-14.37-0.34-18.51,5.11c0,0-13.52,15.46,2.21,37.91C120.46,271.52,139.25,257.94,139.25,257.94z"/>
				<g>
					<path class="st2" d="M101.66,209.94c0.72-1.02,1.55-1.98,2.52-2.8c0.99-0.79,2.06-1.49,3.21-2.04c2.3-1.09,4.85-1.72,7.44-1.76
						c2.58-0.07,5.22,0.42,7.6,1.47c2.4,1.01,4.6,2.48,6.49,4.26c1.9,1.77,3.52,3.82,4.88,6.01c1.34,2.21,2.4,4.57,3.27,6.96
						c1.76,4.81,2.65,9.8,3.58,14.7l0.17,0.88l-0.82,0.33c-2.78,1.12-5.45,2.5-7.97,4.14c-1.27,0.81-2.49,1.67-3.68,2.6
						c-1.17,0.95-2.5,1.85-2.54,2.88c-0.05,0.53,0.17,1.14,0.53,1.72c0.36,0.58,0.86,1.11,1.38,1.66c1.05,1.06,2.17,2.06,3.39,2.96
						c2.44,1.78,5.2,3.12,8.13,4.04c-3.02-0.54-5.95-1.7-8.62-3.31c-1.33-0.82-2.6-1.74-3.76-2.8c-0.57-0.53-1.17-1.08-1.66-1.77
						c-0.49-0.68-0.93-1.54-0.91-2.56c0.01-1.03,0.61-1.94,1.19-2.53c0.6-0.62,1.17-1.09,1.76-1.61c1.19-1.01,2.42-1.98,3.7-2.87
						c2.57-1.77,5.33-3.29,8.2-4.54l-0.65,1.21c-0.96-4.89-1.96-9.74-3.56-14.35c-1.61-4.59-3.98-8.91-7.41-12.3
						c-3.38-3.37-7.88-5.72-12.72-5.87c-2.41-0.08-4.85,0.27-7.14,1.13c-1.14,0.44-2.23,1.02-3.25,1.7
						C103.42,208.18,102.49,209,101.66,209.94z"/>
				</g>
			</g>
			<path class="st3" d="M139.15,206.1c0,0-46.47-127.17,112.5-137.57c158.97-10.39,147.38,164.74,97.21,234.78
				c-32.4,45.24-120.45,74.59-177.31,44.02c-56.86-30.57-53.19-65.42-51.97-91.1S139.15,206.1,139.15,206.1z"/>
			<g>
				<path class="st2" d="M133.67,179.81c0.79,4.28,1.68,8.53,2.8,12.72c1.1,4.19,2.35,8.34,3.77,12.42l0.12,0.34l-0.23,0.32
					c-4.54,6.24-8.36,12.98-11.46,20.03c-3.09,7.05-5.45,14.43-6.99,21.97c-1.56,7.54-2.3,15.26-2.1,22.97
					c0.18,7.71,1.32,15.43,3.54,22.89c-2.8-7.26-4.39-15.01-4.89-22.82c-0.49-7.82,0.08-15.7,1.56-23.41
					c1.5-7.7,3.88-15.23,7.11-22.38c3.22-7.15,7.26-13.94,12.08-20.11l-0.11,0.66c-1.29-4.17-2.39-8.4-3.25-12.68
					C134.78,188.44,134.08,184.14,133.67,179.81z"/>
			</g>
			<path class="st2" d="M375.9,230.6c18.83-31.49,33.19-68.26,26.5-104.33c-1.64-8.81-4.73-17.75-11.2-23.95
				c-8.57-8.22-22.07-11.22-33.94-10.65l-22.44,57.68c-2.05,16.35-3.04,33.21,1.36,49.09c4.4,15.88,15.03,30.79,30.42,36.67"/>
			<g>
				<path class="st3" d="M404.56,228.55c0.72,10.87-2.92,21.73-8.94,30.49c-4.09,5.95-9.36,11.1-15.69,14.06
					c-6.33,2.96-13.79,3.56-20.22,0.77c-5.89-2.55-10.55-7.72-13.73-13.59c-7.36-13.55-7.19-30.94-1.06-45.09
					c4.26-9.83,11.69-18.6,21.43-21.65C385.98,187.38,403.29,209.33,404.56,228.55z"/>
				<path class="st3" d="M353.45,261.09c4.79-1.17,9.18-3.67,12.54-7.14c1.02-1.05,2-2.45,1.54-3.89c-0.25-0.8-0.91-1.42-1.56-1.98
					c-3.82-3.33-8.18-6.04-12.86-7.99c1.25-6.48,2.52-13.04,5.42-18.92c2.9-5.88,7.65-11.12,14-13.19
					c6.35-2.08,14.37-0.34,18.51,5.11c0,0,13.52,15.46-2.21,37.91C372.24,274.68,353.45,261.09,353.45,261.09z"/>
				<g>
					<path class="st2" d="M391.04,213.09c-0.83-0.94-1.76-1.76-2.77-2.47c-1.02-0.68-2.11-1.27-3.25-1.7
						c-2.29-0.86-4.74-1.22-7.14-1.13c-4.85,0.15-9.34,2.49-12.72,5.87c-3.42,3.39-5.79,7.71-7.41,12.3
						c-1.6,4.61-2.61,9.46-3.56,14.35l-0.65-1.21c2.88,1.25,5.63,2.77,8.2,4.54c1.28,0.89,2.52,1.85,3.7,2.87
						c0.6,0.52,1.16,0.99,1.76,1.61c0.58,0.59,1.18,1.5,1.19,2.53c0.02,1.02-0.42,1.88-0.91,2.56c-0.49,0.7-1.09,1.25-1.66,1.77
						c-1.16,1.06-2.43,1.98-3.76,2.8c-2.67,1.61-5.59,2.77-8.62,3.31c2.93-0.92,5.7-2.26,8.13-4.04c1.22-0.89,2.34-1.89,3.39-2.96
						c0.52-0.55,1.02-1.08,1.38-1.66c0.37-0.58,0.59-1.19,0.53-1.72c-0.04-1.03-1.37-1.93-2.54-2.88c-1.18-0.93-2.41-1.8-3.68-2.6
						c-2.52-1.64-5.19-3.02-7.97-4.14l-0.82-0.33l0.17-0.88c0.93-4.9,1.82-9.89,3.58-14.7c0.87-2.4,1.93-4.75,3.27-6.96
						c1.36-2.19,2.98-4.24,4.88-6.01c1.89-1.78,4.09-3.25,6.49-4.26c2.38-1.04,5.03-1.54,7.6-1.47c2.59,0.04,5.14,0.67,7.44,1.76
						c1.15,0.56,2.22,1.25,3.21,2.04C389.49,211.11,390.32,212.07,391.04,213.09z"/>
				</g>
			</g>
			<g>
				<path class="st2" d="M395.94,118.63c-8.12,3.33-15.62,8.08-22.08,13.96c-6.45,5.88-11.91,12.86-15.87,20.63
					c-4.03,7.74-6.53,16.23-7.57,24.9c-0.53,4.33-0.66,8.72-0.41,13.09c0.22,4.37,0.87,8.72,1.87,12.99
					c-1.22-4.22-1.97-8.57-2.36-12.96c-0.35-4.39-0.3-8.82,0.13-13.21c0.89-8.78,3.44-17.4,7.45-25.27
					c4.08-7.84,9.62-14.92,16.25-20.74c3.32-2.91,6.89-5.52,10.67-7.78C387.82,122,391.8,120.09,395.94,118.63z"/>
			</g>
			<g>
				<path class="st2" d="M401.06,136.24c-4.22,3.56-7.98,7.63-11.15,12.1c-3.17,4.47-5.83,9.31-7.79,14.43
					c-2.04,5.09-3.39,10.44-4.1,15.87l-0.41,4.09l-0.14,4.12l0.11,4.12l0.38,4.12l-0.64-4.09l-0.33-4.14l-0.01-4.16l0.28-4.15
					c0.57-5.53,1.94-10.96,3.94-16.15c2.07-5.16,4.75-10.08,8.1-14.51l2.62-3.23l2.83-3.04l3.06-2.81L401.06,136.24z"/>
			</g>
			<g>
				<g>
					<path class="st2" d="M184.18,163.18c-0.74-0.07-1.49-0.12-2.25-0.12c-15,0-27.16,13.05-27.16,29.14
						c0,16.09,12.16,29.14,27.16,29.14c0.66,0,1.3-0.06,1.94-0.11C189.94,202.54,190.07,181.94,184.18,163.18z"/>
					<path class="st6" d="M209.09,192.2c0-15.28-10.97-27.79-24.91-29.02c5.89,18.76,5.76,39.36-0.31,58.05
						C197.97,220.16,209.09,207.59,209.09,192.2z"/>
				</g>
				<path class="st6" d="M195.36,192.69c0,3.69-2.99,6.68-6.68,6.68c-3.69,0-6.68-2.99-6.68-6.68c0-3.69,2.99-6.68,6.68-6.68
					C192.37,186.01,195.36,189,195.36,192.69z"/>
				<g>
					<path class="st2" d="M209.09,192.2c-0.18-7.36-2.96-14.63-7.93-19.96c-2.48-2.65-5.43-4.87-8.73-6.36
						c-3.29-1.52-6.9-2.25-10.51-2.31c-3.62-0.02-7.23,0.77-10.52,2.28c-3.3,1.5-6.24,3.73-8.71,6.39
						c-4.94,5.35-7.71,12.6-7.92,19.97c-0.1-3.69,0.5-7.4,1.73-10.91c1.25-3.5,3.16-6.77,5.62-9.58c4.89-5.64,12.26-9.18,19.81-9.16
						c3.75,0.09,7.5,0.89,10.89,2.49c3.39,1.58,6.46,3.87,8.92,6.68c2.47,2.8,4.39,6.07,5.65,9.56
						C208.61,184.79,209.2,188.51,209.09,192.2z"/>
				</g>
			</g>
			<g>
				<g>
					<path class="st2" d="M283.58,164.03c-0.74-0.07-1.49-0.12-2.25-0.12c-15,0-27.16,13.05-27.16,29.14
						c0,16.09,12.16,29.14,27.16,29.14c0.66,0,1.3-0.06,1.94-0.11C289.33,203.39,289.46,182.79,283.58,164.03z"/>
					<path class="st6" d="M308.49,193.05c0-15.28-10.97-27.79-24.91-29.02c5.89,18.76,5.76,39.36-0.31,58.05
						C297.36,221.01,308.49,208.44,308.49,193.05z"/>
				</g>
				<path class="st6" d="M294.75,193.54c0,3.69-2.99,6.68-6.68,6.68c-3.69,0-6.68-2.99-6.68-6.68s2.99-6.68,6.68-6.68
					C291.76,186.86,294.75,189.85,294.75,193.54z"/>
				<g>
					<path class="st2" d="M308.49,193.05c-0.18-7.36-2.96-14.63-7.93-19.96c-2.48-2.65-5.43-4.87-8.73-6.36
						c-3.29-1.52-6.9-2.25-10.51-2.31c-3.62-0.02-7.23,0.77-10.52,2.28c-3.3,1.5-6.24,3.73-8.71,6.39
						c-4.94,5.35-7.71,12.6-7.92,19.97c-0.1-3.69,0.5-7.4,1.73-10.91c1.25-3.5,3.16-6.77,5.62-9.58c4.89-5.64,12.26-9.18,19.81-9.16
						c3.75,0.09,7.5,0.89,10.89,2.49c3.39,1.58,6.46,3.87,8.92,6.68c2.47,2.8,4.39,6.07,5.65,9.56
						C308,185.65,308.59,189.37,308.49,193.05z"/>
				</g>
			</g>
			<g>
				<path class="st2" d="M229.58,169.16c-0.13,7-0.91,14.01-2.3,20.9c-1.39,6.89-3.38,13.67-5.92,20.24
					c-2.55,6.56-5.61,12.94-9.22,18.99c-3.59,6.07-7.7,11.82-12.27,17.17l-0.27-1.25c4.55,2.33,8.98,4.81,13.5,7.11
					c2.26,1.16,4.53,2.28,6.85,3.31c2.32,1.02,4.69,1.96,7.09,2.8c-2.47-0.61-4.91-1.39-7.3-2.27c-2.4-0.88-4.76-1.85-7.09-2.9
					c-4.66-2.09-9.2-4.41-13.78-6.59l-0.92-0.44l0.66-0.81c4.37-5.41,8.31-11.15,11.83-17.13c3.49-6,6.59-12.23,9.18-18.68
					c2.61-6.44,4.74-13.07,6.41-19.83C227.68,183.02,228.87,176.13,229.58,169.16z"/>
			</g>
			<g>
				<path class="st2" d="M143.39,171c3.08-5.65,7.15-10.78,11.82-15.29c4.72-4.47,10.09-8.28,15.88-11.33l4.42-2.16l4.55-1.9
					c1.56-0.52,3.13-1.02,4.71-1.49c1.61-0.36,3.23-0.67,4.85-0.98l4.92-0.48c1.65-0.01,3.29-0.05,4.93,0
					c1.64,0.13,3.27,0.31,4.89,0.49c1.61,0.33,3.21,0.66,4.78,1.08l-0.05,0.4c-1.62,0.18-3.22,0.27-4.8,0.36
					c-1.58,0.19-3.15,0.36-4.71,0.49c-1.56,0.28-3.1,0.47-4.65,0.7l-4.58,0.91c-1.51,0.38-3.02,0.75-4.53,1.08
					c-1.49,0.43-2.99,0.83-4.5,1.21l-4.46,1.42l-4.35,1.75c-5.71,2.56-11.11,5.91-15.96,9.95c-4.9,3.99-9.21,8.73-12.81,14
					L143.39,171z"/>
			</g>
			<g>
				<path class="st2" d="M320.6,166.97c-3.6-5.27-7.92-10.01-12.81-14c-4.85-4.04-10.24-7.38-15.96-9.95l-4.35-1.75l-4.46-1.42
					c-1.51-0.38-3.01-0.78-4.5-1.21c-1.52-0.33-3.02-0.7-4.53-1.08l-4.58-0.91c-1.54-0.23-3.09-0.43-4.65-0.7
					c-1.56-0.13-3.13-0.31-4.71-0.49c-1.58-0.09-3.17-0.17-4.8-0.36l-0.05-0.4c1.57-0.42,3.17-0.75,4.78-1.08
					c1.62-0.19,3.25-0.36,4.89-0.49c1.64-0.04,3.28,0,4.93,0l4.92,0.48c1.62,0.3,3.24,0.62,4.85,0.98c1.58,0.47,3.15,0.97,4.71,1.49
					l4.55,1.9l4.42,2.16c5.79,3.05,11.16,6.87,15.88,11.33c4.67,4.51,8.74,9.64,11.82,15.29L320.6,166.97z"/>
			</g>
			<g>
				<path class="st5" d="M203.36,294.13c4.29,3.81,9.23,6.4,14.58,5.95c8.8-0.73,17.47-8.18,23.94-15.45
					c-7.01,0.36-14.01,0.99-20.84,2.55C214.85,288.59,208.76,290.84,203.36,294.13z"/>
				<path class="st2" d="M216.96,278.57c-17.6-0.98-29.82-8.31-29.82-8.31s6.4,15.15,16.22,23.86c5.4-3.29,11.49-5.54,17.68-6.95
					c6.84-1.56,13.83-2.18,20.84-2.55c6.48-7.27,10.76-14.36,10.76-14.36S234.56,279.55,216.96,278.57z"/>
			</g>
			<ellipse class="st7" cx="281.38" cy="250.38" rx="26.68" ry="16.95"/>
			<ellipse class="st7" cx="160.84" cy="244.73" rx="26.68" ry="16.95"/>
			<path class="st2" d="M343.84,36.43c-1-0.59-2.24-1.17-3.33-0.73c-1.18,0.49-1.48,1.89-1.55,3.08c-0.28,4.92,0.65,9.9,2.71,14.44
				c-2.23-5.16-7.94-8.2-13.34-10.69c-10.12-4.67-20.54-8.82-31.17-12.4c-18.29-6.17-38.69-10.65-57-4.54
				c-2.57,0.86-5.2,2.02-6.67,4.14c-3.16,4.55,0.54,10.38,4.11,14.66c-4.44-4.38-11.6-5.09-18.11-5.22
				c-15.42-0.3-30.88,1.14-45.93,4.28c-10.58,2.21-21.2,5.38-29.7,11.58c-4.36,3.18-8.24,7.43-8.94,12.51
				c-0.7,5.08,2.87,10.85,8.39,11.44c-7.54-0.77-14.45,3.77-19.93,8.59c-11.55,10.14-20.63,22.65-26.38,36.35
				c-1.64,3.91-3.01,8.33-1.32,12.22c1.64,3.77,5.94,6.18,10.32,6.7s8.81-0.57,12.89-2.13c12.64-4.85,22.62-14.03,32.24-22.99
				c-4.29,1.64-5.64,7.2-3.36,10.91c2.29,3.72,7.2,5.57,11.84,5.51c4.64-0.06,9.08-1.72,13.24-3.62
				c18.4-8.38,33.62-21.54,48.54-34.51c-1.04,6.2-1.81,13.34,2.78,17.99c4.58,4.65,12.58,4.63,19.14,2.91
				c11.88-3.12,22.26-10.78,28.15-20.77c0.31,7.91,3.35,16.08,9.94,21.17c6.59,5.09,17.11,6.17,23.76,1.14
				c7.64-5.78,7.59-16.35,6.89-25.43c5.82,16.64,17.08,31.63,31.93,42.52c8.56,6.27,19.58,11.38,30.16,8.76
				c5.49-1.36,10.15-4.64,14.47-8.04c7.06-5.55,13.89-11.94,16.71-20.07c4.98-14.34-4.04-30.01-16.47-39.79
				c5.26-0.78,10.66,0.73,15.94,0.07c5.28-0.66,10.8-5.21,8.9-9.79c-1.31-3.16-5.35-4.45-8.95-5.12c-6.62-1.23-13.43-1.62-20.17-1.2
				c-5.23,0.33-17.17,0.44-17.17,0.44s-6.21-8.97-8.91-12.11C354.41,43.91,349.43,39.74,343.84,36.43z"/>
			<g class="st10">
				<g>
					<path class="st6" d="M163.1,70.65c-2.11,3.44-4.21,6.91-5.7,10.65c-1.48,3.71-2.33,7.77-1.67,11.71l-0.27-0.25
						c2.21,0.16,4.44-0.27,6.51-1.08c2.07-0.82,4.02-1.96,5.85-3.26c3.66-2.61,7.08-5.6,10.34-8.73c3.26-3.13,6.38-6.42,9.5-9.72
						l9.39-9.86l1.72-1.8l-0.94,2.31c-1.83,4.51-3.32,9.15-4.45,13.89c-0.28,1.19-0.58,2.36-0.65,3.53
						c-0.07,1.16,0.14,2.31,0.81,3.21c0.66,0.91,1.67,1.55,2.78,1.89c1.11,0.35,2.29,0.37,3.45,0.15c2.33-0.44,4.47-1.69,6.55-2.93
						c2.07-1.27,4.07-2.67,5.97-4.19c3.8-3.05,7.18-6.62,10.08-10.55c-2.74,4.05-6.07,7.71-9.81,10.88
						c-1.87,1.59-3.86,3.03-5.94,4.35c-2.07,1.28-4.22,2.61-6.72,3.13c-2.45,0.54-5.36-0.1-7.01-2.24
						c-0.82-1.07-1.09-2.47-1.01-3.73c0.07-1.28,0.38-2.49,0.65-3.68c1.12-4.78,2.59-9.48,4.41-14.04l0.78,0.5l-9.37,9.88
						c-3.14,3.28-6.28,6.57-9.58,9.7c-3.3,3.13-6.74,6.14-10.5,8.75c-1.89,1.29-3.91,2.43-6.07,3.25c-2.16,0.81-4.5,1.23-6.82,1.02
						l-0.24-0.02l-0.03-0.23c-0.3-2.03-0.23-4.11,0.13-6.12c0.36-2.01,1.01-3.95,1.81-5.82C158.68,77.43,160.86,74,163.1,70.65z"/>
				</g>
				<g>
					<path class="st6" d="M255.42,50.39c-0.81,4.56-1.09,9.21-0.72,13.82c0.17,2.3,0.43,4.6,1.16,6.76
						c0.71,2.13,1.85,4.25,3.71,5.43c1.86,1.19,4.27,1.16,6.22,0.11c1.98-1,3.61-2.68,4.95-4.49c2.71-3.68,4.67-7.92,5.73-12.36
						l0.98,0.16c-0.36,4.46-0.07,9.01,0.86,13.37c0.25,1.06,0.64,2.07,1.41,2.73c0.76,0.67,1.8,1.01,2.85,1.06
						c2.13,0.11,4.16-1.04,5.95-2.34c7.26-5.36,13.76-11.76,19.33-18.91c-5.25,7.4-11.65,13.99-18.88,19.53
						c-0.91,0.69-1.88,1.35-2.95,1.84c-1.06,0.5-2.27,0.8-3.48,0.74c-1.2-0.05-2.44-0.43-3.4-1.26c-0.98-0.84-1.44-2.06-1.71-3.18
						c-0.99-4.49-1.31-9.09-0.98-13.66l0.98,0.16c-1.11,4.57-3.16,8.9-5.97,12.67c-1.42,1.88-3.12,3.63-5.3,4.72
						c-1.08,0.53-2.3,0.89-3.54,0.85c-1.24-0.03-2.46-0.42-3.49-1.09c-2.07-1.39-3.19-3.67-3.89-5.89
						c-0.71-2.26-0.92-4.61-1.04-6.93C254,59.58,254.39,54.91,255.42,50.39z"/>
				</g>
				<g>
					<path class="st6" d="M324.68,73.44c2.78,6.68,5.98,13.16,9.56,19.42c1.81,3.12,3.62,6.25,6.03,8.89
						c1.2,1.31,2.51,2.53,4.01,3.43c1.5,0.9,3.18,1.48,4.9,1.61l-0.42,0.23c0.93-1.64,0.75-3.69,0.27-5.57
						c-0.5-1.9-1.23-3.82-1.85-5.74l-3.82-11.51l-1.22-3.67l2.07,3.27c2.26,3.57,4.53,7.14,7,10.55c2.48,3.4,5.13,6.69,8.17,9.6
						c1.51,1.45,3.13,2.81,5.02,3.65c1.86,0.84,4.06,1.08,5.99,0.36c0.96-0.35,1.81-0.98,2.44-1.8c0.63-0.81,1.05-1.79,1.29-2.8
						c0.47-2.05,0.37-4.19,0.12-6.29c0.34,2.08,0.53,4.23,0.11,6.34c-0.22,1.05-0.62,2.07-1.26,2.95c-0.63,0.88-1.53,1.59-2.54,2
						c-2.04,0.84-4.39,0.62-6.37-0.23c-2.01-0.85-3.7-2.24-5.27-3.68c-3.13-2.89-5.9-6.16-8.4-9.59c-2.51-3.43-4.81-7-7.09-10.56
						l0.85-0.41l3.85,11.5c0.61,1.93,1.32,3.81,1.84,5.82c0.25,1,0.42,2.05,0.41,3.12c-0.01,1.07-0.26,2.17-0.8,3.13l-0.14,0.25
						l-0.28-0.02c-1.88-0.15-3.7-0.8-5.29-1.77c-1.59-0.98-2.96-2.25-4.17-3.63c-2.43-2.77-4.2-5.98-5.96-9.13
						C330.2,86.83,327.19,80.22,324.68,73.44z"/>
				</g>
				<g>
					<path class="st6" d="M354.16,135.4c-0.29,2.57-0.48,5.16-0.54,7.74c-0.06,2.58,0.02,5.17,0.19,7.74
						c0.18,2.57,0.47,5.15,1.43,7.49c0.95,2.31,2.68,4.38,4.97,5.26l-0.5,0.15c2.17-3.01,3.63-6.48,4.7-10.05
						c1.07-3.58,1.74-7.27,2.44-10.96l0.98,0.12c-0.22,4.09,0.07,8.2,0.87,12.22c0.4,2.01,0.92,3.99,1.57,5.94
						c0.64,1.93,1.44,3.82,2.62,5.45c1.16,1.62,2.82,2.94,4.79,3.23c1.96,0.33,3.98-0.42,5.6-1.61c1.64-1.2,2.84-2.92,3.7-4.78
						c0.87-1.86,1.46-3.85,2.04-5.83c-0.49,2.01-0.98,4.03-1.81,5.94c-0.8,1.91-1.98,3.73-3.65,5.05c-1.65,1.29-3.8,2.15-5.97,1.84
						c-1.07-0.15-2.11-0.56-3-1.16c-0.89-0.61-1.65-1.39-2.3-2.23c-1.29-1.7-2.18-3.64-2.84-5.62c-0.67-1.97-1.22-3.99-1.64-6.03
						c-0.85-4.08-1.17-8.28-0.97-12.45l0.98,0.12c-0.68,3.7-1.41,7.42-2.52,11.05c-1.11,3.62-2.64,7.18-4.9,10.28l-0.2,0.27
						l-0.3-0.12c-2.59-1.02-4.37-3.34-5.33-5.8c-0.97-2.49-1.19-5.14-1.32-7.73c-0.13-2.6-0.1-5.2,0.05-7.79
						C353.46,140.53,353.73,137.95,354.16,135.4z"/>
				</g>
			</g>
		</g>
	</g>
</g>
</svg>
