<?xml version="1.0" encoding="utf-8"?>
<!-- Generator: Adobe Illustrator 25.0.0, SVG Export Plug-In . SVG Version: 6.00 Build 0)  -->
<svg version="1.1" xmlns="http://www.w3.org/2000/svg" xmlns:xlink="http://www.w3.org/1999/xlink" x="0px" y="0px"
	 viewBox="0 0 500 500" style="enable-background:new 0 0 500 500;" xml:space="preserve">
<style type="text/css">
	.st0{fill:#E6AA66;}
	.st1{fill:#DE8B2F;}
	.st2{fill:#000060;}
	.st3{fill:#EDAEA9;}
	.st4{fill:#6FCBBB;}
	.st5{fill:#E15672;}
	.st6{fill:#FFFFF8;}
	.st7{opacity:0.5;fill:#EDAEA9;}
	.st8{fill:#A1C762;}
	.st9{fill:#E79554;}
	.st10{opacity:0.5;}
	.st11{fill:#56B9DF;}
	.st12{fill:#BD85AD;}
	.st13{fill:#FFF9B2;}
	.st14{fill:#DF9CC1;}
</style>
<g id="BACKGROUND">
	<rect x="-140.39" y="-19.99" class="st0" width="750" height="538.2"/>
</g>
<g id="OBJECTS">
	<g>
		
			<ellipse transform="matrix(0.7071 -0.7071 0.7071 0.7071 -98.5047 245.3616)" class="st1" cx="246.93" cy="241.59" rx="238.63" ry="238.63"/>
		<g>
			<g>
				<path class="st2" d="M288.22,331.17l-69.4,17.73c0,0,2.53,18.72-1.51,34.92c26.18-4.86,51.46-14.56,74.15-28.5
					C289.01,343.28,288.22,331.17,288.22,331.17z"/>
				<path class="st3" d="M256.82,444.64c37.53-2.77,56.57-37.87,63.14-53.2c-9.46-6.74-16.58-11.81-19.07-13.67
					c-4.49-3.36-7.48-12.89-9.43-22.45c-22.69,13.94-47.97,23.64-74.15,28.5c0,0.01,0,0.02-0.01,0.03
					c-1.33,5.32-9.35,12.73-20.04,20.89C202.78,417.95,219.36,447.4,256.82,444.64z"/>
				<path class="st4" d="M407.77,457.31c-7.27-8.41-58.68-45.11-87.82-65.86c-6.57,15.33-25.61,50.43-63.14,53.2
					c-37.46,2.76-54.04-26.7-59.55-39.89c-21.87,16.7-55.02,36.6-65.57,48.5c-15.7,17.73-21.78,47.11-21.78,47.11h158.55h155.01
					C423.47,500.37,417.4,468.45,407.77,457.31z"/>
			</g>
			<path class="st5" d="M118.1,186.56c1.76,9.77,4.82,20.03,12.5,26.31c1.59,1.3,3.58,2.44,5.59,2.04c1.68-0.34,2.96-1.69,3.98-3.06
				c4.19-5.62,6.03-12.66,6.88-19.63c1.46-12.09,0.16-24.5-3.77-36.03c-1.16-3.41-2.6-6.81-5.03-9.46
				c-6.63-7.26-18.16-2.8-21.77,5.45C112.47,161.36,116.41,177.16,118.1,186.56z"/>
			<g>
				<path class="st3" d="M84.79,225.3c-0.72,10.89,2.93,21.77,8.95,30.54c4.09,5.96,9.38,11.12,15.72,14.08
					c6.34,2.96,13.81,3.57,20.26,0.78c5.9-2.55,10.57-7.73,13.76-13.62c7.37-13.58,7.2-30.99,1.06-45.16
					c-4.26-9.85-11.71-18.63-21.46-21.69C103.4,184.06,86.06,206.04,84.79,225.3z"/>
				<path class="st3" d="M135.99,257.89c-4.8-1.17-9.2-3.68-12.56-7.15c-1.02-1.05-2-2.46-1.55-3.89c0.25-0.8,0.91-1.42,1.56-1.98
					c3.82-3.33,8.2-6.05,12.88-8c-1.25-6.49-2.52-13.06-5.43-18.95c-2.9-5.89-7.66-11.13-14.02-13.22
					c-6.36-2.08-14.4-0.34-18.54,5.12c0,0-13.54,15.49,2.21,37.97C117.16,271.5,135.99,257.89,135.99,257.89z"/>
				<g>
					<path class="st2" d="M98.33,209.81c0.72-1.02,1.55-1.98,2.53-2.8c0.99-0.79,2.06-1.49,3.22-2.05c2.31-1.1,4.86-1.73,7.45-1.77
						c2.58-0.07,5.23,0.43,7.61,1.47c2.4,1.01,4.61,2.49,6.5,4.27c1.9,1.77,3.53,3.82,4.89,6.02c1.35,2.21,2.4,4.57,3.28,6.98
						c1.76,4.82,2.65,9.82,3.59,14.72l0.17,0.88l-0.82,0.33c-2.78,1.12-5.46,2.51-7.98,4.15c-1.27,0.81-2.5,1.68-3.68,2.61
						c-1.17,0.95-2.51,1.86-2.54,2.88c-0.05,0.53,0.17,1.15,0.53,1.72c0.36,0.58,0.86,1.11,1.38,1.66c1.05,1.07,2.18,2.07,3.4,2.96
						c2.44,1.79,5.21,3.12,8.15,4.04c-3.03-0.54-5.96-1.7-8.63-3.32c-1.33-0.82-2.61-1.74-3.77-2.8c-0.57-0.53-1.17-1.08-1.67-1.78
						c-0.49-0.68-0.93-1.54-0.91-2.56c0.01-1.04,0.61-1.94,1.19-2.54c0.6-0.62,1.17-1.09,1.77-1.61c1.19-1.02,2.42-1.98,3.71-2.87
						c2.58-1.78,5.33-3.3,8.22-4.55l-0.65,1.21c-0.96-4.9-1.96-9.76-3.57-14.38c-1.61-4.6-3.99-8.93-7.42-12.32
						c-3.39-3.38-7.89-5.73-12.75-5.88c-2.41-0.08-4.86,0.27-7.15,1.13c-1.14,0.44-2.23,1.02-3.26,1.71
						C100.1,208.05,99.16,208.87,98.33,209.81z"/>
				</g>
			</g>
			<path class="st3" d="M135.89,205.97c0,0-46.55-127.39,112.69-137.8c159.24-10.41,147.63,165.02,97.38,235.18
				c-32.46,45.32-120.65,74.72-177.61,44.1c-56.96-30.62-53.28-65.53-52.06-91.25C117.51,230.47,135.89,205.97,135.89,205.97z"/>
			<g>
				<path class="st2" d="M130.4,179.63c0.8,4.28,1.68,8.54,2.8,12.74c1.1,4.2,2.36,8.35,3.78,12.45l0.12,0.34l-0.23,0.32
					c-4.54,6.25-8.37,13-11.48,20.07c-3.09,7.07-5.46,14.45-7,22.01c-1.56,7.55-2.3,15.28-2.1,23.01
					c0.19,7.73,1.33,15.45,3.54,22.92c-2.81-7.27-4.39-15.04-4.9-22.86c-0.49-7.83,0.09-15.73,1.57-23.45
					c1.5-7.71,3.89-15.26,7.12-22.42c3.22-7.16,7.27-13.96,12.1-20.15l-0.11,0.66c-1.29-4.18-2.39-8.42-3.25-12.7
					C131.51,188.28,130.8,183.97,130.4,179.63z"/>
			</g>
			<path class="st5" d="M363.73,235.03c-15.42-5.89-26.06-20.83-30.48-36.74c-4.41-15.91-3.42-32.8-1.37-49.18
				c-7.34-10.29-14.59-19.24-24.62-26.93c-10.03-7.7-23.15-12.37-35.44-9.42c-21.3,5.11-32.72,30.24-53.68,36.62
				c-14.9,4.53-32.51-2.77-39.82-16.52c0.36,4.23-2.36,11.26-5,14.59c-2.39,3.02-5.23,6.04-8.98,6.92c-3.3,0.78-6.81-0.27-9.66-2.09
				c-2.86-1.82-5.17-4.36-7.44-6.87c-4.36,8.37-12.61,19.01-22.01,19.94c-8.98,0.89-16.79-6.49-20.89-14.53
				c-7.83-15.35-6.63-34.37,0.89-49.87c7.52-15.5,20.8-27.7,35.74-36.29c24.64-14.17,53.65-19.09,82.07-19.47
				c28.42-0.38,56.7,3.53,85.03,5.84c7.44,0.61,14.96,1.12,22.11,3.26c7.15,2.14,14.02,6.1,18.19,12.29
				c4.81,7.13,5.47,16.18,5.99,24.76c11.89-0.57,25.41,2.43,33.99,10.67c6.48,6.21,9.58,15.17,11.22,23.99
				c6.71,36.14-7.68,72.97-26.54,104.51"/>
			<g>
				<path class="st3" d="M401.75,228.46c0.72,10.89-2.93,21.77-8.95,30.54c-4.09,5.96-9.38,11.12-15.72,14.08
					c-6.34,2.96-13.81,3.57-20.26,0.78c-5.9-2.55-10.57-7.73-13.76-13.62c-7.37-13.58-7.2-30.99-1.06-45.16
					c4.26-9.85,11.71-18.63,21.46-21.69C383.13,187.22,400.48,209.2,401.75,228.46z"/>
				<path class="st3" d="M350.55,261.05c4.8-1.17,9.2-3.68,12.56-7.15c1.02-1.05,2-2.46,1.55-3.89c-0.25-0.8-0.91-1.42-1.56-1.98
					c-3.82-3.33-8.2-6.05-12.88-8c1.25-6.49,2.52-13.06,5.43-18.95c2.9-5.89,7.66-11.13,14.02-13.22c6.36-2.08,14.4-0.34,18.54,5.12
					c0,0,13.54,15.49-2.21,37.97C369.38,274.66,350.55,261.05,350.55,261.05z"/>
				<g>
					<path class="st2" d="M388.21,212.97c-0.83-0.94-1.77-1.77-2.77-2.47c-1.03-0.69-2.11-1.27-3.26-1.71
						c-2.29-0.87-4.74-1.22-7.15-1.13c-4.85,0.15-9.36,2.5-12.75,5.88c-3.43,3.39-5.81,7.72-7.42,12.32
						c-1.61,4.62-2.61,9.48-3.57,14.38l-0.65-1.21c2.88,1.25,5.64,2.77,8.22,4.55c1.29,0.89,2.52,1.86,3.71,2.87
						c0.6,0.52,1.16,1,1.77,1.61c0.58,0.59,1.19,1.5,1.19,2.54c0.02,1.02-0.42,1.88-0.91,2.56c-0.5,0.7-1.1,1.25-1.66,1.78
						c-1.16,1.06-2.44,1.98-3.77,2.8c-2.67,1.62-5.6,2.77-8.63,3.32c2.93-0.92,5.7-2.26,8.15-4.04c1.22-0.89,2.35-1.9,3.4-2.96
						c0.52-0.55,1.03-1.08,1.38-1.66c0.37-0.58,0.59-1.19,0.53-1.72c-0.04-1.03-1.38-1.93-2.54-2.88c-1.19-0.93-2.42-1.8-3.68-2.61
						c-2.52-1.64-5.2-3.03-7.98-4.15l-0.82-0.33l0.17-0.88c0.93-4.91,1.83-9.91,3.59-14.72c0.87-2.4,1.93-4.76,3.28-6.98
						c1.36-2.2,2.99-4.24,4.89-6.02c1.89-1.78,4.1-3.25,6.5-4.27c2.39-1.04,5.03-1.54,7.61-1.47c2.59,0.04,5.14,0.67,7.45,1.77
						c1.15,0.56,2.23,1.26,3.22,2.05C386.65,210.99,387.48,211.95,388.21,212.97z"/>
				</g>
			</g>
			<g>
				<path class="st2" d="M371.75,115.49c-7.82,4.41-17.17,5.58-26,4.36c-8.9-1.2-17.32-4.88-24.81-9.75
					c-3.76-2.43-7.32-5.17-10.71-8.08c-3.41-2.9-6.6-6.04-9.9-9.04c-3.29-3-6.7-5.89-10.48-8.21c-3.76-2.32-7.94-4.04-12.3-4.71
					c-2.18-0.34-4.4-0.36-6.57-0.06c-2.17,0.3-4.28,1-6.25,1.95c-3.96,1.93-7.32,4.93-10.31,8.19c-3.01,3.27-5.7,6.82-8.58,10.26
					c-2.92,3.4-6.12,6.63-9.88,9.16c-3.73,2.51-8.19,4.29-12.82,4.08c-4.63-0.14-8.97-2.38-12.29-5.46
					c-3.35-3.11-5.74-7.1-7.44-11.26c-1.71-4.18-2.82-8.54-3.92-12.87l0.85,0.07c-2.5,5.59-5.59,10.92-9.36,15.76
					c-3.81,4.77-8.35,9.16-13.99,11.77l-2.16,0.85c-0.74,0.24-1.49,0.42-2.23,0.63c-1.5,0.37-3.06,0.56-4.63,0.49
					c-1.56-0.07-3.16-0.49-4.5-1.39c-1.33-0.9-2.33-2.18-3.08-3.53c-1.49-2.74-2.29-5.76-2.74-8.79c-0.45-3.04-0.56-6.1-0.66-9.14
					l0.6,0.15c-3.67,6.3-7.65,12.45-12.38,18.04c-2.36,2.79-4.95,5.4-7.89,7.61c-2.93,2.19-6.29,3.95-9.97,4.5
					c-3.68,0.56-7.48-0.49-10.52-2.53c-3.06-2.03-5.49-4.99-6.86-8.39c-1.36-3.41-1.69-7.17-1.22-10.78
					c0.48-3.62,1.72-7.12,3.54-10.27c-1.79,3.17-3,6.68-3.43,10.29c-0.44,3.6-0.07,7.33,1.32,10.68c1.39,3.34,3.82,6.23,6.84,8.19
					c3.01,1.97,6.71,2.94,10.27,2.36c3.55-0.58,6.85-2.3,9.72-4.46c2.88-2.19,5.44-4.78,7.77-7.56c4.68-5.56,8.62-11.7,12.25-17.99
					l0.56-0.97l0.04,1.12c0.11,3.04,0.23,6.08,0.68,9.06c0.44,2.98,1.25,5.93,2.69,8.55c0.73,1.29,1.66,2.47,2.87,3.28
					c1.21,0.8,2.66,1.19,4.13,1.25c1.47,0.06,2.97-0.12,4.42-0.49c0.72-0.21,1.45-0.38,2.16-0.62l2.09-0.83
					c5.46-2.55,9.92-6.87,13.65-11.59c3.7-4.78,6.74-10.07,9.19-15.6l0.53-1.19l0.33,1.27c1.11,4.32,2.23,8.64,3.92,12.73
					c1.68,4.08,4.01,7.92,7.23,10.9c3.18,2.98,7.28,5.1,11.65,5.24c4.36,0.21,8.63-1.45,12.28-3.88c3.67-2.45,6.84-5.61,9.73-8.96
					c2.87-3.39,5.59-6.96,8.64-10.25c3.04-3.29,6.48-6.34,10.57-8.33c2.04-0.98,4.23-1.69,6.48-1.99c2.25-0.31,4.54-0.27,6.78,0.08
					c4.48,0.71,8.72,2.48,12.54,4.85c3.83,2.37,7.25,5.3,10.55,8.32c3.29,3.03,6.46,6.17,9.85,9.06c3.37,2.91,6.9,5.64,10.63,8.08
					c7.43,4.86,15.72,8.64,24.56,9.91C354.56,120.87,363.88,119.81,371.75,115.49z"/>
			</g>
			<g>
				<path class="st2" d="M393.11,118.35c-8.14,3.33-15.65,8.09-22.11,13.99c-6.46,5.89-11.93,12.88-15.9,20.66
					c-4.03,7.75-6.54,16.26-7.59,24.94c-0.53,4.34-0.67,8.73-0.41,13.11c0.22,4.38,0.87,8.73,1.87,13.02
					c-1.22-4.23-1.97-8.59-2.36-12.98c-0.36-4.4-0.3-8.83,0.14-13.23c0.89-8.79,3.44-17.43,7.46-25.32
					c4.09-7.85,9.63-14.94,16.27-20.78c3.32-2.91,6.9-5.53,10.69-7.79C384.97,121.73,388.96,119.81,393.11,118.35z"/>
			</g>
			<g>
				<path class="st2" d="M398.24,135.99c-4.23,3.56-7.99,7.64-11.17,12.12c-3.18,4.48-5.84,9.33-7.8,14.45
					c-2.04,5.09-3.39,10.46-4.11,15.9l-0.41,4.1l-0.14,4.12l0.11,4.13l0.38,4.12l-0.65-4.1l-0.33-4.15l-0.01-4.16l0.28-4.16
					c0.57-5.54,1.95-10.98,3.94-16.18c2.07-5.17,4.76-10.1,8.12-14.54l2.63-3.24l2.84-3.05l3.07-2.81L398.24,135.99z"/>
			</g>
			<g>
				<g>
					<path class="st2" d="M181,162.97c-0.75-0.07-1.49-0.12-2.26-0.12c-15.03,0-27.21,13.07-27.21,29.19
						c0,16.12,12.18,29.19,27.21,29.19c0.66,0,1.3-0.06,1.94-0.11C186.77,202.4,186.89,181.76,181,162.97z"/>
					<path class="st6" d="M205.95,192.04c0-15.3-10.98-27.83-24.95-29.07c5.9,18.79,5.77,39.42-0.31,58.15
						C194.8,220.05,205.95,207.46,205.95,192.04z"/>
				</g>
				<path class="st6" d="M192.19,192.53c0,3.69-3,6.69-6.69,6.69c-3.69,0-6.69-3-6.69-6.69c0-3.69,3-6.69,6.69-6.69
					C189.2,185.84,192.19,188.84,192.19,192.53z"/>
				<g>
					<path class="st2" d="M205.95,192.04c-0.18-7.38-2.96-14.65-7.94-19.99c-2.48-2.66-5.44-4.88-8.74-6.38
						c-3.3-1.52-6.92-2.26-10.53-2.32c-3.62-0.02-7.24,0.77-10.54,2.28c-3.31,1.5-6.25,3.74-8.73,6.4c-4.95,5.36-7.72,12.63-7.93,20
						c-0.1-3.69,0.5-7.41,1.73-10.92c1.25-3.5,3.16-6.78,5.63-9.59c4.9-5.65,12.28-9.2,19.84-9.17c3.76,0.09,7.51,0.89,10.91,2.49
						c3.4,1.59,6.47,3.87,8.93,6.69c2.48,2.8,4.4,6.08,5.66,9.58C205.46,184.63,206.06,188.35,205.95,192.04z"/>
				</g>
			</g>
			<g>
				<g>
					<path class="st2" d="M280.56,163.83c-0.75-0.07-1.49-0.12-2.26-0.12c-15.03,0-27.21,13.07-27.21,29.19
						c0,16.12,12.18,29.19,27.21,29.19c0.66,0,1.3-0.06,1.94-0.11C286.33,203.25,286.45,182.62,280.56,163.83z"/>
					<path class="st6" d="M305.51,192.9c0-15.3-10.98-27.83-24.95-29.07c5.9,18.79,5.77,39.42-0.31,58.15
						C294.36,220.91,305.51,208.31,305.51,192.9z"/>
				</g>
				<path class="st6" d="M291.75,193.39c0,3.69-3,6.69-6.69,6.69c-3.69,0-6.69-3-6.69-6.69c0-3.69,3-6.69,6.69-6.69
					C288.76,186.7,291.75,189.69,291.75,193.39z"/>
				<g>
					<path class="st2" d="M305.51,192.9c-0.18-7.38-2.96-14.65-7.94-19.99c-2.48-2.66-5.44-4.88-8.74-6.38
						c-3.3-1.52-6.92-2.26-10.53-2.32c-3.62-0.02-7.24,0.77-10.54,2.28c-3.31,1.5-6.25,3.74-8.73,6.4c-4.95,5.36-7.72,12.63-7.93,20
						c-0.1-3.69,0.5-7.41,1.73-10.92c1.25-3.5,3.16-6.78,5.63-9.59c4.9-5.65,12.28-9.2,19.84-9.17c3.76,0.09,7.51,0.89,10.91,2.49
						c3.4,1.59,6.47,3.87,8.93,6.69c2.47,2.8,4.4,6.08,5.66,9.58C305.02,185.48,305.62,189.2,305.51,192.9z"/>
				</g>
			</g>
			<g>
				<path class="st2" d="M226.47,168.97c-0.13,7.01-0.92,14.03-2.31,20.93c-1.39,6.9-3.39,13.69-5.93,20.28
					c-2.56,6.57-5.62,12.96-9.24,19.02c-3.59,6.08-7.72,11.84-12.29,17.2l-0.27-1.25c4.55,2.33,9,4.81,13.53,7.13
					c2.26,1.16,4.54,2.29,6.87,3.31c2.33,1.02,4.69,1.96,7.1,2.8c-2.48-0.62-4.92-1.39-7.31-2.28c-2.4-0.88-4.77-1.86-7.1-2.9
					c-4.67-2.1-9.21-4.42-13.8-6.6l-0.92-0.44l0.66-0.81c4.38-5.42,8.32-11.17,11.85-17.16c3.5-6.01,6.6-12.26,9.19-18.71
					c2.61-6.45,4.75-13.09,6.42-19.87C224.57,182.84,225.76,175.94,226.47,168.97z"/>
			</g>
			<g>
				<path class="st2" d="M140.14,170.81c3.09-5.66,7.16-10.8,11.84-15.32c4.73-4.47,10.1-8.3,15.91-11.35l4.42-2.17l4.56-1.9
					c1.56-0.52,3.14-1.02,4.72-1.49c1.61-0.36,3.23-0.68,4.85-0.98l4.92-0.48c1.65-0.01,3.3-0.05,4.94-0.01
					c1.64,0.13,3.28,0.31,4.9,0.49c1.61,0.33,3.21,0.66,4.78,1.08l-0.05,0.4c-1.63,0.18-3.22,0.26-4.81,0.35
					c-1.59,0.19-3.16,0.36-4.72,0.49c-1.56,0.28-3.11,0.47-4.65,0.7l-4.59,0.91c-1.51,0.38-3.02,0.75-4.54,1.08
					c-1.49,0.43-3,0.83-4.51,1.21l-4.47,1.42l-4.36,1.76c-5.72,2.57-11.13,5.92-15.98,9.97c-4.91,4-9.22,8.74-12.83,14.03
					L140.14,170.81z"/>
			</g>
			<g>
				<path class="st2" d="M317.64,166.77c-3.61-5.28-7.93-10.03-12.83-14.03c-4.86-4.05-10.26-7.4-15.98-9.97l-4.36-1.76L280,139.6
					c-1.51-0.38-3.02-0.78-4.51-1.21c-1.52-0.33-3.03-0.7-4.54-1.08l-4.59-0.91c-1.54-0.23-3.1-0.43-4.65-0.7
					c-1.56-0.13-3.13-0.31-4.72-0.49c-1.58-0.09-3.18-0.17-4.81-0.35l-0.05-0.4c1.57-0.42,3.17-0.75,4.78-1.08
					c1.62-0.19,3.25-0.36,4.9-0.49c1.64-0.04,3.28,0,4.94,0.01l4.92,0.48c1.62,0.3,3.24,0.62,4.85,0.98
					c1.58,0.47,3.16,0.97,4.72,1.49l4.56,1.9l4.42,2.17c5.8,3.05,11.18,6.88,15.91,11.35c4.68,4.52,8.76,9.66,11.84,15.32
					L317.64,166.77z"/>
			</g>
			<g>
				<path class="st5" d="M200.21,294.15c4.3,3.81,9.24,6.41,14.6,5.96c8.81-0.73,17.5-8.2,23.99-15.48
					c-7.03,0.36-14.03,0.99-20.88,2.55C211.71,288.59,205.62,290.85,200.21,294.15z"/>
				<path class="st2" d="M213.83,278.56c-17.63-0.98-29.87-8.32-29.87-8.32s6.41,15.17,16.24,23.91c5.41-3.3,11.51-5.55,17.71-6.97
					c6.85-1.56,13.85-2.19,20.88-2.55c6.49-7.28,10.78-14.39,10.78-14.39S231.45,279.54,213.83,278.56z"/>
			</g>
			<ellipse class="st7" cx="278.36" cy="250.33" rx="26.73" ry="16.98"/>
			<ellipse class="st7" cx="157.61" cy="244.67" rx="26.73" ry="16.98"/>
		</g>
	</g>
	<g>
		
			<ellipse transform="matrix(0.7071 -0.7071 0.7071 0.7071 -237.2949 -395.8462)" class="st8" cx="-596.48" cy="88.52" rx="106.12" ry="106.12"/>
		<g>
			<g>
				<path class="st2" d="M-579.96,128.36l-30.86,7.88c0,0,1.12,8.32-0.67,15.53c11.64-2.16,22.88-6.48,32.97-12.67
					C-579.61,133.74-579.96,128.36-579.96,128.36z"/>
				<path class="st5" d="M-593.93,178.82c16.69-1.23,25.16-16.84,28.08-23.66c-4.21-3-7.37-5.25-8.48-6.08
					c-1.99-1.5-3.33-5.73-4.19-9.99c-10.09,6.2-21.33,10.51-32.97,12.67c0,0,0,0.01,0,0.01c-0.59,2.37-4.16,5.66-8.91,9.29
					C-617.96,166.94-610.59,180.04-593.93,178.82z"/>
				<path class="st9" d="M-526.8,184.45c-3.23-3.74-26.1-20.06-39.05-29.29c-2.92,6.82-11.39,22.43-28.08,23.66
					c-16.66,1.23-24.03-11.87-26.48-17.74c-9.73,7.43-24.47,16.27-29.16,21.57c-6.98,7.88-9.69,20.95-9.69,20.95h70.51h68.93
					C-519.82,203.59-522.52,189.4-526.8,184.45z"/>
			</g>
			<g>
				<path class="st5" d="M-670.43,81.27c-0.32,4.84,1.3,9.68,3.98,13.58c1.82,2.65,4.17,4.95,6.99,6.26
					c2.82,1.32,6.14,1.59,9.01,0.35c2.62-1.14,4.7-3.44,6.12-6.06c3.28-6.04,3.2-13.78,0.47-20.08c-1.9-4.38-5.21-8.28-9.54-9.64
					C-662.15,62.93-669.86,72.71-670.43,81.27z"/>
				<path class="st5" d="M-647.66,95.77c-2.13-0.52-4.09-1.63-5.59-3.18c-0.45-0.47-0.89-1.09-0.69-1.73
					c0.11-0.36,0.41-0.63,0.69-0.88c1.7-1.48,3.65-2.69,5.73-3.56c-0.56-2.89-1.12-5.81-2.41-8.43c-1.29-2.62-3.41-4.95-6.24-5.88
					c-2.83-0.93-6.4-0.15-8.24,2.28c0,0-6.02,6.89,0.98,16.89C-656.03,101.82-647.66,95.77-647.66,95.77z"/>
				<g>
					<path class="st2" d="M-664.41,74.39c1.12-1.99,3.5-3.18,5.87-3.3c2.43-0.18,4.88,0.89,6.66,2.51c0.9,0.81,1.67,1.75,2.31,2.76
						c0.63,1.02,1.12,2.11,1.53,3.2c0.82,2.2,1.19,4.46,1.6,6.64l0.17,0.9l-0.82,0.31c-1.21,0.46-2.38,1.04-3.48,1.73
						c-0.56,0.33-1.1,0.7-1.63,1.09c-0.25,0.19-0.55,0.41-0.74,0.57c-0.2,0.18-0.25,0.27-0.28,0.36c-0.09,0.22,0.22,0.78,0.67,1.24
						c0.44,0.48,0.9,0.94,1.41,1.35c1.03,0.82,2.2,1.51,3.48,2.01c-1.37-0.15-2.74-0.57-3.98-1.26c-0.62-0.35-1.22-0.74-1.77-1.21
						c-0.27-0.23-0.56-0.48-0.82-0.82c-0.25-0.33-0.51-0.78-0.51-1.37c-0.01-0.6,0.35-1.13,0.63-1.42c0.3-0.32,0.53-0.52,0.8-0.77
						c0.53-0.48,1.08-0.93,1.66-1.35c1.16-0.83,2.41-1.54,3.72-2.14l-0.65,1.21c-0.43-2.18-0.91-4.3-1.58-6.3
						c-0.69-1.99-1.68-3.82-3.09-5.29c-1.41-1.46-3.23-2.49-5.29-2.65C-660.58,72.22-662.8,72.79-664.41,74.39z"/>
				</g>
			</g>
			<path class="st5" d="M-647.71,72.68c0,0-20.7-56.65,50.11-61.28c70.81-4.63,65.65,73.38,43.3,104.58
				c-14.43,20.15-53.65,33.23-78.98,19.61c-25.33-13.62-23.69-29.14-23.15-40.58S-647.71,72.68-647.71,72.68z"/>
			<g>
				<path class="st2" d="M-650.15,60.97c0.9,3.78,1.96,7.48,3.31,11.07l0.12,0.33l-0.23,0.33c-1.94,2.8-3.59,5.79-4.93,8.9
					c-1.34,3.12-2.39,6.36-3.08,9.67c-0.71,3.31-1.09,6.7-1.08,10.11c-0.01,3.41,0.4,6.83,1.2,10.21
					c-1.43-3.17-2.24-6.64-2.55-10.15c-0.3-3.51-0.09-7.07,0.55-10.55c0.66-3.47,1.72-6.87,3.2-10.08c1.47-3.21,3.33-6.25,5.55-8.98
					l-0.11,0.66C-649.28,68.72-649.97,64.85-650.15,60.97z"/>
			</g>
			<g>
				<g>
					<path class="st4" d="M-627.65,53.56c-0.33-0.03-0.66-0.05-1-0.05c-6.68,0-12.1,5.81-12.1,12.98c0,7.17,5.42,12.98,12.1,12.98
						c0.29,0,0.58-0.03,0.86-0.05C-625.08,71.09-625.02,61.91-627.65,53.56z"/>
					<path class="st6" d="M-616.55,66.48c0-6.81-4.88-12.38-11.1-12.93c2.62,8.36,2.57,17.53-0.14,25.86
						C-621.51,78.94-616.55,73.34-616.55,66.48z"/>
				</g>
				<path class="st6" d="M-622.67,66.7c0,1.64-1.33,2.97-2.97,2.97c-1.64,0-2.97-1.33-2.97-2.97c0-1.64,1.33-2.97,2.97-2.97
					C-624,63.73-622.67,65.06-622.67,66.7z"/>
				<g>
					<path class="st2" d="M-616.55,66.48c-0.2-3.28-1.48-6.44-3.69-8.75c-2.19-2.31-5.26-3.72-8.41-3.73
						c-3.16-0.03-6.23,1.41-8.41,3.73c-2.2,2.31-3.48,5.47-3.69,8.75c-0.11-1.64,0.13-3.31,0.64-4.91c0.54-1.58,1.38-3.07,2.47-4.36
						c2.17-2.59,5.54-4.23,8.98-4.21c1.71,0.04,3.42,0.4,4.97,1.14c1.54,0.74,2.93,1.78,4.02,3.08c1.1,1.28,1.94,2.77,2.48,4.36
						C-616.68,63.17-616.44,64.84-616.55,66.48z"/>
				</g>
			</g>
			<g>
				<g>
					<path class="st4" d="M-583.37,53.94c-0.33-0.03-0.66-0.05-1-0.05c-6.68,0-12.1,5.81-12.1,12.98c0,7.17,5.42,12.98,12.1,12.98
						c0.29,0,0.58-0.03,0.86-0.05C-580.81,71.47-580.75,62.3-583.37,53.94z"/>
					<path class="st6" d="M-572.28,66.87c0-6.81-4.88-12.38-11.1-12.93c2.62,8.36,2.57,17.53-0.14,25.86
						C-577.23,79.32-572.28,73.72-572.28,66.87z"/>
				</g>
				<path class="st6" d="M-578.39,67.08c0,1.64-1.33,2.97-2.97,2.97c-1.64,0-2.97-1.33-2.97-2.97c0-1.64,1.33-2.97,2.97-2.97
					C-579.73,64.11-578.39,65.44-578.39,67.08z"/>
				<g>
					<path class="st2" d="M-572.28,66.87c-0.2-3.28-1.48-6.44-3.69-8.75c-2.19-2.31-5.26-3.72-8.41-3.73
						c-3.16-0.03-6.23,1.41-8.41,3.73c-2.2,2.31-3.48,5.47-3.69,8.75c-0.11-1.64,0.13-3.31,0.64-4.91c0.54-1.58,1.38-3.07,2.47-4.36
						c2.17-2.59,5.54-4.23,8.98-4.21c1.71,0.04,3.42,0.4,4.97,1.14c1.54,0.74,2.93,1.78,4.02,3.08c1.1,1.28,1.94,2.77,2.48,4.36
						C-572.4,63.55-572.16,65.22-572.28,66.87z"/>
				</g>
			</g>
			<g>
				<path class="st2" d="M-645.91,56.99c1.23-2.62,2.97-5.01,4.99-7.17c2.05-2.13,4.43-3.97,7.05-5.43c0.66-0.35,1.33-0.7,1.99-1.08
					l2.05-0.98c0.71-0.27,1.43-0.52,2.16-0.74c0.74-0.17,1.49-0.29,2.25-0.41c0.76-0.05,1.52-0.09,2.28-0.1
					c0.76,0.04,1.52,0.09,2.27,0.19c0.75,0.13,1.5,0.31,2.23,0.49c0.73,0.26,1.44,0.52,2.12,0.88l-0.05,0.4
					c-0.74,0.25-1.45,0.4-2.14,0.56c-0.7,0.19-1.38,0.36-2.05,0.49c-0.67,0.21-1.33,0.36-1.99,0.51c-0.65,0.2-1.3,0.36-1.95,0.52
					c-0.64,0.19-1.28,0.37-1.93,0.51c-0.64,0.18-1.29,0.33-1.95,0.46l-1.96,0.5c-0.64,0.21-1.28,0.44-1.92,0.67
					c-2.51,1.04-4.91,2.39-7.13,4.05c-2.24,1.63-4.23,3.63-5.98,5.88L-645.91,56.99z"/>
			</g>
			<g>
				<path class="st2" d="M-566.97,55.3c-1.75-2.25-3.74-4.25-5.98-5.88c-2.22-1.66-4.62-3.01-7.13-4.05
					c-0.64-0.23-1.28-0.46-1.92-0.67l-1.96-0.5c-0.66-0.13-1.31-0.28-1.95-0.46c-0.65-0.14-1.29-0.32-1.93-0.51
					c-0.65-0.16-1.3-0.33-1.95-0.52c-0.66-0.15-1.32-0.3-1.99-0.51c-0.67-0.13-1.35-0.31-2.05-0.49c-0.7-0.16-1.4-0.31-2.14-0.56
					l-0.05-0.4c0.68-0.35,1.4-0.61,2.12-0.88c0.73-0.19,1.47-0.36,2.23-0.49c0.75-0.1,1.51-0.15,2.27-0.19
					c0.76,0.01,1.52,0.05,2.28,0.1c0.75,0.11,1.5,0.24,2.25,0.41c0.73,0.22,1.45,0.47,2.16,0.74l2.05,0.98
					c0.66,0.37,1.32,0.73,1.99,1.08c2.62,1.46,5.01,3.3,7.05,5.43c2.02,2.15,3.76,4.55,4.99,7.17L-566.97,55.3z"/>
			</g>
			<ellipse class="st7" cx="-584.35" cy="92.4" rx="11.89" ry="7.55"/>
			<ellipse class="st7" cx="-638.04" cy="89.89" rx="11.89" ry="7.55"/>
			<g>
				<path class="st2" d="M-624.48,98.58c1.76,2.29,3.65,4.43,5.92,5.92c2.26,1.46,4.91,2.32,7.47,1.97c2.58-0.31,5.02-1.66,7.13-3.4
					c2.12-1.77,3.96-3.97,5.95-6.07c-1.31,2.57-2.8,5.08-4.89,7.22c-2.07,2.13-4.8,3.82-7.95,4.24c-1.57,0.18-3.18,0-4.64-0.49
					c-1.46-0.51-2.83-1.25-3.99-2.22C-621.83,103.83-623.44,101.27-624.48,98.58z"/>
			</g>
			<g>
				<path class="st2" d="M-608.05,56.74c0.05,4.01-0.12,8.13-1.58,12.08c-0.71,1.97-1.87,3.82-3.32,5.37
					c-1.45,1.52-3.04,2.74-4.19,4.19c-2.36,2.73-2.62,7.04-0.72,10.18c1.9,3.13,6.02,4.94,9.98,4.14
					c-3.73,1.64-8.72,0.34-11.29-3.27c-1.3-1.78-1.87-4.01-1.82-6.2c0.06-2.19,0.9-4.42,2.29-6.11c1.39-1.67,3.03-2.9,4.39-4.25
					c1.37-1.32,2.41-2.9,3.24-4.65C-609.45,64.7-608.81,60.69-608.05,56.74z"/>
			</g>
			<path class="st2" d="M-654.88,65.45c-2.7-26.5-3.37-51.64,5.63-76.71c39.16-4.66,79.7-3.03,118.33,4.93
				c0.71,23.34-3.17,46.56-7.05,69.59c-1.44,8.59-3.79,17.11-7.12,25.17c-6.37-1.5-11.31-6.9-13.72-12.99
				c-2.4-6.09-2.61-12.82-2.23-19.36c0.38-6.54,1.51-13.37,1.27-19.92c-27.86-6.22-55.84-7.53-84.16-3.93
				c-2.24,5.85-4.81,12.36-5.7,18.57c-0.89,6.2,1.55,18.54,1.55,18.54S-653.01,65.95-654.88,65.45z"/>
			<g>
				<path class="st5" d="M-529.48,82.68c0.32,4.84-1.3,9.68-3.98,13.58c-1.82,2.65-4.17,4.95-6.99,6.26
					c-2.82,1.32-6.14,1.59-9.01,0.35c-2.62-1.14-4.7-3.44-6.12-6.05c-3.28-6.04-3.2-13.78-0.47-20.08c1.9-4.38,5.21-8.28,9.54-9.64
					C-537.76,64.34-530.05,74.12-529.48,82.68z"/>
				<path class="st5" d="M-552.25,97.17c2.13-0.52,4.09-1.63,5.59-3.18c0.45-0.47,0.89-1.09,0.69-1.73
					c-0.11-0.36-0.41-0.63-0.69-0.88c-1.7-1.48-3.65-2.69-5.73-3.56c0.56-2.89,1.12-5.81,2.41-8.43c1.29-2.62,3.41-4.95,6.24-5.88
					c2.83-0.93,6.4-0.15,8.24,2.28c0,0,6.02,6.89-0.98,16.89C-543.88,103.23-552.25,97.17-552.25,97.17z"/>
				<g>
					<path class="st2" d="M-535.5,75.79c-1.6-1.59-3.82-2.17-5.86-2c-2.06,0.16-3.88,1.19-5.29,2.65c-1.41,1.47-2.4,3.3-3.09,5.29
						c-0.67,2-1.15,4.12-1.58,6.3l-0.65-1.21c1.31,0.59,2.56,1.31,3.72,2.14c0.58,0.42,1.13,0.88,1.66,1.35
						c0.27,0.25,0.5,0.45,0.8,0.77c0.28,0.29,0.64,0.82,0.63,1.42c0,0.59-0.26,1.04-0.51,1.37c-0.26,0.34-0.55,0.59-0.82,0.82
						c-0.55,0.47-1.15,0.86-1.77,1.21c-1.24,0.69-2.61,1.11-3.98,1.26c1.28-0.5,2.45-1.19,3.48-2.01c0.51-0.41,0.98-0.88,1.41-1.35
						c0.45-0.46,0.76-1.02,0.67-1.24c-0.03-0.09-0.08-0.18-0.28-0.36c-0.19-0.16-0.48-0.39-0.74-0.57
						c-0.53-0.39-1.07-0.75-1.63-1.09c-1.1-0.69-2.27-1.27-3.48-1.73l-0.82-0.31l0.17-0.9c0.41-2.18,0.77-4.45,1.6-6.64
						c0.41-1.1,0.9-2.18,1.53-3.2c0.65-1.01,1.41-1.95,2.31-2.76c1.77-1.62,4.23-2.69,6.66-2.51C-539,72.61-536.62,73.8-535.5,75.79
						z"/>
				</g>
			</g>
			<g class="st10">
				<g>
					<path class="st6" d="M-644.13,7.17c-0.77-0.87-1.35-1.93-1.73-3.05c-0.18-0.57-0.32-1.15-0.39-1.75
						c-0.04-0.3-0.06-0.6-0.07-0.9c0-0.3-0.03-0.6,0.06-0.98c0.06-0.37,0.46-0.85,0.95-0.88c0.47-0.04,0.8,0.12,1.1,0.27
						c0.56,0.32,1.01,0.66,1.49,1.04c0.94,0.75,1.77,1.62,2.48,2.58l-0.87,0.37c-0.14-0.91-0.05-1.85,0.23-2.71
						c0.14-0.43,0.32-0.85,0.56-1.24c0.11-0.19,0.26-0.4,0.46-0.59c0.19-0.19,0.52-0.35,0.86-0.32c0.33,0.04,0.56,0.2,0.74,0.34
						c0.18,0.14,0.34,0.29,0.5,0.45c0.31,0.31,0.6,0.65,0.84,1.01c0.48,0.73,0.84,1.53,0.99,2.37c-0.34-0.78-0.77-1.51-1.33-2.11
						c-0.28-0.3-0.58-0.58-0.89-0.84c-0.31-0.24-0.7-0.53-0.9-0.51c-0.17-0.01-0.39,0.23-0.56,0.59c-0.18,0.35-0.32,0.72-0.42,1.09
						c-0.2,0.76-0.23,1.55-0.12,2.31l0.29,1.87l-1.16-1.5c-0.68-0.88-1.46-1.69-2.32-2.41c-0.42-0.35-0.9-0.7-1.33-0.98
						c-0.2-0.13-0.43-0.21-0.54-0.2c-0.1,0.01-0.17,0.04-0.23,0.23c-0.07,0.18-0.08,0.47-0.1,0.75c-0.01,0.28-0.01,0.56,0,0.83
						c0.03,0.56,0.09,1.12,0.2,1.67C-645.12,5.09-644.7,6.16-644.13,7.17z"/>
				</g>
				<g>
					<path class="st6" d="M-615.92,17.29c0.21-0.68,0.54-1.32,0.93-1.92c0.19-0.31,0.42-0.59,0.65-0.87
						c0.23-0.27,0.49-0.57,0.9-0.77c0.2-0.09,0.47-0.16,0.76-0.1c0.28,0.06,0.53,0.27,0.66,0.48c0.26,0.43,0.29,0.76,0.42,1.09
						c0.21,0.67,0.41,1.34,0.61,2.02l-0.93-0.05c0.67-1.73,2.12-3.11,3.85-3.72c0.43-0.14,0.87-0.27,1.39-0.27
						c0.52,0,1.06,0.3,1.32,0.73c0.27,0.43,0.33,0.9,0.34,1.34c0.01,0.44-0.05,0.88-0.15,1.3c-0.04-0.84-0.13-1.76-0.62-2.32
						c-0.47-0.57-1.24-0.34-1.98-0.01c-1.46,0.64-2.64,1.86-3.24,3.31l-0.56,1.33l-0.38-1.38c-0.18-0.68-0.37-1.35-0.53-2.04
						c-0.09-0.34-0.16-0.72-0.26-0.9c-0.09-0.17-0.16-0.21-0.42-0.14c-0.48,0.19-1.02,0.76-1.49,1.23
						C-615.13,16.14-615.53,16.7-615.92,17.29z"/>
				</g>
				<g>
					<path class="st6" d="M-642.55,23.2c-0.56-0.56-0.92-1.31-1.1-2.11c-0.17-0.8-0.13-1.66,0.15-2.47l0.08-0.24l0.29-0.02
						c1.81-0.12,3.67,0.6,4.92,1.95l-0.8,0.13c0.17-0.33,0.01-0.96,0.04-1.71c0-0.36,0.22-0.95,0.68-1.15
						c0.46-0.21,0.84-0.13,1.18-0.09c1.4,0.26,2.54,1.36,2.82,2.62c-0.61-1.14-1.77-1.83-2.91-1.9c-0.29-0.02-0.58,0-0.7,0.1
						c-0.13,0.1-0.17,0.19-0.18,0.46c-0.02,0.51,0.29,1.2-0.05,2.08l-0.26,0.68l-0.54-0.54c-1.09-1.1-2.62-1.77-4.19-1.81l0.37-0.26
						c-0.29,0.64-0.43,1.37-0.39,2.11C-643.12,21.77-642.91,22.51-642.55,23.2z"/>
				</g>
				<g>
					<path class="st6" d="M-601.84-3.16c0.29-0.71,0.72-1.37,1.28-1.95c0.57-0.56,1.36-0.98,2.22-1.05
						c0.84-0.09,1.83,0.19,2.43,0.94c0.56,0.7,0.83,1.78,0.29,2.69l-0.78-0.6c0.51-0.49,1.05-0.94,1.65-1.31
						c0.61-0.37,1.2-0.68,1.93-0.89c0.36-0.11,0.86-0.11,1.23,0.12c0.37,0.21,0.62,0.54,0.75,0.89c0.27,0.73,0.14,1.43-0.02,2.08
						c-0.04-0.67-0.05-1.37-0.39-1.87c-0.16-0.24-0.38-0.45-0.62-0.54c-0.24-0.09-0.46-0.06-0.73,0.04
						c-0.54,0.24-1.13,0.58-1.65,0.94c-0.52,0.38-1.02,0.78-1.46,1.23l-2.85,2.96l2.08-3.56c0.26-0.44,0.17-1.11-0.2-1.59
						c-0.34-0.48-0.96-0.73-1.63-0.73c-0.67,0-1.34,0.23-1.93,0.64C-600.84-4.32-601.35-3.75-601.84-3.16z"/>
				</g>
				<g>
					<path class="st6" d="M-581.93,21.65c-0.5-0.55-0.65-1.39-0.5-2.16c0.16-0.77,0.64-1.52,1.42-1.92
						c0.78-0.39,1.71-0.36,2.47-0.02c0.76,0.34,1.45,0.99,1.69,1.86l-0.95,0.27c-0.38-1.46,0.6-2.98,2.01-3.26
						c1.42-0.26,2.74,0.84,2.81,2.06c-0.43-1.12-1.72-1.65-2.63-1.35c-0.92,0.3-1.49,1.43-1.23,2.28l-0.95,0.27
						c-0.32-1.07-1.77-1.8-2.87-1.36C-581.76,18.74-582.52,20.3-581.93,21.65z"/>
				</g>
				<g>
					<path class="st6" d="M-561.39,2.74c0.68-0.65,1.39-1.27,2.17-1.81c0.4-0.27,0.81-0.52,1.25-0.72c0.43-0.2,0.91-0.42,1.5-0.42
						c0.59-0.01,1.17,0.28,1.56,0.68c0.4,0.4,0.65,0.9,0.79,1.44c0.25,1.07-0.01,2.08-0.21,2.98l-0.91-0.3
						c0.32-0.7,0.95-1.19,1.62-1.43c0.68-0.24,1.45-0.23,2.11,0.09c1.31,0.67,1.76,2.36,1.12,3.46c0.33-1.22-0.41-2.49-1.4-2.83
						c-0.98-0.36-2.22,0.21-2.58,1.1l-0.91-0.3c0.2-0.9,0.35-1.78,0.19-2.55c-0.16-0.74-0.72-1.44-1.41-1.48
						c-0.35-0.02-0.77,0.08-1.2,0.24c-0.42,0.15-0.84,0.33-1.25,0.53C-559.77,1.8-560.56,2.29-561.39,2.74z"/>
				</g>
				<g>
					<path class="st6" d="M-550.12,24.6c0.67-0.23,1.4-0.33,2.13-0.32c0.36,0.01,0.73,0.04,1.09,0.11c0.36,0.07,0.78,0.16,1.15,0.49
						c0.37,0.33,0.53,0.87,0.48,1.32c-0.03,0.46-0.22,0.88-0.52,1.22c-0.59,0.67-1.37,0.92-2.03,1.14l-0.16-0.95
						c0.62,0,1.2,0.22,1.69,0.56c0.49,0.34,0.87,0.89,0.98,1.49c0.11,0.64-0.13,1.25-0.53,1.66c-0.38,0.42-1,0.65-1.5,0.47
						c0.53-0.01,0.93-0.34,1.17-0.73c0.23-0.39,0.31-0.86,0.17-1.23c-0.26-0.79-1.17-1.26-1.99-1.25l-2.9,0.05l2.74-0.99
						c0.65-0.24,1.25-0.47,1.61-0.86c0.33-0.36,0.46-0.99,0.17-1.28c-0.29-0.34-1.08-0.51-1.71-0.67
						C-548.72,24.68-549.41,24.62-550.12,24.6z"/>
				</g>
				<g>
					<path class="st6" d="M-552.65,55.12c0.06-0.64,0.17-1.29,0.49-1.91c0.32-0.62,0.99-1.14,1.79-1.18c0.4-0.03,0.86,0.1,1.18,0.4
						c0.33,0.29,0.52,0.68,0.61,1.03c0.18,0.7,0.23,1.31,0.45,1.72l-0.85-0.01c0.3-0.46,0.62-1,1.15-1.4
						c0.53-0.41,1.25-0.64,1.95-0.39c0.35,0.12,0.63,0.38,0.8,0.67c0.16,0.29,0.24,0.59,0.29,0.88c0.09,0.57,0.09,1.11,0.3,1.63
						c-0.38-0.43-0.54-1.02-0.74-1.51c-0.18-0.51-0.48-0.89-0.86-0.96c-0.38-0.07-0.83,0.09-1.15,0.38
						c-0.33,0.31-0.61,0.73-0.89,1.21l-0.43,0.74l-0.42-0.75c-0.4-0.72-0.37-1.43-0.52-1.96c-0.12-0.53-0.38-0.83-0.86-0.87
						c-0.48-0.02-1.01,0.21-1.38,0.66C-552.12,53.94-552.37,54.54-552.65,55.12z"/>
				</g>
			</g>
		</g>
	</g>
	<g>
		<ellipse class="st11" cx="-773.64" cy="817.03" rx="238.22" ry="232.75"/>
		<g>
			<g>
				<path class="st2" d="M-732.8,915.82l-69.28,17.29c0,0,2.52,18.26-1.51,34.06c26.14-4.74,51.37-14.21,74.02-27.8
					C-732.01,927.63-732.8,915.82-732.8,915.82z"/>
				<path class="st5" d="M-764.15,1026.49c37.46-2.7,56.47-36.94,63.03-51.89c-9.44-6.57-16.55-11.52-19.03-13.33
					c-4.48-3.28-7.47-12.57-9.41-21.9c-22.65,13.59-47.89,23.06-74.02,27.8c0,0.01,0,0.02-0.01,0.03
					c-1.33,5.19-9.33,12.41-20.01,20.38C-818.1,1000.45-801.54,1029.18-764.15,1026.49z"/>
				<path class="st2" d="M-613.45,1038.84c-7.25-8.21-58.59-44-87.67-64.24c-6.56,14.95-25.57,49.19-63.03,51.89
					c-37.39,2.69-53.95-26.04-59.45-38.91c-21.84,16.29-54.93,35.7-65.46,47.31c-15.68,17.29-21.75,45.95-21.75,45.95h158.29h154.75
					C-597.77,1080.84-603.84,1049.71-613.45,1038.84z"/>
			</g>
			<path class="st2" d="M-909.1,767.55c2.17,11.93,5.97,24.46,15.5,32.13c1.97,1.59,4.44,2.98,6.94,2.48
				c2.09-0.42,3.67-2.07,4.95-3.74c5.21-6.87,7.5-15.47,8.56-23.98c1.83-14.77,0.22-29.93-4.66-44c-1.44-4.16-3.22-8.31-6.24-11.56
				c-8.23-8.86-22.55-3.41-27.04,6.68C-916.07,736.78-911.2,756.07-909.1,767.55z"/>
			<g>
				<path class="st5" d="M-935.89,812.54c-0.72,10.62,2.92,21.23,8.94,29.79c4.09,5.81,9.36,10.85,15.69,13.74
					c6.33,2.89,13.79,3.48,20.22,0.76c5.89-2.49,10.55-7.54,13.73-13.28c7.36-13.24,7.19-30.23,1.06-44.05
					c-4.26-9.6-11.69-18.17-21.43-21.15C-917.3,772.32-934.62,793.76-935.89,812.54z"/>
				<path class="st5" d="M-884.77,844.34c-4.79-1.14-9.18-3.59-12.54-6.98c-1.02-1.03-2-2.4-1.54-3.8c0.25-0.78,0.91-1.39,1.56-1.94
					c3.82-3.25,8.18-5.9,12.86-7.81c-1.25-6.33-2.52-12.74-5.42-18.49c-2.9-5.75-7.65-10.86-14-12.89c-6.35-2.03-14.37-0.34-18.51,5
					c0,0-13.52,15.1,2.21,37.04C-903.57,857.61-884.77,844.34-884.77,844.34z"/>
				<g>
					<path class="st2" d="M-922.37,797.44c0.72-1,1.55-1.94,2.52-2.73c0.99-0.77,2.05-1.45,3.19-1.99c2.28-1.07,4.8-1.69,7.35-1.74
						c5.14-0.22,10.24,2.01,14.02,5.43c1.92,1.71,3.56,3.7,4.94,5.85c1.37,2.16,2.44,4.48,3.33,6.84c1.79,4.74,2.69,9.67,3.64,14.51
						l0.17,0.89l-0.83,0.33c-2.76,1.09-5.43,2.43-7.94,4.03c-1.26,0.79-2.49,1.63-3.68,2.54c-1.16,0.93-2.52,1.82-2.55,2.81
						c-0.05,0.51,0.17,1.12,0.54,1.68c0.36,0.57,0.87,1.09,1.39,1.63c1.05,1.04,2.18,2.02,3.4,2.89c2.44,1.74,5.2,3.04,8.1,3.94
						c-3-0.52-5.91-1.64-8.58-3.2c-1.33-0.79-2.6-1.69-3.77-2.73c-0.57-0.52-1.17-1.05-1.67-1.73c-0.49-0.67-0.95-1.52-0.93-2.55
						c0.01-1.04,0.64-1.93,1.22-2.51c0.6-0.6,1.17-1.07,1.77-1.57c1.19-0.99,2.42-1.93,3.7-2.8c2.57-1.73,5.32-3.21,8.18-4.43
						l-0.66,1.22c-0.97-4.83-1.98-9.62-3.61-14.15c-1.64-4.51-4.06-8.74-7.5-12.01c-3.41-3.27-7.89-5.48-12.68-5.6
						c-2.38-0.07-4.8,0.27-7.07,1.11C-918.63,794.23-920.72,795.6-922.37,797.44z"/>
				</g>
			</g>
			<path class="st5" d="M-884.87,793.7c0,0-46.47-124.25,112.5-134.41c158.97-10.16,147.38,160.96,97.21,229.39
				c-32.4,44.21-120.45,72.88-177.31,43.01c-56.86-29.87-53.19-63.92-51.97-89.01S-884.87,793.7-884.87,793.7z"/>
			<g>
				<path class="st2" d="M-890.36,768c0.8,4.18,1.68,8.33,2.8,12.43c1.1,4.09,2.35,8.14,3.77,12.13l0.12,0.35l-0.24,0.32
					c-4.51,6.06-8.33,12.62-11.42,19.5c-3.08,6.88-5.46,14.08-7.01,21.46c-1.56,7.37-2.31,14.93-2.11,22.48
					c0.18,7.55,1.32,15.1,3.54,22.39c-2.8-7.09-4.39-14.68-4.89-22.33c-0.49-7.66,0.1-15.39,1.58-22.93
					c1.51-7.54,3.9-14.9,7.13-21.87c3.22-6.98,7.25-13.58,12.04-19.57l-0.11,0.67c-1.29-4.07-2.38-8.21-3.25-12.39
					C-889.25,776.45-889.95,772.24-890.36,768z"/>
			</g>
			<g>
				<g>
					<path class="st2" d="M-740.45,752.59c-0.74-0.06-1.49-0.12-2.25-0.12c-15,0-27.16,12.75-27.16,28.47
						c0,15.72,12.16,28.47,27.16,28.47c0.66,0,1.3-0.06,1.94-0.1C-734.69,791.04-734.56,770.92-740.45,752.59z"/>
					<path class="st6" d="M-715.54,780.94c0-14.93-10.97-27.15-24.91-28.35c5.89,18.33,5.76,38.45-0.31,56.72
						C-726.67,808.26-715.54,795.98-715.54,780.94z"/>
				</g>
				<path class="st6" d="M-729.27,781.42c0,3.6-2.99,6.53-6.68,6.53c-3.69,0-6.68-2.92-6.68-6.53c0-3.6,2.99-6.52,6.68-6.52
					C-732.26,774.9-729.27,777.82-729.27,781.42z"/>
				<g>
					<path class="st2" d="M-715.54,780.94c-0.17-7.28-3.04-14.43-8.04-19.61c-2.49-2.58-5.44-4.72-8.72-6.15
						c-3.27-1.46-6.84-2.15-10.41-2.21c-3.57-0.01-7.15,0.72-10.42,2.17c-3.28,1.44-6.23,3.59-8.71,6.18
						c-4.98,5.2-7.82,12.34-8.02,19.62c-0.1-3.64,0.52-7.31,1.76-10.76c1.28-3.44,3.21-6.65,5.69-9.38
						c4.93-5.5,12.25-8.84,19.7-8.83c3.71,0.09,7.41,0.84,10.78,2.38c3.37,1.52,6.44,3.72,8.91,6.46c2.49,2.72,4.44,5.92,5.72,9.36
						C-716.04,773.63-715.43,777.3-715.54,780.94z"/>
				</g>
			</g>
			<g>
				<path class="st2" d="M-880.63,759.4c3.12-5.59,7.24-10.63,11.95-15.05c4.76-4.38,10.14-8.1,15.93-11.06l4.41-2.1l4.54-1.84
					c1.56-0.5,3.12-1,4.69-1.44c1.6-0.35,3.21-0.66,4.82-0.94c1.63-0.15,3.26-0.33,4.89-0.46c1.64,0,3.27-0.04,4.9,0.01
					c1.63,0.13,3.25,0.31,4.86,0.5c1.6,0.33,3.19,0.65,4.75,1.07l-0.04,0.4c-1.61,0.18-3.2,0.27-4.77,0.37
					c-1.58,0.18-3.14,0.36-4.69,0.49c-1.55,0.27-3.09,0.46-4.62,0.69l-4.56,0.89c-1.51,0.36-3,0.73-4.52,1.04
					c-1.49,0.41-2.98,0.8-4.49,1.17l-4.45,1.37l-4.34,1.7c-5.71,2.48-11.12,5.73-15.99,9.68c-4.92,3.9-9.28,8.55-12.92,13.75
					L-880.63,759.4z"/>
			</g>
			<g>
				<path class="st2" d="M-703.42,755.46c-3.64-5.2-8-9.85-12.92-13.75c-4.88-3.95-10.28-7.2-15.99-9.68l-4.35-1.7l-4.45-1.37
					c-1.51-0.37-3-0.76-4.49-1.17c-1.51-0.31-3.01-0.69-4.52-1.04l-4.56-0.89c-1.53-0.23-3.08-0.42-4.62-0.69
					c-1.55-0.13-3.11-0.31-4.69-0.49c-1.57-0.09-3.16-0.18-4.77-0.37l-0.04-0.4c1.56-0.42,3.15-0.74,4.75-1.07
					c1.61-0.19,3.23-0.36,4.86-0.5c1.63-0.05,3.26-0.01,4.9-0.01c1.63,0.13,3.25,0.3,4.89,0.46c1.61,0.28,3.22,0.59,4.82,0.94
					c1.58,0.44,3.14,0.94,4.69,1.44l4.54,1.84l4.41,2.1c5.79,2.97,11.18,6.69,15.93,11.06c4.71,4.42,8.82,9.47,11.95,15.05
					L-703.42,755.46z"/>
			</g>
			<ellipse class="st7" cx="-742.65" cy="836.96" rx="26.68" ry="16.56"/>
			<ellipse class="st7" cx="-863.19" cy="831.44" rx="26.68" ry="16.56"/>
			<path class="st2" d="M-696.89,822.67c13.29,1.58,26.86,0.91,39.93-1.96c3.55-0.78,7.12-1.74,10.26-3.54
				c4.11-2.36,7.28-6.02,9.92-9.9c11.89-17.46,14.19-39.5,13.49-60.46c-0.43-12.7-3.06-27.34-14.39-33.58
				c-7.3-4.02-16.31-3.34-24.54-1.78c-8.98,1.7-18.4,4.66-25.34,10.72c-8.85,7.72-7.64,14.08-7.37,25.07
				C-694.34,772.39-694.99,797.58-696.89,822.67z"/>
			<path class="st2" d="M-580.52,695.14c-7.26,5.11-18.81,7.86-27.67,6.68c8.94-5,18.49-14.76,26.35-21.27
				c-19.35,9.46-43.13,0.4-59.89-12.98c-16.76-13.38-29.96-30.95-48.18-42.35c-32.46-20.3-76.42-18.91-104.28,7.1
				c-12.55-11.38-31.91-13.26-48.3-8.42c-16.39,4.84-30.34,15.4-43.04,26.62c-12.7,11.22-24.68,23.4-39.02,32.54
				c-7.05,4.49-14.95,11.17-22.86,8.35c5.19,5.4,13.78,6.8,20.8,9.61c-8.86,5.83-15.61,11.08-25.85,8.09
				c16.12,17.5,42.32,23.84,66.18,20.51c23.86-3.33,45.66-15.15,65-29.2c14.34-10.41,28.09-22.72,34.94-38.84
				c23.18,33.72,56.23,61.7,97.07,69.27C-648.43,738.44-605.92,727.29-580.52,695.14z"/>
			<g>
				<path class="st2" d="M-793.69,760.94c-2.88,6.03-5.56,12.13-7.99,18.32c-2.44,6.19-4.66,12.46-6.59,18.82
					c-1.97,6.34-3.64,12.78-5.08,19.26c-1.42,6.49-2.59,13.03-3.5,19.62l-0.58-0.81c1.92,0.43,3.81,0.91,5.7,1.4
					c1.89,0.49,3.78,0.96,5.67,1.42c3.78,0.92,7.62,1.56,11.52,1.75c-3.91,0.22-7.84-0.23-11.7-0.87c-1.94-0.31-3.85-0.72-5.76-1.11
					l-5.73-1.15l-0.65-0.13l0.07-0.68c0.65-6.67,1.68-13.3,3.06-19.86c1.37-6.56,3.11-13.05,5.15-19.43
					c2.07-6.37,4.46-12.64,7.19-18.76C-800.18,772.64-797.11,766.68-793.69,760.94z"/>
			</g>
			<g>
				<path class="st2" d="M-861.14,792.86c3.14-1.29,6.37-2.36,9.61-3.39c3.25-0.99,6.54-1.86,9.87-2.59
					c3.32-0.75,6.68-1.34,10.05-1.84c3.37-0.5,6.77-0.83,10.17-1.09l-0.72,1.61c-2.13-2.73-4.71-5.12-7.55-7.18
					c-2.81-2.09-5.89-3.84-9.06-5.41c-3.18-1.55-6.47-2.91-9.82-4.1c-3.34-1.24-6.77-2.24-10.21-3.24
					c3.54,0.54,7.04,1.36,10.52,2.28c3.46,0.98,6.88,2.15,10.19,3.62c3.32,1.45,6.51,3.21,9.51,5.29c2.97,2.12,5.74,4.59,8,7.51
					l1.16,1.49l-1.88,0.12c-3.36,0.21-6.71,0.55-10.05,0.95c-3.34,0.4-6.67,0.92-10,1.49c-3.32,0.59-6.63,1.25-9.92,2.01
					C-854.59,791.11-857.86,791.99-861.14,792.86z"/>
			</g>
			<g>
				<path class="st2" d="M-831.54,854.96c3.5,5.31,7.63,10.26,12.79,13.77c5.12,3.46,11.33,5.5,17.4,4.72
					c3.03-0.35,5.99-1.33,8.75-2.72c2.78-1.36,5.34-3.16,7.72-5.19c4.75-4.1,8.72-9.12,12.76-14.05
					c-3.41,5.38-6.98,10.75-11.71,15.21c-4.68,4.44-10.64,7.9-17.28,8.74c-3.31,0.39-6.69,0.04-9.84-0.95
					c-3.15-1-6.1-2.52-8.71-4.49C-824.92,866.08-828.71,860.65-831.54,854.96z"/>
			</g>
			<g>
				<path class="st5" d="M-619.46,815.63c0.72,10.62-2.92,21.23-8.94,29.79c-4.09,5.81-9.36,10.85-15.69,13.74
					c-6.33,2.89-13.79,3.48-20.22,0.76c-5.89-2.49-10.55-7.54-13.73-13.28c-7.36-13.24-7.19-30.23-1.06-44.05
					c4.26-9.6,11.69-18.17,21.43-21.15C-638.05,775.4-620.73,796.84-619.46,815.63z"/>
				<path class="st5" d="M-670.58,847.42c4.79-1.14,9.18-3.59,12.54-6.98c1.02-1.03,2-2.4,1.54-3.8c-0.25-0.78-0.91-1.39-1.56-1.94
					c-3.82-3.25-8.18-5.9-12.86-7.81c1.25-6.33,2.52-12.74,5.42-18.49c2.9-5.75,7.65-10.86,14-12.89c6.35-2.03,14.37-0.34,18.51,5
					c0,0,13.52,15.1-2.21,37.04C-651.78,860.69-670.58,847.42-670.58,847.42z"/>
				<g>
					<path class="st2" d="M-632.98,800.52c-1.65-1.85-3.73-3.21-6-4.06c-2.27-0.84-4.69-1.18-7.07-1.11
						c-4.79,0.12-9.27,2.33-12.68,5.6c-3.45,3.27-5.87,7.5-7.5,12.01c-1.63,4.53-2.65,9.32-3.61,14.15l-0.66-1.22
						c2.86,1.22,5.6,2.7,8.18,4.43c1.28,0.87,2.52,1.81,3.7,2.8c0.6,0.51,1.16,0.97,1.77,1.57c0.58,0.58,1.21,1.47,1.22,2.51
						c0.02,1.03-0.43,1.88-0.93,2.55c-0.5,0.68-1.1,1.22-1.67,1.73c-1.16,1.04-2.44,1.93-3.77,2.73c-2.66,1.57-5.58,2.68-8.58,3.2
						c2.91-0.9,5.66-2.2,8.1-3.94c1.22-0.87,2.34-1.85,3.4-2.89c0.52-0.54,1.03-1.05,1.39-1.63c0.37-0.56,0.59-1.17,0.54-1.68
						c-0.03-0.99-1.39-1.88-2.55-2.81c-1.18-0.91-2.41-1.75-3.68-2.54c-2.51-1.59-5.18-2.94-7.94-4.03l-0.83-0.33l0.17-0.89
						c0.94-4.83,1.85-9.77,3.64-14.51c0.89-2.36,1.96-4.68,3.33-6.84c1.38-2.15,3.02-4.14,4.94-5.85c3.78-3.42,8.88-5.65,14.02-5.43
						c2.55,0.05,5.07,0.67,7.35,1.74c1.14,0.54,2.2,1.22,3.19,1.99C-634.54,798.58-633.71,799.52-632.98,800.52z"/>
				</g>
			</g>
			<g class="st10">
				<g>
					<path class="st6" d="M-772.3,636.41c4.84,5.7,9.76,11.34,14.82,16.83c5.05,5.51,10.24,10.89,15.66,16.03
						c10.82,10.27,22.56,19.66,35.54,27.03c12.92,7.42,27.13,12.66,41.85,15.02c7.36,1.18,14.85,1.59,22.29,1.08
						c7.44-0.47,14.84-1.89,21.92-4.34c-7.01,2.61-14.41,4.19-21.88,4.83c-7.48,0.61-15.02,0.28-22.45-0.81
						c-14.86-2.21-29.19-7.51-42.23-14.91c-13.02-7.49-24.83-16.93-35.57-27.35c-5.37-5.22-10.52-10.66-15.49-16.25
						C-762.79,647.96-767.58,642.22-772.3,636.41z"/>
				</g>
				<g>
					<path class="st6" d="M-749.47,624.35l6.34,7.78l6.8,7.36l7.2,6.97l7.59,6.53c10.37,8.41,21.65,15.69,33.62,21.59
						c11.93,5.97,24.55,10.58,37.5,13.8l9.78,2.14l9.89,1.58l9.97,1.05l10.02,0.45l-10.04-0.21l-10.01-0.81l-9.95-1.44l-9.85-2.02
						c-13.06-3.08-25.74-7.71-37.77-13.65c-11.99-6.01-23.35-13.31-33.67-21.89l-7.53-6.66l-7.12-7.09l-6.64-7.54L-749.47,624.35z"
						/>
				</g>
				<g>
					<path class="st6" d="M-801.98,647.9l-5.41,7.32l-5.88,6.95l-6.33,6.55l-6.72,6.16c-9.21,7.94-19.42,14.71-30.22,20.29
						c-10.84,5.51-22.3,9.84-34.11,12.72l-8.92,1.89l-9.01,1.36l-9.07,0.78l-9.1,0.21l9.08-0.47l9.03-1l8.95-1.5l8.85-2.02
						c11.71-3.02,23.1-7.31,33.84-12.86c10.78-5.48,20.91-12.22,30.18-19.99C-817.54,666.52-809.18,657.66-801.98,647.9z"/>
				</g>
				<g>
					<path class="st6" d="M-915.69,693.23c7.4-3.42,14.64-7.16,21.66-11.27c7.02-4.11,13.85-8.54,20.39-13.38
						c6.59-4.77,12.88-9.94,18.92-15.39l4.48-4.15l4.36-4.27l4.27-4.37l4.16-4.48l-3.96,4.66l-4.11,4.53l-4.27,4.38l-4.4,4.26
						c-5.95,5.59-12.28,10.78-18.85,15.63c-6.62,4.79-13.48,9.25-20.6,13.24C-900.77,686.62-908.13,690.19-915.69,693.23z"/>
				</g>
			</g>
		</g>
	</g>
	<g>
		<ellipse class="st12" cx="-98.13" cy="905.9" rx="238.22" ry="232.75"/>
		<g>
			<path class="st9" d="M-247.14,872.07c-8.35-29.25-5.61-61.44,7.86-88.81c13.46-27.37,37.59-49.62,66.45-60.9
				c32.08-12.54,68.33-11.41,101.99-3.74c9.2,2.1,18.33,4.68,26.84,8.69c27.71,13.05,45.73,39.42,67.58,60.57
				c9.44,9.14,20.15,17.63,32.9,21.3c12.75,3.67,27.94,1.61,36.98-7.9c-1.42,14.3-8.1,30.35-18.25,40.74
				c9.23-3.71,18.54-10.65,23.8-18.94c-5.29,20.74-7.96,44.16-14.91,64.42c-9.89,28.82-30.95,53.5-57.16,69.87
				c-26.21,16.38-57.31,24.66-88.41,25.57"/>
			<g>
				<path class="st2" d="M-76.72,1004.69l-69.28,17.29c0,0,2.52,18.26-1.51,34.06c26.14-4.74,51.37-14.21,74.02-27.8
					C-75.93,1016.5-76.72,1004.69-76.72,1004.69z"/>
				<path class="st3" d="M-108.07,1115.37c37.46-2.7,56.47-36.94,63.03-51.89c-9.44-6.57-16.55-11.52-19.03-13.33
					c-4.48-3.28-7.47-12.57-9.41-21.9c-22.65,13.59-47.89,23.06-74.02,27.8c0,0.01,0,0.02-0.01,0.03
					c-1.33,5.19-9.33,12.42-20.01,20.38C-162.02,1089.33-145.46,1118.06-108.07,1115.37z"/>
				<path class="st5" d="M42.63,1127.72c-7.25-8.21-58.59-44-87.67-64.24c-6.56,14.95-25.57,49.19-63.03,51.89
					c-37.39,2.69-53.95-26.04-59.45-38.91c-21.84,16.29-54.93,35.7-65.46,47.31c-15.68,17.29-21.75,45.95-21.75,45.95h158.29H58.3
					C58.3,1169.72,52.24,1138.59,42.63,1127.72z"/>
			</g>
			<g>
				<path class="st3" d="M-279.81,901.42c-0.72,10.62,2.92,21.23,8.94,29.79c4.09,5.81,9.36,10.85,15.69,13.74
					c6.33,2.89,13.79,3.48,20.22,0.76c5.89-2.49,10.55-7.54,13.73-13.28c7.36-13.24,7.19-30.23,1.06-44.05
					c-4.26-9.6-11.69-18.17-21.43-21.15C-261.22,861.2-278.54,882.64-279.81,901.42z"/>
				<path class="st3" d="M-228.69,933.21c-4.79-1.14-9.18-3.59-12.54-6.98c-1.02-1.03-2-2.4-1.54-3.8c0.25-0.78,0.91-1.39,1.56-1.94
					c3.82-3.25,8.18-5.9,12.86-7.81c-1.25-6.33-2.52-12.74-5.42-18.49c-2.9-5.75-7.65-10.86-14-12.89c-6.35-2.03-14.37-0.34-18.51,5
					c0,0-13.52,15.1,2.21,37.04C-247.49,946.49-228.69,933.21-228.69,933.21z"/>
				<g>
					<path class="st2" d="M-266.29,886.32c0.72-1,1.55-1.94,2.52-2.73c0.99-0.77,2.05-1.45,3.19-1.99c2.28-1.07,4.8-1.69,7.35-1.74
						c5.14-0.22,10.24,2.01,14.02,5.43c1.92,1.71,3.56,3.7,4.94,5.85c1.37,2.16,2.44,4.48,3.33,6.84c1.79,4.74,2.69,9.67,3.64,14.51
						l0.17,0.89l-0.83,0.33c-2.76,1.09-5.43,2.43-7.94,4.03c-1.26,0.79-2.49,1.63-3.68,2.54c-1.16,0.93-2.52,1.82-2.55,2.81
						c-0.05,0.51,0.17,1.12,0.54,1.68c0.36,0.57,0.87,1.09,1.39,1.63c1.05,1.04,2.18,2.02,3.4,2.89c2.44,1.74,5.2,3.04,8.1,3.94
						c-3-0.52-5.91-1.64-8.58-3.2c-1.33-0.79-2.6-1.69-3.77-2.73c-0.57-0.52-1.17-1.05-1.67-1.73c-0.49-0.67-0.95-1.52-0.93-2.55
						c0.01-1.04,0.64-1.93,1.22-2.51c0.6-0.6,1.17-1.07,1.77-1.57c1.19-0.99,2.42-1.93,3.7-2.8c2.57-1.73,5.32-3.21,8.18-4.43
						l-0.66,1.22c-0.97-4.83-1.98-9.62-3.61-14.15c-1.64-4.51-4.06-8.74-7.5-12.01c-3.41-3.27-7.89-5.48-12.68-5.6
						c-2.38-0.07-4.8,0.27-7.07,1.11C-262.55,883.1-264.64,884.47-266.29,886.32z"/>
				</g>
			</g>
			<path class="st3" d="M-228.8,882.57c0,0-46.47-124.25,112.5-134.41C42.67,738.01,31.08,909.12-19.08,977.55
				c-32.4,44.21-120.45,72.88-177.31,43.01c-56.86-29.87-53.19-63.92-51.97-89.01C-247.14,906.47-228.8,882.57-228.8,882.57z"/>
			<g>
				<path class="st2" d="M-234.28,856.88c0.8,4.18,1.68,8.33,2.8,12.43c1.1,4.09,2.35,8.14,3.77,12.13l0.12,0.35l-0.24,0.32
					c-4.51,6.06-8.33,12.62-11.42,19.5c-3.08,6.88-5.46,14.08-7.01,21.46c-1.56,7.37-2.31,14.93-2.11,22.48
					c0.18,7.55,1.32,15.1,3.54,22.39c-2.8-7.09-4.39-14.68-4.89-22.33c-0.49-7.66,0.09-15.39,1.58-22.93
					c1.51-7.54,3.9-14.9,7.13-21.87c3.22-6.98,7.25-13.58,12.04-19.57l-0.11,0.67c-1.29-4.07-2.38-8.21-3.25-12.39
					C-233.17,865.32-233.87,861.11-234.28,856.88z"/>
			</g>
			<g>
				<g>
					<path class="st4" d="M-183.76,840.63c-0.74-0.06-1.49-0.12-2.25-0.12c-15,0-27.16,12.75-27.16,28.47
						c0,15.72,12.16,28.47,27.16,28.47c0.66,0,1.3-0.05,1.94-0.1C-178,879.08-177.88,858.96-183.76,840.63z"/>
					<path class="st6" d="M-158.85,868.98c0-14.93-10.97-27.15-24.91-28.35c5.89,18.33,5.76,38.45-0.31,56.72
						C-169.98,896.3-158.85,884.02-158.85,868.98z"/>
				</g>
				<path class="st6" d="M-172.59,869.46c0,3.6-2.99,6.52-6.68,6.52s-6.68-2.92-6.68-6.52c0-3.6,2.99-6.53,6.68-6.53
					S-172.59,865.86-172.59,869.46z"/>
				<g>
					<path class="st2" d="M-158.85,868.98c-0.17-7.28-3.04-14.43-8.03-19.61c-2.49-2.58-5.44-4.72-8.72-6.15
						c-3.27-1.46-6.84-2.15-10.41-2.21c-3.57-0.01-7.15,0.72-10.42,2.17c-3.28,1.44-6.23,3.59-8.71,6.18
						c-4.98,5.2-7.82,12.34-8.02,19.62c-0.1-3.64,0.52-7.31,1.76-10.76c1.28-3.44,3.21-6.65,5.69-9.38
						c4.93-5.5,12.25-8.84,19.7-8.83c3.71,0.09,7.41,0.84,10.78,2.38c3.37,1.52,6.44,3.72,8.91,6.46c2.49,2.72,4.44,5.92,5.72,9.36
						C-159.35,861.66-158.74,865.34-158.85,868.98z"/>
				</g>
			</g>
			<g>
				<g>
					<path class="st4" d="M-84.37,841.47c-0.74-0.06-1.49-0.12-2.25-0.12c-15,0-27.16,12.75-27.16,28.47
						c0,15.72,12.16,28.47,27.16,28.47c0.66,0,1.3-0.06,1.94-0.1C-78.61,879.92-78.48,859.79-84.37,841.47z"/>
					<path class="st6" d="M-59.46,869.82c0-14.93-10.97-27.15-24.91-28.35c5.89,18.33,5.76,38.45-0.31,56.72
						C-70.59,897.14-59.46,884.85-59.46,869.82z"/>
				</g>
				<path class="st6" d="M-73.2,870.3c0,3.6-2.99,6.53-6.68,6.53c-3.69,0-6.68-2.92-6.68-6.53c0-3.6,2.99-6.52,6.68-6.52
					C-76.19,863.77-73.2,866.69-73.2,870.3z"/>
				<g>
					<path class="st2" d="M-59.46,869.82c-0.17-7.28-3.04-14.43-8.04-19.61c-2.49-2.58-5.44-4.72-8.72-6.15
						c-3.27-1.46-6.84-2.15-10.41-2.21c-3.57-0.01-7.15,0.72-10.42,2.17c-3.28,1.44-6.23,3.59-8.71,6.18
						c-4.98,5.2-7.82,12.34-8.02,19.62c-0.1-3.64,0.52-7.31,1.76-10.76c1.28-3.44,3.21-6.65,5.69-9.38
						c4.94-5.5,12.25-8.84,19.7-8.83c3.71,0.09,7.41,0.84,10.78,2.38c3.37,1.52,6.44,3.72,8.91,6.46c2.49,2.72,4.44,5.92,5.72,9.36
						C-59.96,862.5-59.35,866.18-59.46,869.82z"/>
				</g>
			</g>
			<g>
				<path class="st2" d="M-224.55,848.27c3.12-5.59,7.24-10.63,11.95-15.05c4.76-4.38,10.14-8.1,15.93-11.06l4.41-2.1l4.54-1.84
					c1.56-0.5,3.12-1,4.69-1.44c1.6-0.35,3.21-0.66,4.82-0.94c1.63-0.15,3.26-0.33,4.89-0.46c1.64,0,3.27-0.04,4.9,0.01
					c1.63,0.13,3.25,0.31,4.86,0.5c1.6,0.33,3.19,0.65,4.75,1.07l-0.04,0.4c-1.61,0.18-3.2,0.27-4.77,0.37
					c-1.58,0.18-3.14,0.36-4.69,0.49c-1.55,0.27-3.09,0.46-4.62,0.69l-4.56,0.89c-1.51,0.36-3,0.73-4.52,1.04
					c-1.49,0.41-2.98,0.8-4.49,1.17l-4.45,1.37l-4.34,1.7c-5.71,2.48-11.12,5.73-15.99,9.68c-4.92,3.9-9.28,8.55-12.92,13.75
					L-224.55,848.27z"/>
			</g>
			<g>
				<path class="st2" d="M-47.35,844.33c-3.64-5.2-8-9.85-12.92-13.75c-4.88-3.95-10.28-7.2-15.99-9.68l-4.34-1.7l-4.45-1.37
					c-1.51-0.37-3-0.76-4.49-1.17c-1.51-0.31-3.01-0.69-4.52-1.04l-4.56-0.89c-1.53-0.23-3.08-0.42-4.62-0.69
					c-1.55-0.13-3.11-0.31-4.69-0.49c-1.57-0.09-3.16-0.18-4.77-0.37l-0.04-0.4c1.56-0.42,3.15-0.74,4.75-1.07
					c1.61-0.19,3.23-0.36,4.86-0.5c1.63-0.05,3.26-0.01,4.9-0.01c1.63,0.13,3.25,0.3,4.89,0.46c1.61,0.28,3.22,0.59,4.82,0.94
					c1.58,0.44,3.14,0.94,4.69,1.44l4.54,1.84l4.41,2.1c5.79,2.97,11.18,6.69,15.93,11.06c4.71,4.42,8.82,9.47,11.95,15.05
					L-47.35,844.33z"/>
			</g>
			<g>
				<path class="st5" d="M-153.97,965.04c4.29,3.72,9.23,6.25,14.58,5.81c8.8-0.72,17.47-7.99,23.94-15.1
					c-7.01,0.35-14.01,0.96-20.84,2.49C-142.49,959.63-148.57,961.83-153.97,965.04z"/>
				<path class="st2" d="M-140.37,949.84c-17.6-0.96-29.82-8.12-29.82-8.12s6.4,14.8,16.22,23.32c5.4-3.21,11.49-5.41,17.68-6.79
					c6.84-1.52,13.83-2.13,20.84-2.49c6.48-7.11,10.76-14.03,10.76-14.03S-122.78,950.8-140.37,949.84z"/>
			</g>
			<ellipse class="st7" cx="-80.02" cy="923.07" rx="26.68" ry="16.56"/>
			<ellipse class="st7" cx="-200.56" cy="923.07" rx="26.68" ry="16.56"/>
			<path class="st9" d="M-235.74,795.19c17.3-10.46,35.53-19.46,54.4-26.88c-5.19,9.53-10.38,19.06-15.57,28.6
				c17.96-11.66,35.93-23.31,53.89-34.97c0.42,9.08,0.77,19.75,1.63,28.8c7.93-10.59,15.86-21.18,23.79-31.77
				c7.27,9.1,12.37,20.19,17.08,30.78c2.78-8.87,3.79-18.27,2.96-27.51c13.47,11.08,28.15,23.2,39.37,36.47
				c11.22,13.26,20.08,28.89,22.7,45.9c1.81,11.74,0.63,23.91,3.95,35.33c4.08,14.04,15.37,26.06,29.6,30.51s30.96,0.84,41.43-9.57
				c0,0,11.12-93.22-53.76-138.01C-79.15,718.08-177.17,736-177.17,736L-235.74,795.19z"/>
			<g>
				<path class="st3" d="M36.62,904.5c0.72,10.62-2.92,21.23-8.94,29.79c-4.09,5.81-9.36,10.85-15.69,13.74
					c-6.33,2.89-13.79,3.48-20.22,0.76c-5.89-2.49-10.55-7.54-13.73-13.28c-7.36-13.24-7.19-30.23-1.06-44.05
					c4.26-9.6,11.69-18.17,21.43-21.15C18.03,864.28,35.34,885.72,36.62,904.5z"/>
				<path class="st3" d="M-14.5,936.29c4.79-1.14,9.18-3.59,12.54-6.98c1.02-1.03,2-2.4,1.54-3.8c-0.25-0.78-0.91-1.39-1.56-1.94
					c-3.82-3.25-8.18-5.9-12.86-7.81c1.25-6.33,2.52-12.74,5.42-18.49c2.9-5.75,7.65-10.86,14-12.89c6.35-2.03,14.37-0.34,18.51,5
					c0,0,13.52,15.1-2.21,37.04C4.3,949.57-14.5,936.29-14.5,936.29z"/>
				<g>
					<path class="st2" d="M23.09,889.4c-1.65-1.85-3.73-3.21-6-4.06c-2.27-0.84-4.69-1.18-7.07-1.11c-4.79,0.12-9.27,2.33-12.68,5.6
						c-3.45,3.27-5.87,7.5-7.5,12.01c-1.63,4.53-2.65,9.32-3.61,14.15l-0.66-1.22c2.86,1.22,5.6,2.7,8.18,4.43
						c1.28,0.87,2.52,1.81,3.7,2.8c0.6,0.51,1.16,0.97,1.77,1.57c0.58,0.58,1.21,1.47,1.22,2.51c0.02,1.03-0.43,1.88-0.93,2.55
						c-0.5,0.68-1.1,1.22-1.67,1.73c-1.16,1.04-2.44,1.93-3.77,2.73c-2.66,1.57-5.58,2.68-8.58,3.2c2.91-0.9,5.66-2.2,8.1-3.94
						c1.22-0.87,2.34-1.85,3.4-2.89c0.52-0.54,1.03-1.05,1.39-1.63c0.37-0.56,0.59-1.17,0.54-1.68c-0.03-0.99-1.39-1.88-2.55-2.81
						c-1.18-0.91-2.41-1.75-3.68-2.54c-2.51-1.59-5.18-2.94-7.94-4.03l-0.83-0.33l0.17-0.89c0.94-4.83,1.85-9.77,3.64-14.51
						c0.89-2.36,1.96-4.68,3.33-6.84c1.38-2.15,3.02-4.14,4.94-5.85c3.78-3.42,8.88-5.65,14.02-5.43c2.55,0.05,5.07,0.67,7.35,1.74
						c1.14,0.54,2.2,1.22,3.19,1.99C21.54,887.46,22.37,888.4,23.09,889.4z"/>
				</g>
			</g>
			<g>
				<path class="st2" d="M-142.38,851.43c-1.44,8.67-2.57,17.35-3.38,26.07c-0.77,8.71-1.23,17.45-1.26,26.19
					c-0.06,4.37,0.05,8.74,0.21,13.11c0.09,2.18,0.12,4.39,0.37,6.49c0.25,2.11,0.73,4.17,1.76,5.93c0.5,0.88,1.14,1.63,1.92,1.85
					c0.78,0.24,1.76-0.03,2.66-0.48c1.85-0.94,3.5-2.35,4.83-4.01c2.75-3.33,4.3-7.52,5.88-11.59c-0.58,2.12-1.2,4.23-2.02,6.28
					c-0.8,2.06-1.78,4.07-3.08,5.91c-1.31,1.83-3,3.43-5,4.58c-1.01,0.55-2.27,1.05-3.65,0.71c-1.39-0.37-2.26-1.46-2.87-2.43
					c-1.28-1.99-1.87-4.3-2.17-6.52c-0.31-2.25-0.39-4.44-0.53-6.63c-0.22-4.4-0.34-8.8-0.32-13.21c0.06-4.4,0.17-8.81,0.46-13.2
					c0.31-4.39,0.68-8.78,1.25-13.15c0.55-4.37,1.23-8.72,2.04-13.04C-144.4,859.98-143.5,855.68-142.38,851.43z"/>
			</g>
			<g>
				<g>
					<path class="st9" d="M-166.25,751.89c1.14-2.8,2.83-5.37,4.88-7.6c2.08-2.21,4.47-4.12,7.02-5.77
						c2.56-1.64,5.26-3.04,8.03-4.27c0.7-0.3,1.39-0.61,2.1-0.88l2.13-0.79c1.43-0.51,2.83-1.1,4.28-1.55
						c2.91-0.86,5.81-1.77,8.79-2.37c2.95-0.75,5.96-1.13,8.96-1.63c1.51-0.19,3.02-0.31,4.53-0.46l2.27-0.22l2.28-0.08
						c1.52-0.04,3.04-0.13,4.56-0.14l4.56,0.11c6.07,0.3,12.15,0.94,18.08,2.33l2.23,0.47c0.74,0.17,1.47,0.4,2.2,0.59l4.4,1.22
						c2.87,1.02,5.8,1.88,8.58,3.13c11.33,4.52,21.66,11.4,30.61,19.62c8.96,8.25,16.72,17.61,24.39,26.93
						c3.83,4.67,7.66,9.32,11.6,13.88c3.94,4.55,8.04,8.95,12.33,13.16l3.28,3.08c1.1,1.03,2.27,1.96,3.4,2.95
						c2.25,1.99,4.65,3.79,7.1,5.51c4.91,3.43,10.21,6.32,15.86,8.3c5.64,1.98,11.66,2.98,17.66,2.54
						c5.97-0.39,11.92-2.19,16.93-5.59c-4.89,3.57-10.85,5.59-16.89,6.12c-6.06,0.59-12.22-0.26-18.01-2.14
						c-5.79-1.92-11.23-4.79-16.26-8.19c-2.51-1.71-4.98-3.5-7.28-5.48c-1.16-0.98-2.37-1.91-3.49-2.93l-3.37-3.06
						c-17.71-16.69-30.82-37.42-48.6-53.61c-8.79-8.14-18.84-14.91-29.95-19.41c-2.73-1.24-5.6-2.1-8.42-3.12l-4.32-1.22
						c-0.72-0.2-1.44-0.42-2.17-0.59l-2.19-0.48c-5.83-1.37-11.8-2.09-17.78-2.48l-4.49-0.18c-1.5-0.02-3,0.05-4.5,0.07l-2.25,0.05
						l-2.24,0.18c-1.49,0.13-2.99,0.22-4.48,0.39c-2.97,0.45-5.96,0.78-8.88,1.48l-2.2,0.46l-1.1,0.23l-1.08,0.3l-4.34,1.2
						c-1.45,0.41-2.85,0.96-4.27,1.43l-2.13,0.74c-0.71,0.26-1.4,0.54-2.1,0.82c-2.77,1.15-5.48,2.47-8.05,4.03
						c-2.56,1.57-4.97,3.39-7.08,5.53C-163.26,746.63-165.02,749.13-166.25,751.89z"/>
				</g>
				<g>
					<path class="st9" d="M-44.66,787.17c6.19,8.84,12.36,17.7,19.18,26c6.83,8.27,14.37,16,23.06,22.22
						c4.31,3.12,8.95,5.8,13.81,7.99c4.85,2.22,9.94,3.89,15.15,5.01c10.4,2.2,21.5,1.98,31.63-1.9
						c-4.88,2.32-10.23,3.65-15.64,4.21c-5.42,0.52-10.92,0.21-16.29-0.78c-10.75-1.97-20.95-6.56-29.83-12.91
						c-8.86-6.39-16.46-14.32-23.1-22.87C-33.36,805.59-39.11,796.43-44.66,787.17z"/>
				</g>
				<g>
					<path class="st9" d="M42.63,887.34c3.5-1.6,6.64-3.72,9.44-6.21c2.79-2.5,5.26-5.34,7.41-8.4c2.18-3.05,4.06-6.33,5.86-9.68
						c1.79-3.35,3.48-6.78,5.35-10.15c-1.1,3.68-2.39,7.3-3.94,10.83c-1.54,3.53-3.4,6.96-5.64,10.15
						c-2.27,3.17-4.94,6.09-8.06,8.45C49.96,884.7,46.4,886.53,42.63,887.34z"/>
				</g>
				<g>
					<path class="st9" d="M50.2,915.14c1.4-2.42,2.86-4.77,4.29-7.12c1.42-2.36,2.85-4.7,4.22-7.08c1.4-2.36,2.74-4.76,4.09-7.15
						c1.35-2.4,2.67-4.82,4.1-7.23c-0.66,2.72-1.6,5.35-2.7,7.92c-1.09,2.57-2.38,5.05-3.77,7.47c-1.43,2.4-2.96,4.74-4.66,6.95
						C54.08,911.12,52.25,913.23,50.2,915.14z"/>
				</g>
			</g>
		</g>
	</g>
	<g>
		
			<ellipse transform="matrix(0.7071 -0.7071 0.7071 0.7071 -337.6356 -167.57)" class="st13" cx="-371.09" cy="323.78" rx="106.12" ry="106.12"/>
		<g>
			<path class="st2" d="M-426.36,288.79c-3.9,0.87-7.65-1.97-10.22-5.03c-2.61-3.11-4.74-6.78-5.22-10.81
				c-0.48-4.03,0.96-8.45,4.29-10.77c-1.98-4.6-1.67-10.12,0.83-14.46c2.5-4.34,7.12-7.38,12.09-7.97c3.3-4.63,6.48-9.27,11.7-11.54
				c5.22-2.27,11.67-2.25,16.27,1.09c-0.4-0.78,1.47-2.56,2.06-3.19c3.41-3.64,7.46-6.78,12.12-8.55c4.66-1.77,9.98-2.09,14.62-0.26
				c4.64,1.83,8.44,5.98,9.27,10.9c4.48-3.21,9.46-6.01,14.96-6.36c5.5-0.34,11.31,1.66,14.71,6c2.31,2.95,3.34,6.68,4.31,10.3
				c7.05-1.53,13.26,0.97,17.69,6.67c4.43,5.7,5.25,13.97,2.02,20.42c2.95-0.34,5.16,2.71,7.31,4.75
				c4.62,4.39,5.85,11.73,3.58,17.68c-2.27,5.96-7.66,10.44-13.74,12.37"/>
			<g>
				<path class="st2" d="M-352.9,368.82l-30.86,7.88c0,0,1.12,8.32-0.67,15.53c11.64-2.16,22.88-6.48,32.97-12.67
					C-352.55,374.2-352.9,368.82-352.9,368.82z"/>
				<path class="st5" d="M-366.87,419.27c16.69-1.23,25.16-16.84,28.08-23.66c-4.21-3-7.37-5.25-8.48-6.08
					c-1.99-1.5-3.33-5.73-4.19-9.99c-10.09,6.2-21.33,10.51-32.97,12.67c0,0,0,0.01,0,0.01c-0.59,2.37-4.16,5.66-8.91,9.29
					C-390.9,407.4-383.52,420.5-366.87,419.27z"/>
				<path class="st4" d="M-299.74,424.91c-3.23-3.74-26.1-20.06-39.05-29.29c-2.92,6.82-11.39,22.43-28.08,23.66
					c-16.66,1.23-24.03-11.87-26.48-17.74c-9.73,7.43-24.47,16.27-29.16,21.57c-6.98,7.88-9.69,20.95-9.69,20.95h70.51h68.93
					C-292.76,444.05-295.46,429.86-299.74,424.91z"/>
			</g>
			<path class="st2" d="M-431.43,301.22c0.97,5.44,2.66,11.15,6.9,14.65c0.88,0.72,1.98,1.36,3.09,1.13
				c0.93-0.19,1.64-0.94,2.2-1.71c2.32-3.13,3.34-7.05,3.81-10.93c0.81-6.73,0.1-13.65-2.07-20.06c-0.64-1.9-1.44-3.79-2.78-5.27
				c-3.66-4.04-10.05-1.55-12.04,3.04C-434.54,287.19-432.37,295.99-431.43,301.22z"/>
			<g>
				<path class="st5" d="M-443.37,321.73c-0.32,4.84,1.3,9.68,3.98,13.58c1.82,2.65,4.17,4.95,6.99,6.26
					c2.82,1.32,6.14,1.59,9.01,0.35c2.62-1.14,4.7-3.44,6.12-6.05c3.28-6.04,3.2-13.78,0.47-20.08c-1.9-4.38-5.21-8.28-9.54-9.64
					C-435.09,303.39-442.8,313.17-443.37,321.73z"/>
				<path class="st5" d="M-420.6,336.23c-2.13-0.52-4.09-1.64-5.58-3.18c-0.45-0.47-0.89-1.09-0.69-1.73
					c0.11-0.36,0.41-0.63,0.69-0.88c1.7-1.48,3.65-2.69,5.73-3.56c-0.56-2.89-1.12-5.81-2.41-8.43c-1.29-2.62-3.41-4.95-6.24-5.88
					c-2.83-0.93-6.4-0.15-8.24,2.28c0,0-6.02,6.89,0.98,16.89C-428.97,342.28-420.6,336.23-420.6,336.23z"/>
				<g>
					<path class="st2" d="M-437.34,314.85c1.12-1.99,3.5-3.18,5.87-3.3c2.43-0.18,4.88,0.89,6.66,2.51c0.9,0.81,1.67,1.75,2.31,2.76
						c0.63,1.02,1.12,2.11,1.53,3.2c0.82,2.2,1.19,4.46,1.6,6.64l0.17,0.9l-0.82,0.31c-1.21,0.46-2.38,1.04-3.48,1.73
						c-0.56,0.33-1.1,0.7-1.63,1.09c-0.25,0.19-0.55,0.41-0.74,0.57c-0.2,0.18-0.25,0.27-0.28,0.36c-0.09,0.22,0.22,0.78,0.67,1.24
						c0.44,0.48,0.9,0.94,1.41,1.35c1.03,0.82,2.2,1.51,3.48,2.01c-1.37-0.15-2.74-0.57-3.98-1.26c-0.62-0.35-1.22-0.74-1.77-1.21
						c-0.27-0.23-0.56-0.48-0.82-0.82c-0.25-0.33-0.51-0.78-0.51-1.37c-0.01-0.6,0.35-1.13,0.63-1.42c0.3-0.32,0.53-0.52,0.8-0.77
						c0.53-0.48,1.08-0.93,1.66-1.35c1.16-0.83,2.41-1.54,3.72-2.14l-0.65,1.21c-0.43-2.18-0.91-4.3-1.58-6.3
						c-0.69-1.99-1.68-3.82-3.09-5.29c-1.41-1.46-3.23-2.49-5.29-2.65C-433.52,312.68-435.74,313.25-437.34,314.85z"/>
				</g>
			</g>
			<path class="st5" d="M-420.64,313.14c0,0-20.7-56.65,50.11-61.28c70.81-4.63,65.65,73.38,43.3,104.58
				c-14.43,20.15-53.65,33.23-78.98,19.61c-25.33-13.62-23.69-29.14-23.15-40.58C-428.81,324.03-420.64,313.14-420.64,313.14z"/>
			<g>
				<path class="st2" d="M-423.08,301.42c0.9,3.78,1.96,7.48,3.31,11.07l0.12,0.33l-0.23,0.33c-1.94,2.8-3.59,5.79-4.93,8.9
					c-1.34,3.12-2.39,6.36-3.08,9.67c-0.71,3.31-1.09,6.7-1.08,10.11c-0.01,3.41,0.4,6.83,1.2,10.21
					c-1.43-3.17-2.24-6.64-2.55-10.15c-0.3-3.51-0.09-7.07,0.55-10.55c0.66-3.47,1.72-6.87,3.2-10.08c1.47-3.21,3.33-6.25,5.55-8.98
					l-0.11,0.66C-422.22,309.18-422.91,305.31-423.08,301.42z"/>
			</g>
			<g>
				<g>
					<path class="st2" d="M-356.31,294.4c-0.33-0.03-0.66-0.05-1-0.05c-6.68,0-12.1,5.81-12.1,12.98c0,7.17,5.42,12.98,12.1,12.98
						c0.29,0,0.58-0.03,0.86-0.05C-353.74,311.93-353.69,302.75-356.31,294.4z"/>
					<path class="st6" d="M-345.21,307.32c0-6.81-4.88-12.38-11.1-12.93c2.62,8.36,2.57,17.53-0.14,25.86
						C-350.17,319.78-345.21,314.18-345.21,307.32z"/>
				</g>
				<path class="st6" d="M-351.33,307.54c0,1.64-1.33,2.97-2.97,2.97c-1.64,0-2.97-1.33-2.97-2.97c0-1.64,1.33-2.97,2.97-2.97
					C-352.66,304.57-351.33,305.9-351.33,307.54z"/>
				<g>
					<path class="st2" d="M-345.21,307.32c-0.2-3.28-1.48-6.44-3.69-8.75c-2.19-2.31-5.26-3.72-8.41-3.73
						c-3.16-0.03-6.23,1.41-8.41,3.73c-2.2,2.31-3.48,5.47-3.69,8.75c-0.11-1.64,0.13-3.31,0.64-4.91c0.54-1.58,1.38-3.07,2.47-4.36
						c2.17-2.59,5.54-4.23,8.98-4.21c1.71,0.04,3.42,0.4,4.97,1.14c1.54,0.74,2.93,1.78,4.02,3.08c1.1,1.28,1.95,2.77,2.48,4.36
						C-345.34,304.01-345.1,305.68-345.21,307.32z"/>
				</g>
			</g>
			<g>
				<g>
					<path class="st2" d="M-401.47,294.4c-0.33-0.03-0.66-0.05-1-0.05c-6.68,0-12.1,5.81-12.1,12.98c0,7.17,5.42,12.98,12.1,12.98
						c0.29,0,0.58-0.03,0.86-0.05C-398.91,311.93-398.85,302.75-401.47,294.4z"/>
					<path class="st6" d="M-390.37,307.32c0-6.81-4.88-12.38-11.1-12.93c2.62,8.36,2.57,17.53-0.14,25.86
						C-395.33,319.78-390.37,314.18-390.37,307.32z"/>
				</g>
				<path class="st6" d="M-396.49,307.54c0,1.64-1.33,2.97-2.97,2.97c-1.64,0-2.97-1.33-2.97-2.97c0-1.64,1.33-2.97,2.97-2.97
					C-397.82,304.57-396.49,305.9-396.49,307.54z"/>
				<g>
					<path class="st2" d="M-390.37,307.32c-0.2-3.28-1.48-6.44-3.69-8.75c-2.19-2.31-5.26-3.72-8.41-3.73
						c-3.16-0.03-6.23,1.41-8.41,3.73c-2.2,2.31-3.48,5.47-3.69,8.75c-0.11-1.64,0.13-3.31,0.64-4.91c0.54-1.58,1.38-3.07,2.47-4.36
						c2.17-2.59,5.54-4.23,8.98-4.21c1.71,0.04,3.42,0.4,4.97,1.14c1.54,0.74,2.93,1.78,4.02,3.08c1.1,1.28,1.94,2.77,2.48,4.36
						C-390.5,304.01-390.26,305.68-390.37,307.32z"/>
				</g>
			</g>
			<g>
				<path class="st2" d="M-418.85,297.44c1.23-2.62,2.97-5.01,4.99-7.17c2.05-2.13,4.43-3.97,7.05-5.43
					c0.66-0.35,1.33-0.7,1.99-1.08l2.05-0.98c0.71-0.27,1.43-0.52,2.16-0.74c0.74-0.17,1.49-0.29,2.25-0.41
					c0.76-0.05,1.52-0.09,2.28-0.1c0.76,0.04,1.52,0.09,2.27,0.19c0.75,0.13,1.5,0.31,2.23,0.49c0.73,0.26,1.44,0.52,2.12,0.88
					l-0.05,0.4c-0.74,0.25-1.45,0.4-2.14,0.56c-0.7,0.19-1.38,0.36-2.05,0.49c-0.67,0.21-1.33,0.36-1.99,0.51
					c-0.65,0.2-1.3,0.36-1.95,0.52c-0.64,0.19-1.28,0.37-1.93,0.51c-0.64,0.18-1.29,0.33-1.95,0.46l-1.96,0.5
					c-0.64,0.21-1.28,0.44-1.92,0.67c-2.51,1.04-4.91,2.39-7.13,4.05c-2.24,1.63-4.23,3.63-5.98,5.88L-418.85,297.44z"/>
			</g>
			<g>
				<path class="st2" d="M-339.91,295.76c-1.75-2.25-3.74-4.25-5.98-5.88c-2.22-1.66-4.62-3.01-7.13-4.05
					c-0.64-0.23-1.28-0.46-1.92-0.67l-1.96-0.5c-0.66-0.13-1.31-0.28-1.95-0.46c-0.65-0.14-1.29-0.32-1.93-0.51
					c-0.65-0.16-1.3-0.33-1.95-0.52c-0.66-0.15-1.32-0.3-1.99-0.51c-0.67-0.13-1.35-0.31-2.05-0.49c-0.7-0.16-1.4-0.31-2.14-0.56
					l-0.05-0.4c0.68-0.35,1.4-0.61,2.12-0.88c0.73-0.19,1.47-0.36,2.23-0.49c0.75-0.1,1.51-0.15,2.27-0.19
					c0.76,0.01,1.52,0.05,2.28,0.1c0.75,0.11,1.5,0.24,2.25,0.41c0.73,0.22,1.45,0.47,2.16,0.74l2.05,0.98
					c0.66,0.37,1.32,0.73,1.99,1.08c2.62,1.46,5.01,3.3,7.05,5.43c2.02,2.15,3.76,4.55,4.99,7.17L-339.91,295.76z"/>
			</g>
			<ellipse class="st7" cx="-357.29" cy="332.86" rx="11.89" ry="7.55"/>
			<ellipse class="st7" cx="-410.98" cy="330.35" rx="11.89" ry="7.55"/>
			<path class="st2" d="M-336.91,326.35c5.92,0.72,11.97,0.41,17.78-0.89c1.58-0.36,3.17-0.79,4.57-1.61
				c1.83-1.07,3.24-2.75,4.42-4.51c5.29-7.96,6.32-18.01,6.01-27.57c-0.19-5.79-1.36-12.46-6.41-15.31
				c-3.25-1.83-7.27-1.52-10.93-0.81c-4,0.77-8.2,2.13-11.29,4.89c-3.94,3.52-3.4,6.42-3.29,11.43
				C-335.77,303.43-336.06,314.91-336.91,326.35z"/>
			<g>
				<path class="st2" d="M-396.88,341.07c1.76,2.29,3.65,4.43,5.92,5.92c2.26,1.46,4.91,2.32,7.47,1.97
					c2.58-0.31,5.02-1.66,7.13-3.4c2.12-1.77,3.96-3.97,5.95-6.07c-1.31,2.57-2.8,5.08-4.89,7.22c-2.07,2.13-4.8,3.82-7.95,4.24
					c-1.57,0.18-3.18,0-4.64-0.49c-1.46-0.51-2.83-1.25-3.99-2.22C-394.24,346.33-395.85,343.76-396.88,341.07z"/>
			</g>
			<g>
				<path class="st5" d="M-302.42,323.14c0.32,4.84-1.3,9.68-3.98,13.58c-1.82,2.65-4.17,4.95-6.99,6.26
					c-2.82,1.32-6.14,1.59-9.01,0.34c-2.62-1.14-4.7-3.44-6.12-6.05c-3.28-6.04-3.2-13.78-0.47-20.08c1.9-4.38,5.21-8.28,9.54-9.64
					C-310.7,304.8-302.98,314.57-302.42,323.14z"/>
				<path class="st5" d="M-325.19,337.63c2.13-0.52,4.09-1.64,5.58-3.18c0.45-0.47,0.89-1.09,0.69-1.73
					c-0.11-0.36-0.41-0.63-0.69-0.88c-1.7-1.48-3.65-2.69-5.73-3.56c0.56-2.89,1.12-5.81,2.41-8.43c1.29-2.62,3.41-4.95,6.24-5.88
					c2.83-0.93,6.4-0.15,8.24,2.28c0,0,6.02,6.89-0.98,16.89C-316.81,343.68-325.19,337.63-325.19,337.63z"/>
				<g>
					<path class="st2" d="M-308.44,316.25c-1.6-1.59-3.82-2.17-5.86-2c-2.06,0.16-3.88,1.19-5.29,2.65c-1.41,1.47-2.4,3.3-3.09,5.29
						c-0.67,2-1.15,4.12-1.58,6.3l-0.65-1.21c1.31,0.59,2.56,1.31,3.72,2.14c0.58,0.42,1.13,0.88,1.66,1.35
						c0.27,0.25,0.51,0.45,0.8,0.77c0.28,0.29,0.64,0.82,0.63,1.42c0,0.59-0.26,1.04-0.51,1.37c-0.26,0.34-0.55,0.59-0.82,0.82
						c-0.55,0.47-1.15,0.86-1.77,1.21c-1.24,0.69-2.61,1.11-3.98,1.26c1.28-0.5,2.45-1.19,3.48-2.01c0.51-0.41,0.98-0.88,1.41-1.35
						c0.45-0.46,0.76-1.02,0.67-1.24c-0.03-0.09-0.08-0.18-0.28-0.36c-0.19-0.16-0.48-0.39-0.74-0.57
						c-0.53-0.39-1.07-0.75-1.63-1.09c-1.1-0.69-2.27-1.27-3.48-1.73l-0.82-0.31l0.17-0.9c0.41-2.18,0.77-4.45,1.6-6.64
						c0.41-1.1,0.9-2.18,1.53-3.2c0.65-1.01,1.41-1.95,2.31-2.76c1.77-1.62,4.23-2.69,6.66-2.51
						C-311.93,313.07-309.56,314.26-308.44,316.25z"/>
				</g>
			</g>
			<path class="st2" d="M-429.07,284.72c5.09,0.57,10.39-0.87,14.48-3.95s6.96-7.76,7.82-12.81c3.52,4.28,10.03,7.41,14.94,4.83
				c4.9-2.58,8.13-7.56,10.07-12.75c2.41,3.84,5.51,7.9,9.86,9.17c4.35,1.27,9.55,0.13,12.34-3.44c0.57,4.33,3.21,8.78,7,10.96
				c3.79,2.18,8.61,2.47,12.63,0.77c2.78,7.55,10.64,13.22,18.55,11.72c6.54-11.2,4.14-24.88-5.07-34.01
				c-9.22-9.13-22.6-12.93-35.56-13.44c-17.43-0.69-35.04,4.07-49.75,13.46c-4.83,3.08-9.42,6.73-12.65,11.46
				C-427.63,271.43-430.31,279.12-429.07,284.72z"/>
			<g>
				<path class="st2" d="M-381.45,295.03c0.26,2.94,0.14,5.92-0.26,8.86c-0.41,2.94-1.11,5.85-2.09,8.67
					c-0.99,2.81-2.21,5.55-3.72,8.13c-1.48,2.59-3.23,5.03-5.2,7.27l-0.13-1.13c1.55,1.29,3.16,2.53,4.82,3.69
					c1.66,1.18,3.39,2.26,5.14,3.34c-1.95-0.66-3.84-1.52-5.67-2.48c-1.83-0.98-3.59-2.07-5.28-3.29l-0.64-0.46l0.51-0.67
					c1.75-2.3,3.31-4.72,4.73-7.23c1.38-2.52,2.63-5.12,3.66-7.81c1.04-2.68,1.9-5.45,2.58-8.27
					C-382.3,300.83-381.81,297.95-381.45,295.03z"/>
			</g>
			<g class="st10">
				<g>
					<path class="st6" d="M-348.42,237.94c1.73-0.98,3.85-1.18,5.82-0.82c1.98,0.39,3.85,1.32,5.39,2.66
						c1.54,1.34,2.69,3.06,3.57,4.87c0.87,1.82,1.49,3.75,1.87,5.71l-0.56-0.39c1.88-0.29,3.82,0,5.54,0.71
						c1.73,0.71,3.28,1.79,4.58,3.09c2.64,2.62,3.96,6.46,3.46,10.05c0.1-3.6-1.4-7.15-3.97-9.51c-1.31-1.17-2.78-2.17-4.4-2.8
						c-1.61-0.63-3.37-0.86-5.06-0.57l-0.46,0.08l-0.1-0.47c-0.4-1.89-0.92-3.77-1.73-5.51c-0.8-1.75-1.9-3.35-3.27-4.68
						c-1.37-1.32-3.1-2.28-4.97-2.75C-344.56,237.12-346.6,237.17-348.42,237.94z"/>
				</g>
				<g>
					<path class="st6" d="M-339.55,266.63c2.1-0.75,4.47-0.73,6.65-0.1c2.18,0.64,4.2,1.84,5.79,3.51c1.56,1.68,2.68,3.75,3.33,5.94
						c0.67,2.19,0.85,4.51,0.59,6.78l-0.4-0.51c1.69,0.27,3.2,1.13,4.44,2.2c1.26,1.07,2.25,2.38,3.12,3.73
						c0.88,1.38,1.47,2.94,1.69,4.55c0.22,1.6,0.13,3.25-0.33,4.77c0.28-1.57,0.27-3.17-0.07-4.7c-0.34-1.52-0.94-2.99-1.84-4.25
						c-0.9-1.28-1.94-2.46-3.12-3.45c-1.18-0.98-2.55-1.72-4.03-1.93l-0.44-0.06l0.04-0.45c0.2-2.15,0-4.34-0.57-6.42
						c-0.59-2.07-1.6-4.03-3.04-5.63c-1.41-1.61-3.27-2.86-5.33-3.57C-335.12,266.31-337.38,266.12-339.55,266.63z"/>
				</g>
				<g>
					<path class="st6" d="M-384.15,249.79c0.72-1.87,2.26-3.38,4.07-4.3c1.82-0.9,3.94-1.26,5.99-0.92
						c2.04,0.36,3.95,1.35,5.47,2.74c1.53,1.38,2.72,3.13,3.44,5.07l-0.78-0.19c1.24-1.09,2.74-1.89,4.35-2.26
						c1.6-0.39,3.32-0.34,4.88,0.19c3.12,1.03,5.55,3.76,6.2,6.86c-0.99-3-3.49-5.36-6.4-6.19c-2.93-0.81-6.15,0.14-8.38,2.13
						l-0.53,0.47l-0.26-0.67c-0.69-1.78-1.77-3.4-3.17-4.7c-1.4-1.29-3.11-2.26-4.97-2.64c-1.85-0.41-3.85-0.18-5.62,0.58
						C-381.63,246.71-383.21,248.03-384.15,249.79z"/>
				</g>
				<g>
					<path class="st6" d="M-404.08,236.32c1.19-0.82,2.55-1.39,3.95-1.79c1.41-0.37,2.89-0.54,4.36-0.51
						c2.95,0.06,5.9,1.01,8.32,2.76l-0.7,0.11c0.83-1.13,1.56-2.38,2.52-3.53c0.95-1.14,2.25-2.11,3.7-2.52
						c1.43-0.44,2.94-0.56,4.4-0.32c1.44,0.27,2.85,0.92,3.83,1.99c-1.13-0.89-2.5-1.4-3.9-1.5c-1.39-0.14-2.8,0.06-4.08,0.56
						c-1.29,0.48-2.37,1.31-3.22,2.4c-0.87,1.07-1.58,2.32-2.43,3.51l-0.29,0.41l-0.41-0.3c-2.24-1.64-4.98-2.56-7.77-2.8
						c-1.4-0.12-2.82-0.05-4.21,0.22C-401.42,235.23-402.78,235.7-404.08,236.32z"/>
				</g>
				<g>
					<path class="st6" d="M-423.95,250.44c1.41-0.54,2.91-0.89,4.43-1.05c1.53-0.12,3.1-0.02,4.6,0.4c1.51,0.44,2.92,1.23,4.07,2.32
						c1.14,1.09,2.05,2.5,2.4,4.09l-0.59-0.37c1.32-0.3,2.72-0.29,4.02,0.06c1.31,0.33,2.52,0.94,3.58,1.74
						c2.12,1.58,3.68,3.8,4.52,6.23c-1.19-2.27-2.86-4.26-4.94-5.64c-1.04-0.67-2.18-1.18-3.37-1.44c-1.19-0.26-2.42-0.26-3.6,0.02
						l-0.47,0.11l-0.12-0.48c-0.33-1.36-1.08-2.62-2.11-3.62c-1.02-1-2.28-1.77-3.65-2.24c-1.37-0.49-2.85-0.68-4.34-0.66
						C-420.98,249.9-422.47,250.13-423.95,250.44z"/>
				</g>
				<g>
					<path class="st6" d="M-433.95,269.51c1.66-0.98,3.79-1.15,5.7-0.58c1.91,0.56,3.66,1.84,4.64,3.63l-0.55-0.23
						c1.3-0.36,2.73-0.36,4.01,0.09c1.28,0.45,2.35,1.31,3.12,2.34c-1-0.81-2.12-1.42-3.31-1.67c-1.18-0.27-2.41-0.18-3.56,0.18
						l-0.36,0.11l-0.2-0.33c-0.9-1.52-2.39-2.66-4.07-3.3C-430.2,269.12-432.11,268.97-433.95,269.51z"/>
				</g>
			</g>
		</g>
	</g>
	<g>
		
			<ellipse transform="matrix(0.7071 -0.7071 0.7071 0.7071 -304.6838 873.7155)" class="st14" cx="902.33" cy="804.64" rx="238.22" ry="238.22"/>
		<g>
			<g>
				<path class="st2" d="M943.55,894.08l-69.28,17.7c0,0,2.52,18.69-1.51,34.86c26.14-4.85,51.37-14.54,74.02-28.45
					C944.34,906.17,943.55,894.08,943.55,894.08z"/>
				<path class="st3" d="M912.2,1007.36c37.46-2.76,56.47-37.81,63.03-53.11c-9.44-6.73-16.55-11.79-19.03-13.65
					c-4.48-3.36-7.47-12.87-9.41-22.42c-22.65,13.91-47.89,23.6-74.02,28.45c0,0.01,0,0.02-0.01,0.03
					c-1.33,5.31-9.33,12.71-20.01,20.86C858.25,980.71,874.81,1010.11,912.2,1007.36z"/>
				<path class="st2" d="M1062.9,1020c-7.25-8.4-58.59-45.03-87.67-65.75c-6.56,15.3-25.57,50.35-63.03,53.11
					c-37.39,2.76-53.95-26.65-59.45-39.83c-21.84,16.67-54.93,36.54-65.46,48.42c-15.68,17.7-21.75,47.03-21.75,47.03h158.29h154.75
					C1078.58,1062.99,1072.51,1031.13,1062.9,1020z"/>
			</g>
			<path class="st2" d="M774.78,738.72c1.38,13.69,4.04,28.02,11.49,36.57c1.54,1.77,3.49,3.3,5.52,2.65
				c1.7-0.55,3.03-2.5,4.11-4.47c4.42-8.08,6.55-18.08,7.67-27.92c1.95-17.09,1.13-34.52-2.36-50.6c-1.03-4.75-2.34-9.49-4.66-13.13
				c-6.36-9.96-18.09-3.23-22.03,8.54C770.14,703.44,773.46,725.54,774.78,738.72z"/>
			<g>
				<path class="st3" d="M740.46,788.38c-0.72,10.87,2.92,21.73,8.94,30.49c4.09,5.95,9.36,11.1,15.69,14.06
					c6.33,2.96,13.79,3.56,20.22,0.77c5.89-2.55,10.55-7.72,13.73-13.59c7.36-13.55,7.19-30.94,1.06-45.09
					c-4.26-9.83-11.69-18.6-21.43-21.65C759.05,747.21,741.73,769.16,740.46,788.38z"/>
				<path class="st3" d="M791.58,820.92c-4.79-1.17-9.18-3.67-12.54-7.14c-1.02-1.05-2-2.45-1.54-3.89c0.25-0.8,0.91-1.42,1.56-1.98
					c3.82-3.33,8.18-6.04,12.86-7.99c-1.25-6.48-2.52-13.04-5.42-18.92c-2.9-5.88-7.65-11.12-14-13.19
					c-6.35-2.08-14.37-0.34-18.51,5.11c0,0-13.52,15.46,2.21,37.91C772.78,834.51,791.58,820.92,791.58,820.92z"/>
				<g>
					<path class="st2" d="M753.98,772.92c0.72-1.02,1.55-1.98,2.52-2.8c0.99-0.79,2.06-1.49,3.21-2.04c2.3-1.09,4.85-1.72,7.44-1.76
						c2.57-0.07,5.22,0.42,7.6,1.47c2.4,1.01,4.6,2.48,6.49,4.26c1.9,1.77,3.52,3.82,4.88,6.01c1.34,2.21,2.4,4.57,3.27,6.96
						c1.76,4.81,2.65,9.8,3.58,14.7l0.17,0.88l-0.82,0.33c-2.78,1.12-5.45,2.5-7.97,4.14c-1.27,0.81-2.49,1.67-3.68,2.6
						c-1.17,0.95-2.5,1.85-2.54,2.88c-0.05,0.53,0.17,1.14,0.53,1.72c0.36,0.58,0.86,1.11,1.38,1.66c1.05,1.06,2.17,2.06,3.39,2.96
						c2.44,1.78,5.2,3.12,8.13,4.04c-3.02-0.54-5.95-1.7-8.62-3.31c-1.33-0.82-2.6-1.74-3.76-2.8c-0.57-0.53-1.17-1.08-1.66-1.77
						c-0.49-0.68-0.93-1.54-0.91-2.56c0.01-1.03,0.61-1.94,1.19-2.53c0.6-0.62,1.17-1.09,1.76-1.61c1.19-1.01,2.42-1.98,3.7-2.87
						c2.57-1.77,5.33-3.29,8.2-4.54l-0.65,1.21c-0.96-4.89-1.96-9.74-3.56-14.35c-1.61-4.59-3.98-8.91-7.41-12.3
						c-3.38-3.37-7.88-5.72-12.72-5.87c-2.41-0.08-4.85,0.27-7.14,1.13c-1.14,0.44-2.23,1.02-3.25,1.7
						C755.75,771.16,754.81,771.98,753.98,772.92z"/>
				</g>
			</g>
			<path class="st3" d="M791.48,769.09c0,0-46.47-127.17,112.5-137.57c158.97-10.39,147.38,164.74,97.21,234.78
				c-32.4,45.24-120.45,74.59-177.31,44.02c-56.86-30.57-53.19-65.42-51.97-91.1S791.48,769.09,791.48,769.09z"/>
			<g>
				<path class="st2" d="M786,742.79c0.8,4.28,1.68,8.53,2.8,12.72c1.1,4.19,2.35,8.34,3.77,12.42l0.12,0.34l-0.23,0.32
					c-4.54,6.24-8.36,12.98-11.46,20.03c-3.09,7.05-5.45,14.43-6.99,21.97c-1.56,7.54-2.3,15.26-2.1,22.97
					c0.18,7.71,1.32,15.43,3.54,22.89c-2.8-7.26-4.39-15.01-4.89-22.83c-0.49-7.82,0.08-15.7,1.56-23.41
					c1.5-7.7,3.88-15.23,7.11-22.38c3.22-7.15,7.26-13.94,12.08-20.11l-0.11,0.66c-1.29-4.17-2.39-8.4-3.25-12.68
					C787.1,751.43,786.4,747.12,786,742.79z"/>
			</g>
			<path class="st2" d="M1028.23,793.59c18.83-31.49,33.19-68.26,26.5-104.33c-1.64-8.81-4.73-17.75-11.2-23.95
				c-8.57-8.22-22.07-11.22-33.94-10.65l-22.44,57.68c-2.05,16.35-3.04,33.21,1.36,49.09c4.4,15.88,15.03,30.79,30.42,36.67"/>
			<g>
				<path class="st3" d="M1056.89,791.54c0.72,10.87-2.92,21.73-8.94,30.49c-4.09,5.95-9.36,11.1-15.69,14.06
					c-6.33,2.96-13.79,3.56-20.22,0.77c-5.89-2.55-10.55-7.72-13.73-13.59c-7.36-13.55-7.19-30.94-1.06-45.09
					c4.26-9.83,11.69-18.6,21.43-21.65C1038.3,750.37,1055.62,772.31,1056.89,791.54z"/>
				<path class="st3" d="M1005.77,824.08c4.79-1.17,9.18-3.67,12.54-7.14c1.02-1.05,2-2.45,1.54-3.89c-0.25-0.8-0.91-1.42-1.56-1.98
					c-3.82-3.33-8.18-6.04-12.86-7.99c1.25-6.48,2.52-13.04,5.42-18.92c2.9-5.88,7.65-11.12,14-13.19
					c6.35-2.08,14.37-0.34,18.51,5.11c0,0,13.52,15.46-2.21,37.91C1024.57,837.66,1005.77,824.08,1005.77,824.08z"/>
				<g>
					<path class="st2" d="M1043.37,776.08c-0.83-0.94-1.76-1.76-2.77-2.47c-1.02-0.68-2.11-1.27-3.25-1.7
						c-2.29-0.86-4.74-1.22-7.14-1.13c-4.85,0.15-9.34,2.49-12.72,5.87c-3.42,3.39-5.79,7.71-7.41,12.3
						c-1.6,4.61-2.61,9.46-3.56,14.35l-0.65-1.21c2.88,1.25,5.63,2.77,8.2,4.54c1.28,0.89,2.52,1.85,3.7,2.87
						c0.6,0.52,1.16,0.99,1.76,1.61c0.58,0.59,1.18,1.5,1.19,2.53c0.02,1.02-0.42,1.88-0.91,2.56c-0.49,0.7-1.09,1.25-1.66,1.77
						c-1.16,1.06-2.43,1.98-3.76,2.8c-2.67,1.61-5.59,2.77-8.62,3.31c2.93-0.92,5.7-2.26,8.13-4.04c1.22-0.89,2.34-1.89,3.39-2.96
						c0.52-0.55,1.02-1.08,1.38-1.66c0.37-0.58,0.58-1.19,0.53-1.72c-0.04-1.03-1.37-1.93-2.54-2.88c-1.18-0.93-2.41-1.8-3.68-2.6
						c-2.52-1.64-5.19-3.02-7.97-4.14l-0.82-0.33l0.17-0.88c0.93-4.9,1.82-9.89,3.58-14.7c0.87-2.4,1.93-4.75,3.27-6.96
						c1.36-2.19,2.98-4.24,4.88-6.01c1.89-1.78,4.09-3.25,6.49-4.26c2.38-1.04,5.03-1.54,7.6-1.47c2.59,0.04,5.14,0.67,7.44,1.76
						c1.15,0.56,2.22,1.25,3.21,2.04C1041.82,774.1,1042.65,775.06,1043.37,776.08z"/>
				</g>
			</g>
			<g>
				<path class="st2" d="M1048.27,681.61c-8.12,3.33-15.62,8.08-22.08,13.96c-6.45,5.88-11.91,12.86-15.87,20.63
					c-4.03,7.74-6.53,16.23-7.57,24.9c-0.53,4.33-0.66,8.72-0.41,13.09c0.22,4.37,0.87,8.72,1.87,12.99
					c-1.22-4.22-1.97-8.57-2.36-12.96c-0.35-4.39-0.3-8.82,0.13-13.21c0.89-8.78,3.44-17.4,7.45-25.27
					c4.08-7.84,9.62-14.92,16.25-20.74c3.32-2.91,6.89-5.52,10.67-7.78C1040.14,684.99,1044.12,683.07,1048.27,681.61z"/>
			</g>
			<g>
				<path class="st2" d="M1053.38,699.22c-4.22,3.56-7.98,7.63-11.15,12.1c-3.17,4.47-5.83,9.31-7.79,14.43
					c-2.04,5.09-3.39,10.44-4.1,15.87l-0.41,4.09l-0.14,4.12l0.11,4.12l0.38,4.12l-0.64-4.09l-0.33-4.14l-0.01-4.16l0.28-4.15
					c0.57-5.53,1.94-10.96,3.94-16.15c2.07-5.16,4.75-10.08,8.1-14.51l2.62-3.23l2.83-3.04l3.06-2.81L1053.38,699.22z"/>
			</g>
			<g>
				<g>
					<path class="st2" d="M836.51,726.16c-0.74-0.07-1.49-0.12-2.25-0.12c-15,0-27.16,13.05-27.16,29.14
						c0,16.09,12.16,29.14,27.16,29.14c0.66,0,1.3-0.06,1.94-0.11C842.27,765.52,842.4,744.92,836.51,726.16z"/>
					<path class="st6" d="M861.42,755.18c0-15.28-10.97-27.79-24.91-29.02c5.89,18.76,5.76,39.36-0.31,58.05
						C850.29,783.15,861.42,770.57,861.42,755.18z"/>
				</g>
				<path class="st6" d="M847.69,755.67c0,3.69-2.99,6.68-6.68,6.68c-3.69,0-6.68-2.99-6.68-6.68c0-3.69,2.99-6.68,6.68-6.68
					C844.7,748.99,847.69,751.98,847.69,755.67z"/>
				<g>
					<path class="st2" d="M861.42,755.18c-0.18-7.36-2.96-14.63-7.93-19.96c-2.48-2.65-5.43-4.87-8.73-6.36
						c-3.29-1.52-6.9-2.25-10.51-2.31c-3.62-0.02-7.23,0.77-10.52,2.28c-3.3,1.5-6.24,3.73-8.71,6.39
						c-4.94,5.35-7.71,12.6-7.92,19.97c-0.1-3.69,0.5-7.4,1.73-10.91c1.25-3.5,3.16-6.77,5.62-9.58c4.89-5.64,12.26-9.18,19.81-9.16
						c3.75,0.09,7.5,0.89,10.89,2.49c3.39,1.58,6.46,3.87,8.92,6.68c2.47,2.8,4.39,6.07,5.65,9.56
						C860.93,747.78,861.53,751.5,861.42,755.18z"/>
				</g>
			</g>
			<g>
				<g>
					<path class="st2" d="M935.9,727.02c-0.74-0.07-1.49-0.12-2.25-0.12c-15,0-27.16,13.05-27.16,29.14
						c0,16.09,12.16,29.14,27.16,29.14c0.66,0,1.3-0.06,1.94-0.11C941.66,766.37,941.79,745.78,935.9,727.02z"/>
					<path class="st6" d="M960.81,756.04c0-15.28-10.97-27.79-24.91-29.02c5.89,18.76,5.76,39.36-0.31,58.05
						C949.68,784,960.81,771.43,960.81,756.04z"/>
				</g>
				<path class="st6" d="M947.08,756.53c0,3.69-2.99,6.68-6.68,6.68c-3.69,0-6.68-2.99-6.68-6.68c0-3.69,2.99-6.68,6.68-6.68
					C944.09,749.85,947.08,752.84,947.08,756.53z"/>
				<g>
					<path class="st2" d="M960.81,756.04c-0.18-7.36-2.96-14.63-7.93-19.96c-2.48-2.65-5.43-4.87-8.73-6.36
						c-3.29-1.52-6.9-2.25-10.51-2.31c-3.62-0.02-7.23,0.77-10.52,2.28c-3.3,1.5-6.24,3.73-8.71,6.39
						c-4.94,5.35-7.71,12.6-7.92,19.97c-0.1-3.69,0.5-7.4,1.73-10.91c1.25-3.5,3.16-6.77,5.62-9.58c4.89-5.64,12.26-9.18,19.81-9.16
						c3.75,0.09,7.5,0.89,10.89,2.49c3.39,1.58,6.46,3.87,8.92,6.68c2.47,2.8,4.39,6.07,5.65,9.56
						C960.32,748.63,960.92,752.35,960.81,756.04z"/>
				</g>
			</g>
			<g>
				<path class="st2" d="M881.9,732.15c-0.13,7-0.91,14.01-2.3,20.9c-1.39,6.89-3.38,13.67-5.92,20.24
					c-2.55,6.56-5.61,12.94-9.22,18.99c-3.59,6.07-7.7,11.82-12.27,17.17l-0.27-1.25c4.55,2.33,8.98,4.81,13.5,7.11
					c2.26,1.16,4.53,2.28,6.85,3.31c2.32,1.02,4.69,1.96,7.09,2.8c-2.47-0.61-4.91-1.39-7.3-2.28c-2.4-0.88-4.76-1.85-7.09-2.9
					c-4.66-2.09-9.2-4.41-13.78-6.59l-0.92-0.44l0.66-0.81c4.37-5.41,8.31-11.15,11.83-17.13c3.49-6,6.59-12.23,9.18-18.68
					c2.61-6.44,4.74-13.07,6.41-19.83C880.01,746,881.2,739.11,881.9,732.15z"/>
			</g>
			<g>
				<path class="st2" d="M795.72,733.99c3.08-5.65,7.15-10.78,11.82-15.29c4.72-4.47,10.09-8.28,15.88-11.33l4.42-2.16l4.55-1.9
					c1.56-0.52,3.13-1.02,4.71-1.49c1.61-0.36,3.23-0.67,4.85-0.98l4.92-0.48c1.65-0.01,3.29-0.05,4.93,0
					c1.64,0.13,3.27,0.31,4.89,0.49c1.61,0.33,3.21,0.66,4.78,1.08l-0.05,0.4c-1.62,0.18-3.22,0.27-4.8,0.36
					c-1.58,0.19-3.15,0.36-4.71,0.49c-1.56,0.28-3.1,0.47-4.65,0.7l-4.58,0.91c-1.51,0.38-3.02,0.75-4.53,1.08
					c-1.49,0.43-2.99,0.83-4.5,1.21l-4.46,1.42l-4.35,1.75c-5.71,2.56-11.11,5.91-15.96,9.95c-4.9,3.99-9.21,8.73-12.81,14
					L795.72,733.99z"/>
			</g>
			<g>
				<path class="st2" d="M972.93,729.95c-3.6-5.27-7.92-10.01-12.81-14c-4.85-4.04-10.24-7.38-15.96-9.95l-4.35-1.75l-4.46-1.42
					c-1.51-0.38-3.01-0.78-4.5-1.21c-1.52-0.33-3.02-0.7-4.53-1.08l-4.58-0.91c-1.54-0.23-3.09-0.43-4.65-0.7
					c-1.56-0.13-3.13-0.31-4.71-0.49c-1.58-0.09-3.17-0.17-4.8-0.36l-0.05-0.4c1.57-0.42,3.17-0.75,4.78-1.08
					c1.62-0.19,3.25-0.36,4.89-0.49c1.64-0.04,3.28,0,4.93,0l4.92,0.48c1.62,0.3,3.24,0.62,4.85,0.98c1.58,0.47,3.15,0.97,4.71,1.49
					l4.55,1.9l4.42,2.16c5.79,3.05,11.16,6.87,15.88,11.33c4.67,4.51,8.74,9.64,11.82,15.29L972.93,729.95z"/>
			</g>
			<g>
				<path class="st5" d="M855.69,857.11c4.29,3.81,9.23,6.4,14.58,5.95c8.8-0.73,17.47-8.18,23.94-15.45
					c-7.01,0.36-14.01,0.99-20.84,2.55C867.17,851.57,861.09,853.82,855.69,857.11z"/>
				<path class="st2" d="M869.29,841.56c-17.6-0.98-29.82-8.31-29.82-8.31s6.4,15.15,16.22,23.86c5.4-3.29,11.49-5.54,17.68-6.95
					c6.84-1.56,13.83-2.18,20.84-2.55c6.48-7.27,10.76-14.36,10.76-14.36S886.88,842.54,869.29,841.56z"/>
			</g>
			<ellipse class="st7" cx="933.71" cy="813.37" rx="26.68" ry="16.95"/>
			<ellipse class="st7" cx="813.17" cy="807.72" rx="26.68" ry="16.95"/>
			<path class="st2" d="M996.16,599.42c-1-0.59-2.24-1.17-3.33-0.73c-1.18,0.49-1.48,1.89-1.55,3.08c-0.28,4.92,0.65,9.9,2.71,14.44
				c-2.23-5.16-7.94-8.2-13.34-10.69c-10.12-4.67-20.54-8.82-31.17-12.4c-18.29-6.17-38.69-10.65-57-4.54
				c-2.57,0.86-5.2,2.02-6.67,4.14c-3.16,4.55,0.54,10.38,4.11,14.66c-4.44-4.38-11.6-5.09-18.11-5.22
				c-15.42-0.3-30.88,1.14-45.93,4.28c-10.58,2.21-21.2,5.38-29.7,11.58c-4.36,3.18-8.24,7.43-8.94,12.51
				c-0.7,5.08,2.87,10.85,8.39,11.44c-7.54-0.77-14.45,3.77-19.93,8.59c-11.55,10.14-20.63,22.65-26.38,36.35
				c-1.64,3.91-3.01,8.33-1.32,12.22c1.64,3.77,5.94,6.18,10.32,6.7c4.38,0.53,8.81-0.57,12.89-2.13
				c12.64-4.85,22.62-14.03,32.24-22.99c-4.29,1.64-5.64,7.2-3.36,10.91c2.29,3.72,7.2,5.57,11.84,5.51
				c4.64-0.06,9.08-1.72,13.24-3.62c18.4-8.38,33.62-21.54,48.54-34.51c-1.04,6.2-1.81,13.34,2.78,17.99
				c4.58,4.65,12.58,4.63,19.14,2.91c11.88-3.12,22.26-10.78,28.15-20.77c0.31,7.91,3.35,16.08,9.94,21.17
				c6.59,5.09,17.11,6.17,23.76,1.14c7.64-5.78,7.59-16.35,6.89-25.43c5.82,16.64,17.08,31.63,31.93,42.52
				c8.56,6.27,19.58,11.38,30.16,8.76c5.49-1.36,10.15-4.64,14.47-8.04c7.06-5.55,13.89-11.94,16.71-20.07
				c4.98-14.34-4.04-30.01-16.47-39.79c5.26-0.78,10.66,0.73,15.94,0.07c5.28-0.66,10.8-5.21,8.9-9.79
				c-1.31-3.16-5.35-4.45-8.95-5.12c-6.62-1.23-13.43-1.62-20.17-1.2c-5.23,0.33-17.17,0.44-17.17,0.44s-6.21-8.97-8.91-12.11
				C1006.73,606.9,1001.76,602.72,996.16,599.42z"/>
			<g class="st10">
				<g>
					<path class="st6" d="M815.43,633.64c-2.11,3.44-4.21,6.91-5.7,10.65c-1.48,3.71-2.33,7.77-1.67,11.71l-0.27-0.25
						c2.21,0.16,4.44-0.27,6.51-1.08c2.07-0.82,4.02-1.96,5.85-3.26c3.66-2.61,7.08-5.6,10.34-8.73c3.26-3.13,6.38-6.42,9.5-9.72
						l9.39-9.86l1.72-1.8l-0.94,2.31c-1.83,4.51-3.32,9.15-4.45,13.89c-0.28,1.19-0.58,2.36-0.65,3.53
						c-0.07,1.16,0.14,2.31,0.81,3.21c0.66,0.91,1.67,1.55,2.78,1.89c1.11,0.35,2.29,0.37,3.45,0.15c2.33-0.44,4.47-1.69,6.55-2.93
						c2.07-1.27,4.07-2.67,5.97-4.19c3.8-3.05,7.18-6.62,10.08-10.55c-2.74,4.05-6.07,7.71-9.81,10.88
						c-1.87,1.59-3.86,3.03-5.94,4.35c-2.07,1.28-4.22,2.61-6.72,3.13c-2.45,0.54-5.36-0.1-7.01-2.24
						c-0.82-1.07-1.09-2.47-1.01-3.73c0.07-1.28,0.38-2.49,0.65-3.68c1.12-4.78,2.59-9.48,4.41-14.04l0.78,0.5l-9.37,9.88
						c-3.13,3.28-6.28,6.57-9.58,9.7c-3.3,3.13-6.74,6.14-10.5,8.75c-1.89,1.29-3.91,2.43-6.07,3.25c-2.16,0.81-4.5,1.23-6.82,1.02
						l-0.24-0.02l-0.03-0.23c-0.3-2.03-0.23-4.11,0.13-6.12c0.36-2.01,1.01-3.95,1.81-5.82
						C811.01,640.41,813.19,636.99,815.43,633.64z"/>
				</g>
				<g>
					<path class="st6" d="M907.75,613.37c-0.81,4.56-1.09,9.21-0.72,13.82c0.17,2.3,0.43,4.6,1.16,6.76
						c0.71,2.13,1.85,4.25,3.71,5.43c1.86,1.19,4.27,1.16,6.22,0.11c1.98-1,3.61-2.68,4.95-4.49c2.71-3.68,4.67-7.92,5.73-12.36
						l0.98,0.16c-0.36,4.46-0.07,9.01,0.86,13.37c0.25,1.06,0.64,2.07,1.41,2.73c0.76,0.67,1.8,1.01,2.85,1.06
						c2.14,0.11,4.16-1.04,5.95-2.34c7.26-5.36,13.76-11.76,19.33-18.91c-5.25,7.4-11.65,13.99-18.88,19.53
						c-0.91,0.69-1.88,1.35-2.95,1.84c-1.06,0.5-2.27,0.8-3.48,0.74c-1.2-0.05-2.44-0.43-3.4-1.26c-0.98-0.84-1.44-2.06-1.71-3.18
						c-0.99-4.49-1.31-9.09-0.98-13.66l0.98,0.16c-1.11,4.57-3.16,8.9-5.97,12.67c-1.42,1.88-3.12,3.63-5.3,4.72
						c-1.08,0.53-2.3,0.89-3.54,0.85c-1.24-0.03-2.46-0.42-3.49-1.09c-2.07-1.39-3.19-3.67-3.89-5.89
						c-0.71-2.26-0.92-4.61-1.04-6.93C906.32,622.57,906.71,617.89,907.75,613.37z"/>
				</g>
				<g>
					<path class="st6" d="M977,636.42c2.78,6.68,5.98,13.16,9.56,19.42c1.81,3.12,3.62,6.25,6.03,8.89c1.2,1.31,2.51,2.53,4.01,3.43
						c1.5,0.9,3.18,1.48,4.9,1.61l-0.42,0.23c0.93-1.64,0.75-3.69,0.27-5.57c-0.5-1.9-1.23-3.82-1.85-5.74l-3.82-11.51l-1.22-3.67
						l2.07,3.27c2.26,3.57,4.53,7.14,7,10.55c2.48,3.4,5.13,6.69,8.17,9.6c1.51,1.45,3.13,2.81,5.02,3.65
						c1.86,0.84,4.06,1.08,5.99,0.36c0.96-0.35,1.81-0.98,2.44-1.8c0.63-0.81,1.05-1.79,1.29-2.8c0.47-2.05,0.37-4.19,0.12-6.29
						c0.34,2.08,0.53,4.23,0.11,6.34c-0.22,1.05-0.62,2.07-1.26,2.95c-0.63,0.88-1.53,1.59-2.54,2c-2.04,0.84-4.39,0.62-6.37-0.23
						c-2.01-0.85-3.7-2.24-5.27-3.68c-3.13-2.89-5.9-6.16-8.4-9.59c-2.51-3.43-4.81-7-7.09-10.56l0.85-0.41l3.85,11.5
						c0.61,1.93,1.32,3.81,1.84,5.82c0.25,1,0.42,2.05,0.41,3.12c-0.01,1.07-0.26,2.17-0.8,3.13l-0.14,0.25l-0.28-0.02
						c-1.88-0.15-3.7-0.8-5.29-1.77c-1.59-0.98-2.96-2.25-4.17-3.63c-2.43-2.77-4.2-5.98-5.96-9.13
						C982.53,649.81,979.52,643.2,977,636.42z"/>
				</g>
				<g>
					<path class="st6" d="M1006.49,698.38c-0.29,2.57-0.48,5.16-0.54,7.74c-0.06,2.58,0.02,5.17,0.19,7.74
						c0.18,2.57,0.47,5.15,1.43,7.49c0.95,2.31,2.68,4.38,4.97,5.26l-0.5,0.15c2.17-3.01,3.63-6.48,4.7-10.05
						c1.07-3.58,1.74-7.27,2.44-10.96l0.98,0.12c-0.22,4.09,0.07,8.2,0.87,12.22c0.4,2.01,0.92,3.99,1.57,5.94
						c0.64,1.93,1.44,3.82,2.62,5.45c1.16,1.62,2.82,2.94,4.79,3.23c1.96,0.33,3.98-0.42,5.6-1.61c1.64-1.2,2.84-2.92,3.7-4.78
						c0.87-1.86,1.45-3.85,2.04-5.83c-0.49,2.01-0.98,4.03-1.81,5.94c-0.8,1.91-1.98,3.73-3.65,5.05c-1.65,1.29-3.8,2.15-5.97,1.84
						c-1.07-0.15-2.11-0.56-3-1.16c-0.89-0.61-1.65-1.39-2.3-2.23c-1.28-1.7-2.18-3.64-2.84-5.62c-0.67-1.97-1.22-3.99-1.64-6.03
						c-0.85-4.08-1.17-8.28-0.97-12.45l0.98,0.12c-0.68,3.7-1.41,7.42-2.52,11.05c-1.11,3.62-2.64,7.18-4.9,10.28l-0.2,0.27
						l-0.3-0.12c-2.59-1.02-4.37-3.34-5.33-5.8c-0.97-2.49-1.19-5.14-1.32-7.73c-0.13-2.6-0.1-5.2,0.05-7.79
						C1005.78,703.52,1006.06,700.94,1006.49,698.38z"/>
				</g>
			</g>
		</g>
	</g>
</g>
</svg>
